<?xml version="1.0" encoding="utf-8" standalone="no"?>
<!DOCTYPE svg PUBLIC "-//W3C//DTD SVG 1.1//EN"
  "http://www.w3.org/Graphics/SVG/1.1/DTD/svg11.dtd">
<svg xmlns:xlink="http://www.w3.org/1999/xlink" width="856.8pt" height="568.637812pt" viewBox="0 0 856.8 568.637812" xmlns="http://www.w3.org/2000/svg" version="1.1">
 <metadata>
  <rdf:RDF xmlns:dc="http://purl.org/dc/elements/1.1/" xmlns:cc="http://creativecommons.org/ns#" xmlns:rdf="http://www.w3.org/1999/02/22-rdf-syntax-ns#">
   <cc:Work>
    <dc:type rdf:resource="http://purl.org/dc/dcmitype/StillImage"/>
    <dc:date>2026-01-03T04:00:49.624689</dc:date>
    <dc:format>image/svg+xml</dc:format>
    <dc:creator>
     <cc:Agent>
      <dc:title>Matplotlib v3.10.8, https://matplotlib.org/</dc:title>
     </cc:Agent>
    </dc:creator>
   </cc:Work>
  </rdf:RDF>
 </metadata>
 <defs>
  <style type="text/css">*{stroke-linejoin: round; stroke-linecap: butt}</style>
 </defs>
 <g id="figure_1">
  <g id="patch_1">
   <path d="M 0 568.637812 
L 856.8 568.637812 
L 856.8 0 
L 0 0 
z
" style="fill: #ffffff"/>
  </g>
  <g id="axes_1">
   <g id="patch_2">
    <path d="M 88.961344 514.786573 
Q 428.401412 514.786573 766.723446 514.786573 
" clip-path="url(#p61cf813fe5)" style="fill: none; stroke: #666666; stroke-linecap: round"/>
    <path d="M 762.723446 512.786573 
L 766.723446 514.786573 
L 762.723446 516.786573 
z
" clip-path="url(#p61cf813fe5)" style="fill: #666666; stroke: #666666; stroke-linecap: round"/>
   </g>
   <g id="patch_3">
    <path d="M 771.475392 507.733241 
Q 744.853564 470.356498 718.880356 433.89041 
" clip-path="url(#p61cf813fe5)" style="fill: none; stroke: #666666; stroke-linecap: round"/>
    <path d="M 719.5719 438.308755 
L 718.880356 433.89041 
L 722.829958 435.988182 
z
" clip-path="url(#p61cf813fe5)" style="fill: #666666; stroke: #666666; stroke-linecap: round"/>
   </g>
   <g id="patch_4">
    <path d="M 708.184633 418.873737 
Q 697.38667 403.71352 687.237327 389.463957 
" clip-path="url(#p61cf813fe5)" style="fill: none; stroke: #666666; stroke-linecap: round"/>
    <path d="M 687.928871 393.882301 
L 687.237327 389.463957 
L 691.186929 391.561729 
z
" clip-path="url(#p61cf813fe5)" style="fill: #666666; stroke: #666666; stroke-linecap: round"/>
   </g>
   <g id="patch_5">
    <path d="M 116.969987 463.303489 
Q 175.236496 381.497974 232.854386 300.603114 
" clip-path="url(#p61cf813fe5)" style="fill: none; stroke: #666666; stroke-linecap: round"/>
    <path d="M 228.904784 302.700885 
L 232.854386 300.603114 
L 232.162842 305.021458 
z
" clip-path="url(#p61cf813fe5)" style="fill: #666666; stroke: #666666; stroke-linecap: round"/>
   </g>
   <g id="patch_6">
    <path d="M 243.551505 299.691144 
Q 254.349468 314.851362 264.498812 329.100924 
" clip-path="url(#p61cf813fe5)" style="fill: none; stroke: #666666; stroke-linecap: round"/>
    <path d="M 263.807268 324.68258 
L 264.498812 329.100924 
L 260.54921 327.003153 
z
" clip-path="url(#p61cf813fe5)" style="fill: #666666; stroke: #666666; stroke-linecap: round"/>
   </g>
   <g id="patch_7">
    <path d="M 278.782437 337.997365 
Q 475.869039 359.282545 671.84407 380.447677 
" clip-path="url(#p61cf813fe5)" style="fill: none; stroke: #666666; stroke-linecap: round"/>
    <path d="M 668.081945 378.029741 
L 671.84407 380.447677 
L 667.652446 382.006615 
z
" clip-path="url(#p61cf813fe5)" style="fill: #666666; stroke: #666666; stroke-linecap: round"/>
   </g>
   <g id="patch_8">
    <path d="M 676.536357 374.439917 
Q 634.093593 314.850761 592.299449 256.172259 
" clip-path="url(#p61cf813fe5)" style="fill: none; stroke: #666666; stroke-linecap: round"/>
    <path d="M 592.990993 260.590604 
L 592.299449 256.172259 
L 596.249051 258.270031 
z
" clip-path="url(#p61cf813fe5)" style="fill: #666666; stroke: #666666; stroke-linecap: round"/>
   </g>
   <g id="patch_9">
    <path d="M 581.603116 241.154729 
Q 570.805153 225.994511 560.655809 211.744949 
" clip-path="url(#p61cf813fe5)" style="fill: none; stroke: #666666; stroke-linecap: round"/>
    <path d="M 561.347353 216.163293 
L 560.655809 211.744949 
L 564.605411 213.84272 
z
" clip-path="url(#p61cf813fe5)" style="fill: #666666; stroke: #666666; stroke-linecap: round"/>
   </g>
   <g id="patch_10">
    <path d="M 549.957736 196.724977 
Q 539.159773 181.564759 529.01043 167.315197 
" clip-path="url(#p61cf813fe5)" style="fill: none; stroke: #666666; stroke-linecap: round"/>
    <path d="M 529.701974 171.733541 
L 529.01043 167.315197 
L 532.960032 169.412968 
z
" clip-path="url(#p61cf813fe5)" style="fill: #666666; stroke: #666666; stroke-linecap: round"/>
   </g>
   <g id="patch_11">
    <path d="M 518.312357 152.295225 
Q 507.514394 137.135007 497.36505 122.885445 
" clip-path="url(#p61cf813fe5)" style="fill: none; stroke: #666666; stroke-linecap: round"/>
    <path d="M 498.056594 127.303789 
L 497.36505 122.885445 
L 501.314652 124.983216 
z
" clip-path="url(#p61cf813fe5)" style="fill: #666666; stroke: #666666; stroke-linecap: round"/>
   </g>
   <g id="patch_12">
    <path d="M 486.666978 107.865473 
Q 475.869014 92.705255 465.719671 78.455693 
" clip-path="url(#p61cf813fe5)" style="fill: none; stroke: #666666; stroke-linecap: round"/>
    <path d="M 466.411215 82.874037 
L 465.719671 78.455693 
L 469.669273 80.553464 
z
" clip-path="url(#p61cf813fe5)" style="fill: #666666; stroke: #666666; stroke-linecap: round"/>
   </g>
   <g id="patch_13">
    <path d="M 455.021115 77.543062 
Q 380.931643 181.563836 307.490791 284.673956 
" clip-path="url(#p61cf813fe5)" style="fill: none; stroke: #666666; stroke-linecap: round"/>
    <path d="M 311.440393 282.576185 
L 307.490791 284.673956 
L 308.182335 280.255612 
z
" clip-path="url(#p61cf813fe5)" style="fill: #666666; stroke: #666666; stroke-linecap: round"/>
   </g>
   <g id="PathCollection_1">
    <defs>
     <path id="C0_0_938d205cb0" d="M 0 22.36068 
C 5.930122 22.36068 11.618159 20.004617 15.811388 15.811388 
C 20.004617 11.618159 22.36068 5.930122 22.36068 -0 
C 22.36068 -5.930122 20.004617 -11.618159 15.811388 -15.811388 
C 11.618159 -20.004617 5.930122 -22.36068 0 -22.36068 
C -5.930122 -22.36068 -11.618159 -20.004617 -15.811388 -15.811388 
C -20.004617 -11.618159 -22.36068 -5.930122 -22.36068 0 
C -22.36068 5.930122 -20.004617 11.618159 -15.811388 15.811388 
C -11.618159 20.004617 -5.930122 22.36068 0 22.36068 
z
"/>
    </defs>
    <g clip-path="url(#p61cf813fe5)">
     <use xlink:href="#C0_0_938d205cb0" x="80.300826" y="514.786573" style="fill: #e3f2fd; stroke: #e3f2fd"/>
    </g>
    <g clip-path="url(#p61cf813fe5)">
     <use xlink:href="#C0_0_938d205cb0" x="776.499174" y="514.786573" style="fill: #e3f2fd; stroke: #e3f2fd"/>
    </g>
    <g clip-path="url(#p61cf813fe5)">
     <use xlink:href="#C0_0_938d205cb0" x="713.208415" y="425.927069" style="fill: #f3e5f5; stroke: #f3e5f5"/>
    </g>
    <g clip-path="url(#p61cf813fe5)">
     <use xlink:href="#C0_0_938d205cb0" x="111.946206" y="470.356821" style="fill: #e3f2fd; stroke: #e3f2fd"/>
    </g>
    <g clip-path="url(#p61cf813fe5)">
     <use xlink:href="#C0_0_938d205cb0" x="238.527724" y="292.637812" style="fill: #e3f2fd; stroke: #e3f2fd"/>
    </g>
    <g clip-path="url(#p61cf813fe5)">
     <use xlink:href="#C0_0_938d205cb0" x="270.173103" y="337.067565" style="fill: #e3f2fd; stroke: #e3f2fd"/>
    </g>
    <g clip-path="url(#p61cf813fe5)">
     <use xlink:href="#C0_0_938d205cb0" x="681.563035" y="381.497317" style="fill: #eceff1; stroke: #eceff1"/>
    </g>
    <g clip-path="url(#p61cf813fe5)">
     <use xlink:href="#C0_0_938d205cb0" x="586.626897" y="248.20806" style="fill: #e3f2fd; stroke: #e3f2fd"/>
    </g>
    <g clip-path="url(#p61cf813fe5)">
     <use xlink:href="#C0_0_938d205cb0" x="554.981518" y="203.778308" style="fill: #e3f2fd; stroke: #e3f2fd"/>
    </g>
    <g clip-path="url(#p61cf813fe5)">
     <use xlink:href="#C0_0_938d205cb0" x="523.336138" y="159.348556" style="fill: #ffebee; stroke: #ffebee"/>
    </g>
    <g clip-path="url(#p61cf813fe5)">
     <use xlink:href="#C0_0_938d205cb0" x="491.690759" y="114.918804" style="fill: #e3f2fd; stroke: #e3f2fd"/>
    </g>
    <g clip-path="url(#p61cf813fe5)">
     <use xlink:href="#C0_0_938d205cb0" x="460.045379" y="70.489052" style="fill: #e3f2fd; stroke: #e3f2fd"/>
    </g>
    <g clip-path="url(#p61cf813fe5)">
     <use xlink:href="#C0_0_938d205cb0" x="301.818482" y="292.637812" style="fill: #eceff1; stroke: #eceff1"/>
    </g>
   </g>
   <g id="text_1">
    <g clip-path="url(#p61cf813fe5)">
     <!-- define_market -->
     <g transform="translate(51.592076 516.882823) scale(0.08 -0.08)">
      <defs>
       <path id="DejaVuSans-64" d="M 2906 2969 
L 2906 4863 
L 3481 4863 
L 3481 0 
L 2906 0 
L 2906 525 
Q 2725 213 2448 61 
Q 2172 -91 1784 -91 
Q 1150 -91 751 415 
Q 353 922 353 1747 
Q 353 2572 751 3078 
Q 1150 3584 1784 3584 
Q 2172 3584 2448 3432 
Q 2725 3281 2906 2969 
z
M 947 1747 
Q 947 1113 1208 752 
Q 1469 391 1925 391 
Q 2381 391 2643 752 
Q 2906 1113 2906 1747 
Q 2906 2381 2643 2742 
Q 2381 3103 1925 3103 
Q 1469 3103 1208 2742 
Q 947 2381 947 1747 
z
" transform="scale(0.015625)"/>
       <path id="DejaVuSans-65" d="M 3597 1894 
L 3597 1613 
L 953 1613 
Q 991 1019 1311 708 
Q 1631 397 2203 397 
Q 2534 397 2845 478 
Q 3156 559 3463 722 
L 3463 178 
Q 3153 47 2828 -22 
Q 2503 -91 2169 -91 
Q 1331 -91 842 396 
Q 353 884 353 1716 
Q 353 2575 817 3079 
Q 1281 3584 2069 3584 
Q 2775 3584 3186 3129 
Q 3597 2675 3597 1894 
z
M 3022 2063 
Q 3016 2534 2758 2815 
Q 2500 3097 2075 3097 
Q 1594 3097 1305 2825 
Q 1016 2553 972 2059 
L 3022 2063 
z
" transform="scale(0.015625)"/>
       <path id="DejaVuSans-66" d="M 2375 4863 
L 2375 4384 
L 1825 4384 
Q 1516 4384 1395 4259 
Q 1275 4134 1275 3809 
L 1275 3500 
L 2222 3500 
L 2222 3053 
L 1275 3053 
L 1275 0 
L 697 0 
L 697 3053 
L 147 3053 
L 147 3500 
L 697 3500 
L 697 3744 
Q 697 4328 969 4595 
Q 1241 4863 1831 4863 
L 2375 4863 
z
" transform="scale(0.015625)"/>
       <path id="DejaVuSans-69" d="M 603 3500 
L 1178 3500 
L 1178 0 
L 603 0 
L 603 3500 
z
M 603 4863 
L 1178 4863 
L 1178 4134 
L 603 4134 
L 603 4863 
z
" transform="scale(0.015625)"/>
       <path id="DejaVuSans-6e" d="M 3513 2113 
L 3513 0 
L 2938 0 
L 2938 2094 
Q 2938 2591 2744 2837 
Q 2550 3084 2163 3084 
Q 1697 3084 1428 2787 
Q 1159 2491 1159 1978 
L 1159 0 
L 581 0 
L 581 3500 
L 1159 3500 
L 1159 2956 
Q 1366 3272 1645 3428 
Q 1925 3584 2291 3584 
Q 2894 3584 3203 3211 
Q 3513 2838 3513 2113 
z
" transform="scale(0.015625)"/>
       <path id="DejaVuSans-5f" d="M 3263 -1063 
L 3263 -1509 
L -63 -1509 
L -63 -1063 
L 3263 -1063 
z
" transform="scale(0.015625)"/>
       <path id="DejaVuSans-6d" d="M 3328 2828 
Q 3544 3216 3844 3400 
Q 4144 3584 4550 3584 
Q 5097 3584 5394 3201 
Q 5691 2819 5691 2113 
L 5691 0 
L 5113 0 
L 5113 2094 
Q 5113 2597 4934 2840 
Q 4756 3084 4391 3084 
Q 3944 3084 3684 2787 
Q 3425 2491 3425 1978 
L 3425 0 
L 2847 0 
L 2847 2094 
Q 2847 2600 2669 2842 
Q 2491 3084 2119 3084 
Q 1678 3084 1418 2786 
Q 1159 2488 1159 1978 
L 1159 0 
L 581 0 
L 581 3500 
L 1159 3500 
L 1159 2956 
Q 1356 3278 1631 3431 
Q 1906 3584 2284 3584 
Q 2666 3584 2933 3390 
Q 3200 3197 3328 2828 
z
" transform="scale(0.015625)"/>
       <path id="DejaVuSans-61" d="M 2194 1759 
Q 1497 1759 1228 1600 
Q 959 1441 959 1056 
Q 959 750 1161 570 
Q 1363 391 1709 391 
Q 2188 391 2477 730 
Q 2766 1069 2766 1631 
L 2766 1759 
L 2194 1759 
z
M 3341 1997 
L 3341 0 
L 2766 0 
L 2766 531 
Q 2569 213 2275 61 
Q 1981 -91 1556 -91 
Q 1019 -91 701 211 
Q 384 513 384 1019 
Q 384 1609 779 1909 
Q 1175 2209 1959 2209 
L 2766 2209 
L 2766 2266 
Q 2766 2663 2505 2880 
Q 2244 3097 1772 3097 
Q 1472 3097 1187 3025 
Q 903 2953 641 2809 
L 641 3341 
Q 956 3463 1253 3523 
Q 1550 3584 1831 3584 
Q 2591 3584 2966 3190 
Q 3341 2797 3341 1997 
z
" transform="scale(0.015625)"/>
       <path id="DejaVuSans-72" d="M 2631 2963 
Q 2534 3019 2420 3045 
Q 2306 3072 2169 3072 
Q 1681 3072 1420 2755 
Q 1159 2438 1159 1844 
L 1159 0 
L 581 0 
L 581 3500 
L 1159 3500 
L 1159 2956 
Q 1341 3275 1631 3429 
Q 1922 3584 2338 3584 
Q 2397 3584 2469 3576 
Q 2541 3569 2628 3553 
L 2631 2963 
z
" transform="scale(0.015625)"/>
       <path id="DejaVuSans-6b" d="M 581 4863 
L 1159 4863 
L 1159 1991 
L 2875 3500 
L 3609 3500 
L 1753 1863 
L 3688 0 
L 2938 0 
L 1159 1709 
L 1159 0 
L 581 0 
L 581 4863 
z
" transform="scale(0.015625)"/>
       <path id="DejaVuSans-74" d="M 1172 4494 
L 1172 3500 
L 2356 3500 
L 2356 3053 
L 1172 3053 
L 1172 1153 
Q 1172 725 1289 603 
Q 1406 481 1766 481 
L 2356 481 
L 2356 0 
L 1766 0 
Q 1100 0 847 248 
Q 594 497 594 1153 
L 594 3053 
L 172 3053 
L 172 3500 
L 594 3500 
L 594 4494 
L 1172 4494 
z
" transform="scale(0.015625)"/>
      </defs>
      <use xlink:href="#DejaVuSans-64"/>
      <use xlink:href="#DejaVuSans-65" transform="translate(63.476562 0)"/>
      <use xlink:href="#DejaVuSans-66" transform="translate(125 0)"/>
      <use xlink:href="#DejaVuSans-69" transform="translate(160.205078 0)"/>
      <use xlink:href="#DejaVuSans-6e" transform="translate(187.988281 0)"/>
      <use xlink:href="#DejaVuSans-65" transform="translate(251.367188 0)"/>
      <use xlink:href="#DejaVuSans-5f" transform="translate(312.890625 0)"/>
      <use xlink:href="#DejaVuSans-6d" transform="translate(362.890625 0)"/>
      <use xlink:href="#DejaVuSans-61" transform="translate(460.302734 0)"/>
      <use xlink:href="#DejaVuSans-72" transform="translate(521.582031 0)"/>
      <use xlink:href="#DejaVuSans-6b" transform="translate(562.695312 0)"/>
      <use xlink:href="#DejaVuSans-65" transform="translate(616.980469 0)"/>
      <use xlink:href="#DejaVuSans-74" transform="translate(678.503906 0)"/>
     </g>
    </g>
   </g>
   <g id="text_2">
    <g clip-path="url(#p61cf813fe5)">
     <!-- identify_competitors -->
     <g transform="translate(735.500424 516.882823) scale(0.08 -0.08)">
      <defs>
       <path id="DejaVuSans-79" d="M 2059 -325 
Q 1816 -950 1584 -1140 
Q 1353 -1331 966 -1331 
L 506 -1331 
L 506 -850 
L 844 -850 
Q 1081 -850 1212 -737 
Q 1344 -625 1503 -206 
L 1606 56 
L 191 3500 
L 800 3500 
L 1894 763 
L 2988 3500 
L 3597 3500 
L 2059 -325 
z
" transform="scale(0.015625)"/>
       <path id="DejaVuSans-63" d="M 3122 3366 
L 3122 2828 
Q 2878 2963 2633 3030 
Q 2388 3097 2138 3097 
Q 1578 3097 1268 2742 
Q 959 2388 959 1747 
Q 959 1106 1268 751 
Q 1578 397 2138 397 
Q 2388 397 2633 464 
Q 2878 531 3122 666 
L 3122 134 
Q 2881 22 2623 -34 
Q 2366 -91 2075 -91 
Q 1284 -91 818 406 
Q 353 903 353 1747 
Q 353 2603 823 3093 
Q 1294 3584 2113 3584 
Q 2378 3584 2631 3529 
Q 2884 3475 3122 3366 
z
" transform="scale(0.015625)"/>
       <path id="DejaVuSans-6f" d="M 1959 3097 
Q 1497 3097 1228 2736 
Q 959 2375 959 1747 
Q 959 1119 1226 758 
Q 1494 397 1959 397 
Q 2419 397 2687 759 
Q 2956 1122 2956 1747 
Q 2956 2369 2687 2733 
Q 2419 3097 1959 3097 
z
M 1959 3584 
Q 2709 3584 3137 3096 
Q 3566 2609 3566 1747 
Q 3566 888 3137 398 
Q 2709 -91 1959 -91 
Q 1206 -91 779 398 
Q 353 888 353 1747 
Q 353 2609 779 3096 
Q 1206 3584 1959 3584 
z
" transform="scale(0.015625)"/>
       <path id="DejaVuSans-70" d="M 1159 525 
L 1159 -1331 
L 581 -1331 
L 581 3500 
L 1159 3500 
L 1159 2969 
Q 1341 3281 1617 3432 
Q 1894 3584 2278 3584 
Q 2916 3584 3314 3078 
Q 3713 2572 3713 1747 
Q 3713 922 3314 415 
Q 2916 -91 2278 -91 
Q 1894 -91 1617 61 
Q 1341 213 1159 525 
z
M 3116 1747 
Q 3116 2381 2855 2742 
Q 2594 3103 2138 3103 
Q 1681 3103 1420 2742 
Q 1159 2381 1159 1747 
Q 1159 1113 1420 752 
Q 1681 391 2138 391 
Q 2594 391 2855 752 
Q 3116 1113 3116 1747 
z
" transform="scale(0.015625)"/>
       <path id="DejaVuSans-73" d="M 2834 3397 
L 2834 2853 
Q 2591 2978 2328 3040 
Q 2066 3103 1784 3103 
Q 1356 3103 1142 2972 
Q 928 2841 928 2578 
Q 928 2378 1081 2264 
Q 1234 2150 1697 2047 
L 1894 2003 
Q 2506 1872 2764 1633 
Q 3022 1394 3022 966 
Q 3022 478 2636 193 
Q 2250 -91 1575 -91 
Q 1294 -91 989 -36 
Q 684 19 347 128 
L 347 722 
Q 666 556 975 473 
Q 1284 391 1588 391 
Q 1994 391 2212 530 
Q 2431 669 2431 922 
Q 2431 1156 2273 1281 
Q 2116 1406 1581 1522 
L 1381 1569 
Q 847 1681 609 1914 
Q 372 2147 372 2553 
Q 372 3047 722 3315 
Q 1072 3584 1716 3584 
Q 2034 3584 2315 3537 
Q 2597 3491 2834 3397 
z
" transform="scale(0.015625)"/>
      </defs>
      <use xlink:href="#DejaVuSans-69"/>
      <use xlink:href="#DejaVuSans-64" transform="translate(27.783203 0)"/>
      <use xlink:href="#DejaVuSans-65" transform="translate(91.259766 0)"/>
      <use xlink:href="#DejaVuSans-6e" transform="translate(152.783203 0)"/>
      <use xlink:href="#DejaVuSans-74" transform="translate(216.162109 0)"/>
      <use xlink:href="#DejaVuSans-69" transform="translate(255.371094 0)"/>
      <use xlink:href="#DejaVuSans-66" transform="translate(283.154297 0)"/>
      <use xlink:href="#DejaVuSans-79" transform="translate(316.609375 0)"/>
      <use xlink:href="#DejaVuSans-5f" transform="translate(375.789062 0)"/>
      <use xlink:href="#DejaVuSans-63" transform="translate(425.789062 0)"/>
      <use xlink:href="#DejaVuSans-6f" transform="translate(480.769531 0)"/>
      <use xlink:href="#DejaVuSans-6d" transform="translate(541.951172 0)"/>
      <use xlink:href="#DejaVuSans-70" transform="translate(639.363281 0)"/>
      <use xlink:href="#DejaVuSans-65" transform="translate(702.839844 0)"/>
      <use xlink:href="#DejaVuSans-74" transform="translate(764.363281 0)"/>
      <use xlink:href="#DejaVuSans-69" transform="translate(803.572266 0)"/>
      <use xlink:href="#DejaVuSans-74" transform="translate(831.355469 0)"/>
      <use xlink:href="#DejaVuSans-6f" transform="translate(870.564453 0)"/>
      <use xlink:href="#DejaVuSans-72" transform="translate(931.746094 0)"/>
      <use xlink:href="#DejaVuSans-73" transform="translate(972.859375 0)"/>
     </g>
    </g>
   </g>
   <g id="text_3">
    <g clip-path="url(#p61cf813fe5)">
     <!-- parallel_research -->
     <g transform="translate(679.02654 428.023319) scale(0.08 -0.08)">
      <defs>
       <path id="DejaVuSans-6c" d="M 603 4863 
L 1178 4863 
L 1178 0 
L 603 0 
L 603 4863 
z
" transform="scale(0.015625)"/>
       <path id="DejaVuSans-68" d="M 3513 2113 
L 3513 0 
L 2938 0 
L 2938 2094 
Q 2938 2591 2744 2837 
Q 2550 3084 2163 3084 
Q 1697 3084 1428 2787 
Q 1159 2491 1159 1978 
L 1159 0 
L 581 0 
L 581 4863 
L 1159 4863 
L 1159 2956 
Q 1366 3272 1645 3428 
Q 1925 3584 2291 3584 
Q 2894 3584 3203 3211 
Q 3513 2838 3513 2113 
z
" transform="scale(0.015625)"/>
      </defs>
      <use xlink:href="#DejaVuSans-70"/>
      <use xlink:href="#DejaVuSans-61" transform="translate(63.476562 0)"/>
      <use xlink:href="#DejaVuSans-72" transform="translate(124.755859 0)"/>
      <use xlink:href="#DejaVuSans-61" transform="translate(165.869141 0)"/>
      <use xlink:href="#DejaVuSans-6c" transform="translate(227.148438 0)"/>
      <use xlink:href="#DejaVuSans-6c" transform="translate(254.931641 0)"/>
      <use xlink:href="#DejaVuSans-65" transform="translate(282.714844 0)"/>
      <use xlink:href="#DejaVuSans-6c" transform="translate(344.238281 0)"/>
      <use xlink:href="#DejaVuSans-5f" transform="translate(372.021484 0)"/>
      <use xlink:href="#DejaVuSans-72" transform="translate(422.021484 0)"/>
      <use xlink:href="#DejaVuSans-65" transform="translate(460.884766 0)"/>
      <use xlink:href="#DejaVuSans-73" transform="translate(522.408203 0)"/>
      <use xlink:href="#DejaVuSans-65" transform="translate(574.507812 0)"/>
      <use xlink:href="#DejaVuSans-61" transform="translate(636.03125 0)"/>
      <use xlink:href="#DejaVuSans-72" transform="translate(697.310547 0)"/>
      <use xlink:href="#DejaVuSans-63" transform="translate(736.173828 0)"/>
      <use xlink:href="#DejaVuSans-68" transform="translate(791.154297 0)"/>
     </g>
    </g>
   </g>
   <g id="text_4">
    <g clip-path="url(#p61cf813fe5)">
     <!-- product_analysis -->
     <g transform="translate(78.368081 472.453071) scale(0.08 -0.08)">
      <defs>
       <path id="DejaVuSans-75" d="M 544 1381 
L 544 3500 
L 1119 3500 
L 1119 1403 
Q 1119 906 1312 657 
Q 1506 409 1894 409 
Q 2359 409 2629 706 
Q 2900 1003 2900 1516 
L 2900 3500 
L 3475 3500 
L 3475 0 
L 2900 0 
L 2900 538 
Q 2691 219 2414 64 
Q 2138 -91 1772 -91 
Q 1169 -91 856 284 
Q 544 659 544 1381 
z
M 1991 3584 
L 1991 3584 
z
" transform="scale(0.015625)"/>
      </defs>
      <use xlink:href="#DejaVuSans-70"/>
      <use xlink:href="#DejaVuSans-72" transform="translate(63.476562 0)"/>
      <use xlink:href="#DejaVuSans-6f" transform="translate(102.339844 0)"/>
      <use xlink:href="#DejaVuSans-64" transform="translate(163.521484 0)"/>
      <use xlink:href="#DejaVuSans-75" transform="translate(226.998047 0)"/>
      <use xlink:href="#DejaVuSans-63" transform="translate(290.376953 0)"/>
      <use xlink:href="#DejaVuSans-74" transform="translate(345.357422 0)"/>
      <use xlink:href="#DejaVuSans-5f" transform="translate(384.566406 0)"/>
      <use xlink:href="#DejaVuSans-61" transform="translate(434.566406 0)"/>
      <use xlink:href="#DejaVuSans-6e" transform="translate(495.845703 0)"/>
      <use xlink:href="#DejaVuSans-61" transform="translate(559.224609 0)"/>
      <use xlink:href="#DejaVuSans-6c" transform="translate(620.503906 0)"/>
      <use xlink:href="#DejaVuSans-79" transform="translate(648.287109 0)"/>
      <use xlink:href="#DejaVuSans-73" transform="translate(707.466797 0)"/>
      <use xlink:href="#DejaVuSans-69" transform="translate(759.566406 0)"/>
      <use xlink:href="#DejaVuSans-73" transform="translate(787.349609 0)"/>
     </g>
    </g>
   </g>
   <g id="text_5">
    <g clip-path="url(#p61cf813fe5)">
     <!-- pricing_research -->
     <g transform="translate(205.547099 294.734062) scale(0.08 -0.08)">
      <defs>
       <path id="DejaVuSans-67" d="M 2906 1791 
Q 2906 2416 2648 2759 
Q 2391 3103 1925 3103 
Q 1463 3103 1205 2759 
Q 947 2416 947 1791 
Q 947 1169 1205 825 
Q 1463 481 1925 481 
Q 2391 481 2648 825 
Q 2906 1169 2906 1791 
z
M 3481 434 
Q 3481 -459 3084 -895 
Q 2688 -1331 1869 -1331 
Q 1566 -1331 1297 -1286 
Q 1028 -1241 775 -1147 
L 775 -588 
Q 1028 -725 1275 -790 
Q 1522 -856 1778 -856 
Q 2344 -856 2625 -561 
Q 2906 -266 2906 331 
L 2906 616 
Q 2728 306 2450 153 
Q 2172 0 1784 0 
Q 1141 0 747 490 
Q 353 981 353 1791 
Q 353 2603 747 3093 
Q 1141 3584 1784 3584 
Q 2172 3584 2450 3431 
Q 2728 3278 2906 2969 
L 2906 3500 
L 3481 3500 
L 3481 434 
z
" transform="scale(0.015625)"/>
      </defs>
      <use xlink:href="#DejaVuSans-70"/>
      <use xlink:href="#DejaVuSans-72" transform="translate(63.476562 0)"/>
      <use xlink:href="#DejaVuSans-69" transform="translate(104.589844 0)"/>
      <use xlink:href="#DejaVuSans-63" transform="translate(132.373047 0)"/>
      <use xlink:href="#DejaVuSans-69" transform="translate(187.353516 0)"/>
      <use xlink:href="#DejaVuSans-6e" transform="translate(215.136719 0)"/>
      <use xlink:href="#DejaVuSans-67" transform="translate(278.515625 0)"/>
      <use xlink:href="#DejaVuSans-5f" transform="translate(341.992188 0)"/>
      <use xlink:href="#DejaVuSans-72" transform="translate(391.992188 0)"/>
      <use xlink:href="#DejaVuSans-65" transform="translate(430.855469 0)"/>
      <use xlink:href="#DejaVuSans-73" transform="translate(492.378906 0)"/>
      <use xlink:href="#DejaVuSans-65" transform="translate(544.478516 0)"/>
      <use xlink:href="#DejaVuSans-61" transform="translate(606.001953 0)"/>
      <use xlink:href="#DejaVuSans-72" transform="translate(667.28125 0)"/>
      <use xlink:href="#DejaVuSans-63" transform="translate(706.144531 0)"/>
      <use xlink:href="#DejaVuSans-68" transform="translate(761.125 0)"/>
     </g>
    </g>
   </g>
   <g id="text_6">
    <g clip-path="url(#p61cf813fe5)">
     <!-- positioning_research -->
     <g transform="translate(228.843103 339.163815) scale(0.08 -0.08)">
      <use xlink:href="#DejaVuSans-70"/>
      <use xlink:href="#DejaVuSans-6f" transform="translate(63.476562 0)"/>
      <use xlink:href="#DejaVuSans-73" transform="translate(124.658203 0)"/>
      <use xlink:href="#DejaVuSans-69" transform="translate(176.757812 0)"/>
      <use xlink:href="#DejaVuSans-74" transform="translate(204.541016 0)"/>
      <use xlink:href="#DejaVuSans-69" transform="translate(243.75 0)"/>
      <use xlink:href="#DejaVuSans-6f" transform="translate(271.533203 0)"/>
      <use xlink:href="#DejaVuSans-6e" transform="translate(332.714844 0)"/>
      <use xlink:href="#DejaVuSans-69" transform="translate(396.09375 0)"/>
      <use xlink:href="#DejaVuSans-6e" transform="translate(423.876953 0)"/>
      <use xlink:href="#DejaVuSans-67" transform="translate(487.255859 0)"/>
      <use xlink:href="#DejaVuSans-5f" transform="translate(550.732422 0)"/>
      <use xlink:href="#DejaVuSans-72" transform="translate(600.732422 0)"/>
      <use xlink:href="#DejaVuSans-65" transform="translate(639.595703 0)"/>
      <use xlink:href="#DejaVuSans-73" transform="translate(701.119141 0)"/>
      <use xlink:href="#DejaVuSans-65" transform="translate(753.21875 0)"/>
      <use xlink:href="#DejaVuSans-61" transform="translate(814.742188 0)"/>
      <use xlink:href="#DejaVuSans-72" transform="translate(876.021484 0)"/>
      <use xlink:href="#DejaVuSans-63" transform="translate(914.884766 0)"/>
      <use xlink:href="#DejaVuSans-68" transform="translate(969.865234 0)"/>
     </g>
    </g>
   </g>
   <g id="text_7">
    <g clip-path="url(#p61cf813fe5)">
     <!-- aggregate_research -->
     <g transform="translate(641.696785 383.593567) scale(0.08 -0.08)">
      <use xlink:href="#DejaVuSans-61"/>
      <use xlink:href="#DejaVuSans-67" transform="translate(61.279297 0)"/>
      <use xlink:href="#DejaVuSans-67" transform="translate(124.755859 0)"/>
      <use xlink:href="#DejaVuSans-72" transform="translate(188.232422 0)"/>
      <use xlink:href="#DejaVuSans-65" transform="translate(227.095703 0)"/>
      <use xlink:href="#DejaVuSans-67" transform="translate(288.619141 0)"/>
      <use xlink:href="#DejaVuSans-61" transform="translate(352.095703 0)"/>
      <use xlink:href="#DejaVuSans-74" transform="translate(413.375 0)"/>
      <use xlink:href="#DejaVuSans-65" transform="translate(452.583984 0)"/>
      <use xlink:href="#DejaVuSans-5f" transform="translate(514.107422 0)"/>
      <use xlink:href="#DejaVuSans-72" transform="translate(564.107422 0)"/>
      <use xlink:href="#DejaVuSans-65" transform="translate(602.970703 0)"/>
      <use xlink:href="#DejaVuSans-73" transform="translate(664.494141 0)"/>
      <use xlink:href="#DejaVuSans-65" transform="translate(716.59375 0)"/>
      <use xlink:href="#DejaVuSans-61" transform="translate(778.117188 0)"/>
      <use xlink:href="#DejaVuSans-72" transform="translate(839.396484 0)"/>
      <use xlink:href="#DejaVuSans-63" transform="translate(878.259766 0)"/>
      <use xlink:href="#DejaVuSans-68" transform="translate(933.240234 0)"/>
     </g>
    </g>
   </g>
   <g id="text_8">
    <g clip-path="url(#p61cf813fe5)">
     <!-- threat_assessment -->
     <g transform="translate(548.780647 250.30431) scale(0.08 -0.08)">
      <use xlink:href="#DejaVuSans-74"/>
      <use xlink:href="#DejaVuSans-68" transform="translate(39.208984 0)"/>
      <use xlink:href="#DejaVuSans-72" transform="translate(102.587891 0)"/>
      <use xlink:href="#DejaVuSans-65" transform="translate(141.451172 0)"/>
      <use xlink:href="#DejaVuSans-61" transform="translate(202.974609 0)"/>
      <use xlink:href="#DejaVuSans-74" transform="translate(264.253906 0)"/>
      <use xlink:href="#DejaVuSans-5f" transform="translate(303.462891 0)"/>
      <use xlink:href="#DejaVuSans-61" transform="translate(353.462891 0)"/>
      <use xlink:href="#DejaVuSans-73" transform="translate(414.742188 0)"/>
      <use xlink:href="#DejaVuSans-73" transform="translate(466.841797 0)"/>
      <use xlink:href="#DejaVuSans-65" transform="translate(518.941406 0)"/>
      <use xlink:href="#DejaVuSans-73" transform="translate(580.464844 0)"/>
      <use xlink:href="#DejaVuSans-73" transform="translate(632.564453 0)"/>
      <use xlink:href="#DejaVuSans-6d" transform="translate(684.664062 0)"/>
      <use xlink:href="#DejaVuSans-65" transform="translate(782.076172 0)"/>
      <use xlink:href="#DejaVuSans-6e" transform="translate(843.599609 0)"/>
      <use xlink:href="#DejaVuSans-74" transform="translate(906.978516 0)"/>
     </g>
    </g>
   </g>
   <g id="text_9">
    <g clip-path="url(#p61cf813fe5)">
     <!-- swot_analysis -->
     <g transform="translate(527.415893 205.874558) scale(0.08 -0.08)">
      <defs>
       <path id="DejaVuSans-77" d="M 269 3500 
L 844 3500 
L 1563 769 
L 2278 3500 
L 2956 3500 
L 3675 769 
L 4391 3500 
L 4966 3500 
L 4050 0 
L 3372 0 
L 2619 2869 
L 1863 0 
L 1184 0 
L 269 3500 
z
" transform="scale(0.015625)"/>
      </defs>
      <use xlink:href="#DejaVuSans-73"/>
      <use xlink:href="#DejaVuSans-77" transform="translate(52.099609 0)"/>
      <use xlink:href="#DejaVuSans-6f" transform="translate(133.886719 0)"/>
      <use xlink:href="#DejaVuSans-74" transform="translate(195.068359 0)"/>
      <use xlink:href="#DejaVuSans-5f" transform="translate(234.277344 0)"/>
      <use xlink:href="#DejaVuSans-61" transform="translate(284.277344 0)"/>
      <use xlink:href="#DejaVuSans-6e" transform="translate(345.556641 0)"/>
      <use xlink:href="#DejaVuSans-61" transform="translate(408.935547 0)"/>
      <use xlink:href="#DejaVuSans-6c" transform="translate(470.214844 0)"/>
      <use xlink:href="#DejaVuSans-79" transform="translate(497.998047 0)"/>
      <use xlink:href="#DejaVuSans-73" transform="translate(557.177734 0)"/>
      <use xlink:href="#DejaVuSans-69" transform="translate(609.277344 0)"/>
      <use xlink:href="#DejaVuSans-73" transform="translate(637.060547 0)"/>
     </g>
    </g>
   </g>
   <g id="text_10">
    <g clip-path="url(#p61cf813fe5)">
     <!-- review_analysis -->
     <g transform="translate(491.914263 161.444806) scale(0.08 -0.08)">
      <defs>
       <path id="DejaVuSans-76" d="M 191 3500 
L 800 3500 
L 1894 563 
L 2988 3500 
L 3597 3500 
L 2284 0 
L 1503 0 
L 191 3500 
z
" transform="scale(0.015625)"/>
      </defs>
      <use xlink:href="#DejaVuSans-72"/>
      <use xlink:href="#DejaVuSans-65" transform="translate(38.863281 0)"/>
      <use xlink:href="#DejaVuSans-76" transform="translate(100.386719 0)"/>
      <use xlink:href="#DejaVuSans-69" transform="translate(159.566406 0)"/>
      <use xlink:href="#DejaVuSans-65" transform="translate(187.349609 0)"/>
      <use xlink:href="#DejaVuSans-77" transform="translate(248.873047 0)"/>
      <use xlink:href="#DejaVuSans-5f" transform="translate(330.660156 0)"/>
      <use xlink:href="#DejaVuSans-61" transform="translate(380.660156 0)"/>
      <use xlink:href="#DejaVuSans-6e" transform="translate(441.939453 0)"/>
      <use xlink:href="#DejaVuSans-61" transform="translate(505.318359 0)"/>
      <use xlink:href="#DejaVuSans-6c" transform="translate(566.597656 0)"/>
      <use xlink:href="#DejaVuSans-79" transform="translate(594.380859 0)"/>
      <use xlink:href="#DejaVuSans-73" transform="translate(653.560547 0)"/>
      <use xlink:href="#DejaVuSans-69" transform="translate(705.660156 0)"/>
      <use xlink:href="#DejaVuSans-73" transform="translate(733.443359 0)"/>
     </g>
    </g>
   </g>
   <g id="text_11">
    <g clip-path="url(#p61cf813fe5)">
     <!-- generate_recommendations -->
     <g transform="translate(435.381384 117.015054) scale(0.08 -0.08)">
      <use xlink:href="#DejaVuSans-67"/>
      <use xlink:href="#DejaVuSans-65" transform="translate(63.476562 0)"/>
      <use xlink:href="#DejaVuSans-6e" transform="translate(125 0)"/>
      <use xlink:href="#DejaVuSans-65" transform="translate(188.378906 0)"/>
      <use xlink:href="#DejaVuSans-72" transform="translate(249.902344 0)"/>
      <use xlink:href="#DejaVuSans-61" transform="translate(291.015625 0)"/>
      <use xlink:href="#DejaVuSans-74" transform="translate(352.294922 0)"/>
      <use xlink:href="#DejaVuSans-65" transform="translate(391.503906 0)"/>
      <use xlink:href="#DejaVuSans-5f" transform="translate(453.027344 0)"/>
      <use xlink:href="#DejaVuSans-72" transform="translate(503.027344 0)"/>
      <use xlink:href="#DejaVuSans-65" transform="translate(541.890625 0)"/>
      <use xlink:href="#DejaVuSans-63" transform="translate(603.414062 0)"/>
      <use xlink:href="#DejaVuSans-6f" transform="translate(658.394531 0)"/>
      <use xlink:href="#DejaVuSans-6d" transform="translate(719.576172 0)"/>
      <use xlink:href="#DejaVuSans-6d" transform="translate(816.988281 0)"/>
      <use xlink:href="#DejaVuSans-65" transform="translate(914.400391 0)"/>
      <use xlink:href="#DejaVuSans-6e" transform="translate(975.923828 0)"/>
      <use xlink:href="#DejaVuSans-64" transform="translate(1039.302734 0)"/>
      <use xlink:href="#DejaVuSans-61" transform="translate(1102.779297 0)"/>
      <use xlink:href="#DejaVuSans-74" transform="translate(1164.058594 0)"/>
      <use xlink:href="#DejaVuSans-69" transform="translate(1203.267578 0)"/>
      <use xlink:href="#DejaVuSans-6f" transform="translate(1231.050781 0)"/>
      <use xlink:href="#DejaVuSans-6e" transform="translate(1292.232422 0)"/>
      <use xlink:href="#DejaVuSans-73" transform="translate(1355.611328 0)"/>
     </g>
    </g>
   </g>
   <g id="text_12">
    <g clip-path="url(#p61cf813fe5)">
     <!-- generate_report -->
     <g transform="translate(427.708504 72.474052) scale(0.08 -0.08)">
      <use xlink:href="#DejaVuSans-67"/>
      <use xlink:href="#DejaVuSans-65" transform="translate(63.476562 0)"/>
      <use xlink:href="#DejaVuSans-6e" transform="translate(125 0)"/>
      <use xlink:href="#DejaVuSans-65" transform="translate(188.378906 0)"/>
      <use xlink:href="#DejaVuSans-72" transform="translate(249.902344 0)"/>
      <use xlink:href="#DejaVuSans-61" transform="translate(291.015625 0)"/>
      <use xlink:href="#DejaVuSans-74" transform="translate(352.294922 0)"/>
      <use xlink:href="#DejaVuSans-65" transform="translate(391.503906 0)"/>
      <use xlink:href="#DejaVuSans-5f" transform="translate(453.027344 0)"/>
      <use xlink:href="#DejaVuSans-72" transform="translate(503.027344 0)"/>
      <use xlink:href="#DejaVuSans-65" transform="translate(541.890625 0)"/>
      <use xlink:href="#DejaVuSans-70" transform="translate(603.414062 0)"/>
      <use xlink:href="#DejaVuSans-6f" transform="translate(666.890625 0)"/>
      <use xlink:href="#DejaVuSans-72" transform="translate(728.072266 0)"/>
      <use xlink:href="#DejaVuSans-74" transform="translate(769.185547 0)"/>
     </g>
    </g>
   </g>
   <g id="text_13">
    <g clip-path="url(#p61cf813fe5)">
     <!-- complete -->
     <g transform="translate(283.134107 294.845312) scale(0.08 -0.08)">
      <use xlink:href="#DejaVuSans-63"/>
      <use xlink:href="#DejaVuSans-6f" transform="translate(54.980469 0)"/>
      <use xlink:href="#DejaVuSans-6d" transform="translate(116.162109 0)"/>
      <use xlink:href="#DejaVuSans-70" transform="translate(213.574219 0)"/>
      <use xlink:href="#DejaVuSans-6c" transform="translate(277.050781 0)"/>
      <use xlink:href="#DejaVuSans-65" transform="translate(304.833984 0)"/>
      <use xlink:href="#DejaVuSans-74" transform="translate(366.357422 0)"/>
      <use xlink:href="#DejaVuSans-65" transform="translate(405.566406 0)"/>
     </g>
    </g>
   </g>
   <g id="text_14">
    <!-- competitive_analysis -->
    <g transform="translate(345.960781 17.837812) scale(0.14 -0.14)">
     <defs>
      <path id="DejaVuSans-Bold-63" d="M 3366 3391 
L 3366 2478 
Q 3138 2634 2908 2709 
Q 2678 2784 2431 2784 
Q 1963 2784 1702 2511 
Q 1441 2238 1441 1747 
Q 1441 1256 1702 982 
Q 1963 709 2431 709 
Q 2694 709 2930 787 
Q 3166 866 3366 1019 
L 3366 103 
Q 3103 6 2833 -42 
Q 2563 -91 2291 -91 
Q 1344 -91 809 395 
Q 275 881 275 1747 
Q 275 2613 809 3098 
Q 1344 3584 2291 3584 
Q 2566 3584 2833 3536 
Q 3100 3488 3366 3391 
z
" transform="scale(0.015625)"/>
      <path id="DejaVuSans-Bold-6f" d="M 2203 2784 
Q 1831 2784 1636 2517 
Q 1441 2250 1441 1747 
Q 1441 1244 1636 976 
Q 1831 709 2203 709 
Q 2569 709 2762 976 
Q 2956 1244 2956 1747 
Q 2956 2250 2762 2517 
Q 2569 2784 2203 2784 
z
M 2203 3584 
Q 3106 3584 3614 3096 
Q 4122 2609 4122 1747 
Q 4122 884 3614 396 
Q 3106 -91 2203 -91 
Q 1297 -91 786 396 
Q 275 884 275 1747 
Q 275 2609 786 3096 
Q 1297 3584 2203 3584 
z
" transform="scale(0.015625)"/>
      <path id="DejaVuSans-Bold-6d" d="M 3781 2919 
Q 3994 3244 4286 3414 
Q 4578 3584 4928 3584 
Q 5531 3584 5847 3212 
Q 6163 2841 6163 2131 
L 6163 0 
L 5038 0 
L 5038 1825 
Q 5041 1866 5042 1909 
Q 5044 1953 5044 2034 
Q 5044 2406 4934 2573 
Q 4825 2741 4581 2741 
Q 4263 2741 4089 2478 
Q 3916 2216 3909 1719 
L 3909 0 
L 2784 0 
L 2784 1825 
Q 2784 2406 2684 2573 
Q 2584 2741 2328 2741 
Q 2006 2741 1831 2477 
Q 1656 2213 1656 1722 
L 1656 0 
L 531 0 
L 531 3500 
L 1656 3500 
L 1656 2988 
Q 1863 3284 2130 3434 
Q 2397 3584 2719 3584 
Q 3081 3584 3359 3409 
Q 3638 3234 3781 2919 
z
" transform="scale(0.015625)"/>
      <path id="DejaVuSans-Bold-70" d="M 1656 506 
L 1656 -1331 
L 538 -1331 
L 538 3500 
L 1656 3500 
L 1656 2988 
Q 1888 3294 2169 3439 
Q 2450 3584 2816 3584 
Q 3463 3584 3878 3070 
Q 4294 2556 4294 1747 
Q 4294 938 3878 423 
Q 3463 -91 2816 -91 
Q 2450 -91 2169 54 
Q 1888 200 1656 506 
z
M 2400 2772 
Q 2041 2772 1848 2508 
Q 1656 2244 1656 1747 
Q 1656 1250 1848 986 
Q 2041 722 2400 722 
Q 2759 722 2948 984 
Q 3138 1247 3138 1747 
Q 3138 2247 2948 2509 
Q 2759 2772 2400 2772 
z
" transform="scale(0.015625)"/>
      <path id="DejaVuSans-Bold-65" d="M 4031 1759 
L 4031 1441 
L 1416 1441 
Q 1456 1047 1700 850 
Q 1944 653 2381 653 
Q 2734 653 3104 758 
Q 3475 863 3866 1075 
L 3866 213 
Q 3469 63 3072 -14 
Q 2675 -91 2278 -91 
Q 1328 -91 801 392 
Q 275 875 275 1747 
Q 275 2603 792 3093 
Q 1309 3584 2216 3584 
Q 3041 3584 3536 3087 
Q 4031 2591 4031 1759 
z
M 2881 2131 
Q 2881 2450 2695 2645 
Q 2509 2841 2209 2841 
Q 1884 2841 1681 2658 
Q 1478 2475 1428 2131 
L 2881 2131 
z
" transform="scale(0.015625)"/>
      <path id="DejaVuSans-Bold-74" d="M 1759 4494 
L 1759 3500 
L 2913 3500 
L 2913 2700 
L 1759 2700 
L 1759 1216 
Q 1759 972 1856 886 
Q 1953 800 2241 800 
L 2816 800 
L 2816 0 
L 1856 0 
Q 1194 0 917 276 
Q 641 553 641 1216 
L 641 2700 
L 84 2700 
L 84 3500 
L 641 3500 
L 641 4494 
L 1759 4494 
z
" transform="scale(0.015625)"/>
      <path id="DejaVuSans-Bold-69" d="M 538 3500 
L 1656 3500 
L 1656 0 
L 538 0 
L 538 3500 
z
M 538 4863 
L 1656 4863 
L 1656 3950 
L 538 3950 
L 538 4863 
z
" transform="scale(0.015625)"/>
      <path id="DejaVuSans-Bold-76" d="M 97 3500 
L 1216 3500 
L 2088 1081 
L 2956 3500 
L 4078 3500 
L 2700 0 
L 1472 0 
L 97 3500 
z
" transform="scale(0.015625)"/>
      <path id="DejaVuSans-Bold-5f" d="M 3200 -916 
L 3200 -1509 
L 0 -1509 
L 0 -916 
L 3200 -916 
z
" transform="scale(0.015625)"/>
      <path id="DejaVuSans-Bold-61" d="M 2106 1575 
Q 1756 1575 1579 1456 
Q 1403 1338 1403 1106 
Q 1403 894 1545 773 
Q 1688 653 1941 653 
Q 2256 653 2472 879 
Q 2688 1106 2688 1447 
L 2688 1575 
L 2106 1575 
z
M 3816 1997 
L 3816 0 
L 2688 0 
L 2688 519 
Q 2463 200 2181 54 
Q 1900 -91 1497 -91 
Q 953 -91 614 226 
Q 275 544 275 1050 
Q 275 1666 698 1953 
Q 1122 2241 2028 2241 
L 2688 2241 
L 2688 2328 
Q 2688 2594 2478 2717 
Q 2269 2841 1825 2841 
Q 1466 2841 1156 2769 
Q 847 2697 581 2553 
L 581 3406 
Q 941 3494 1303 3539 
Q 1666 3584 2028 3584 
Q 2975 3584 3395 3211 
Q 3816 2838 3816 1997 
z
" transform="scale(0.015625)"/>
      <path id="DejaVuSans-Bold-6e" d="M 4056 2131 
L 4056 0 
L 2931 0 
L 2931 347 
L 2931 1631 
Q 2931 2084 2911 2256 
Q 2891 2428 2841 2509 
Q 2775 2619 2662 2680 
Q 2550 2741 2406 2741 
Q 2056 2741 1856 2470 
Q 1656 2200 1656 1722 
L 1656 0 
L 538 0 
L 538 3500 
L 1656 3500 
L 1656 2988 
Q 1909 3294 2193 3439 
Q 2478 3584 2822 3584 
Q 3428 3584 3742 3212 
Q 4056 2841 4056 2131 
z
" transform="scale(0.015625)"/>
      <path id="DejaVuSans-Bold-6c" d="M 538 4863 
L 1656 4863 
L 1656 0 
L 538 0 
L 538 4863 
z
" transform="scale(0.015625)"/>
      <path id="DejaVuSans-Bold-79" d="M 78 3500 
L 1197 3500 
L 2138 1125 
L 2938 3500 
L 4056 3500 
L 2584 -331 
Q 2363 -916 2067 -1148 
Q 1772 -1381 1288 -1381 
L 641 -1381 
L 641 -647 
L 991 -647 
Q 1275 -647 1404 -556 
Q 1534 -466 1606 -231 
L 1638 -134 
L 78 3500 
z
" transform="scale(0.015625)"/>
      <path id="DejaVuSans-Bold-73" d="M 3272 3391 
L 3272 2541 
Q 2913 2691 2578 2766 
Q 2244 2841 1947 2841 
Q 1628 2841 1473 2761 
Q 1319 2681 1319 2516 
Q 1319 2381 1436 2309 
Q 1553 2238 1856 2203 
L 2053 2175 
Q 2913 2066 3209 1816 
Q 3506 1566 3506 1031 
Q 3506 472 3093 190 
Q 2681 -91 1863 -91 
Q 1516 -91 1145 -36 
Q 775 19 384 128 
L 384 978 
Q 719 816 1070 734 
Q 1422 653 1784 653 
Q 2113 653 2278 743 
Q 2444 834 2444 1013 
Q 2444 1163 2330 1236 
Q 2216 1309 1875 1350 
L 1678 1375 
Q 931 1469 631 1722 
Q 331 1975 331 2491 
Q 331 3047 712 3315 
Q 1094 3584 1881 3584 
Q 2191 3584 2531 3537 
Q 2872 3491 3272 3391 
z
" transform="scale(0.015625)"/>
     </defs>
     <use xlink:href="#DejaVuSans-Bold-63"/>
     <use xlink:href="#DejaVuSans-Bold-6f" transform="translate(59.277344 0)"/>
     <use xlink:href="#DejaVuSans-Bold-6d" transform="translate(127.978516 0)"/>
     <use xlink:href="#DejaVuSans-Bold-70" transform="translate(232.177734 0)"/>
     <use xlink:href="#DejaVuSans-Bold-65" transform="translate(303.759766 0)"/>
     <use xlink:href="#DejaVuSans-Bold-74" transform="translate(371.582031 0)"/>
     <use xlink:href="#DejaVuSans-Bold-69" transform="translate(419.384766 0)"/>
     <use xlink:href="#DejaVuSans-Bold-74" transform="translate(453.662109 0)"/>
     <use xlink:href="#DejaVuSans-Bold-69" transform="translate(501.464844 0)"/>
     <use xlink:href="#DejaVuSans-Bold-76" transform="translate(535.742188 0)"/>
     <use xlink:href="#DejaVuSans-Bold-65" transform="translate(600.927734 0)"/>
     <use xlink:href="#DejaVuSans-Bold-5f" transform="translate(668.75 0)"/>
     <use xlink:href="#DejaVuSans-Bold-61" transform="translate(718.75 0)"/>
     <use xlink:href="#DejaVuSans-Bold-6e" transform="translate(786.230469 0)"/>
     <use xlink:href="#DejaVuSans-Bold-61" transform="translate(857.421875 0)"/>
     <use xlink:href="#DejaVuSans-Bold-6c" transform="translate(924.902344 0)"/>
     <use xlink:href="#DejaVuSans-Bold-79" transform="translate(959.179688 0)"/>
     <use xlink:href="#DejaVuSans-Bold-73" transform="translate(1024.365234 0)"/>
     <use xlink:href="#DejaVuSans-Bold-69" transform="translate(1083.886719 0)"/>
     <use xlink:href="#DejaVuSans-Bold-73" transform="translate(1118.164062 0)"/>
    </g>
   </g>
  </g>
 </g>
 <defs>
  <clipPath id="p61cf813fe5">
   <rect x="7.2" y="23.837812" width="842.4" height="537.6"/>
  </clipPath>
 </defs>
</svg>
