<?xml version="1.0" encoding="utf-8" standalone="no"?>
<!DOCTYPE svg PUBLIC "-//W3C//DTD SVG 1.1//EN"
  "http://www.w3.org/Graphics/SVG/1.1/DTD/svg11.dtd">
<svg xmlns:xlink="http://www.w3.org/1999/xlink" width="856.8pt" height="568.637812pt" viewBox="0 0 856.8 568.637812" xmlns="http://www.w3.org/2000/svg" version="1.1">
 <metadata>
  <rdf:RDF xmlns:dc="http://purl.org/dc/elements/1.1/" xmlns:cc="http://creativecommons.org/ns#" xmlns:rdf="http://www.w3.org/1999/02/22-rdf-syntax-ns#">
   <cc:Work>
    <dc:type rdf:resource="http://purl.org/dc/dcmitype/StillImage"/>
    <dc:date>2026-01-03T04:00:53.664943</dc:date>
    <dc:format>image/svg+xml</dc:format>
    <dc:creator>
     <cc:Agent>
      <dc:title>Matplotlib v3.10.8, https://matplotlib.org/</dc:title>
     </cc:Agent>
    </dc:creator>
   </cc:Work>
  </rdf:RDF>
 </metadata>
 <defs>
  <style type="text/css">*{stroke-linejoin: round; stroke-linecap: butt}</style>
 </defs>
 <g id="figure_1">
  <g id="patch_1">
   <path d="M 0 568.637812 
L 856.8 568.637812 
L 856.8 0 
L 0 0 
z
" style="fill: #ffffff"/>
  </g>
  <g id="axes_1">
   <g id="patch_2">
    <path d="M 149.920661 449.401113 
Q 149.920661 459.252221 149.920661 467.985295 
" clip-path="url(#p47b4b84fd4)" style="fill: none; stroke: #666666; stroke-linecap: round"/>
    <path d="M 151.920661 463.985295 
L 149.920661 467.985295 
L 147.920661 463.985295 
z
" clip-path="url(#p47b4b84fd4)" style="fill: #666666; stroke: #666666; stroke-linecap: round"/>
   </g>
   <g id="patch_3">
    <path d="M 142.276247 481.827185 
Q 115.110934 496.274075 88.932744 510.195999 
" clip-path="url(#p47b4b84fd4)" style="fill: none; stroke: #666666; stroke-linecap: round"/>
    <path d="M 93.403469 510.083644 
L 88.932744 510.195999 
L 91.525295 506.552007 
z
" clip-path="url(#p47b4b84fd4)" style="fill: #666666; stroke: #666666; stroke-linecap: round"/>
   </g>
   <g id="patch_4">
    <path d="M 88.961344 514.786573 
Q 428.401412 514.786573 766.723446 514.786573 
" clip-path="url(#p47b4b84fd4)" style="fill: none; stroke: #666666; stroke-linecap: round"/>
    <path d="M 762.723446 512.786573 
L 766.723446 514.786573 
L 762.723446 516.786573 
z
" clip-path="url(#p47b4b84fd4)" style="fill: #666666; stroke: #666666; stroke-linecap: round"/>
   </g>
   <g id="patch_5">
    <path d="M 595.445394 359.349783 
Q 614.051703 329.664503 632.06424 300.926554 
" clip-path="url(#p47b4b84fd4)" style="fill: none; stroke: #666666; stroke-linecap: round"/>
    <path d="M 628.245258 303.253651 
L 632.06424 300.926554 
L 631.634529 305.377997 
z
" clip-path="url(#p47b4b84fd4)" style="fill: #666666; stroke: #666666; stroke-linecap: round"/>
   </g>
   <g id="patch_6">
    <path d="M 641.858617 299.975429 
Q 648.86255 311.149795 655.272711 321.376832 
" clip-path="url(#p47b4b84fd4)" style="fill: none; stroke: #666666; stroke-linecap: round"/>
    <path d="M 654.843 316.925389 
L 655.272711 321.376832 
L 651.45373 319.049735 
z
" clip-path="url(#p47b4b84fd4)" style="fill: #666666; stroke: #666666; stroke-linecap: round"/>
   </g>
   <g id="patch_7">
    <path d="M 665.064166 336.998527 
Q 718.481929 422.223447 771.305918 506.501037 
" clip-path="url(#p47b4b84fd4)" style="fill: none; stroke: #666666; stroke-linecap: round"/>
    <path d="M 770.876207 502.049594 
L 771.305918 506.501037 
L 767.486937 504.17394 
z
" clip-path="url(#p47b4b84fd4)" style="fill: #666666; stroke: #666666; stroke-linecap: round"/>
   </g>
   <g id="patch_8">
    <path d="M 768.853697 510.720602 
Q 672.07072 459.250073 576.274866 408.30451 
" clip-path="url(#p47b4b84fd4)" style="fill: none; stroke: #666666; stroke-linecap: round"/>
    <path d="M 578.867416 411.948502 
L 576.274866 408.30451 
L 580.74559 408.416865 
z
" clip-path="url(#p47b4b84fd4)" style="fill: #666666; stroke: #666666; stroke-linecap: round"/>
   </g>
   <g id="patch_9">
    <path d="M 563.040556 396.374576 
Q 556.036623 385.20021 549.626463 374.973173 
" clip-path="url(#p47b4b84fd4)" style="fill: none; stroke: #666666; stroke-linecap: round"/>
    <path d="M 550.056174 379.424617 
L 549.626463 374.973173 
L 553.445444 377.30027 
z
" clip-path="url(#p47b4b84fd4)" style="fill: #666666; stroke: #666666; stroke-linecap: round"/>
   </g>
   <g id="patch_10">
    <path d="M 535.831852 365.707205 
Q 381.988752 348.175228 229.256496 330.769842 
" clip-path="url(#p47b4b84fd4)" style="fill: none; stroke: #666666; stroke-linecap: round"/>
    <path d="M 233.004318 333.20989 
L 229.256496 330.769842 
L 233.457227 329.235613 
z
" clip-path="url(#p47b4b84fd4)" style="fill: #666666; stroke: #666666; stroke-linecap: round"/>
   </g>
   <g id="patch_11">
    <path d="M 539.833945 359.349783 
Q 451.60628 218.587697 363.972388 78.77294 
" clip-path="url(#p47b4b84fd4)" style="fill: none; stroke: #666666; stroke-linecap: round"/>
    <path d="M 364.402099 83.224384 
L 363.972388 78.77294 
L 367.791369 81.100038 
z
" clip-path="url(#p47b4b84fd4)" style="fill: #666666; stroke: #666666; stroke-linecap: round"/>
   </g>
   <g id="patch_12">
    <path d="M 354.181052 77.826668 
Q 347.177119 89.001035 340.766958 99.228072 
" clip-path="url(#p47b4b84fd4)" style="fill: none; stroke: #666666; stroke-linecap: round"/>
    <path d="M 344.58594 96.900974 
L 340.766958 99.228072 
L 341.196669 94.776628 
z
" clip-path="url(#p47b4b84fd4)" style="fill: #666666; stroke: #666666; stroke-linecap: round"/>
   </g>
   <g id="patch_13">
    <path d="M 330.974441 114.851462 
Q 323.970507 126.025828 317.560347 136.252865 
" clip-path="url(#p47b4b84fd4)" style="fill: none; stroke: #666666; stroke-linecap: round"/>
    <path d="M 321.379328 133.925768 
L 317.560347 136.252865 
L 317.990058 131.801422 
z
" clip-path="url(#p47b4b84fd4)" style="fill: #666666; stroke: #666666; stroke-linecap: round"/>
   </g>
   <g id="patch_14">
    <path d="M 308.484537 152.281327 
Q 265.95396 237.100141 223.924525 320.919528 
" clip-path="url(#p47b4b84fd4)" style="fill: none; stroke: #666666; stroke-linecap: round"/>
    <path d="M 227.505296 318.240334 
L 223.924525 320.919528 
L 223.929633 316.447395 
z
" clip-path="url(#p47b4b84fd4)" style="fill: #666666; stroke: #666666; stroke-linecap: round"/>
   </g>
   <g id="patch_15">
    <path d="M 307.768891 151.87456 
Q 196.335189 329.660524 85.49526 506.499157 
" clip-path="url(#p47b4b84fd4)" style="fill: none; stroke: #666666; stroke-linecap: round"/>
    <path d="M 89.314242 504.17206 
L 85.49526 506.499157 
L 85.924971 502.047714 
z
" clip-path="url(#p47b4b84fd4)" style="fill: #666666; stroke: #666666; stroke-linecap: round"/>
   </g>
   <g id="patch_16">
    <path d="M 308.20143 152.133874 
Q 231.143529 292.63831 154.623252 432.162462 
" clip-path="url(#p47b4b84fd4)" style="fill: none; stroke: #666666; stroke-linecap: round"/>
    <path d="M 158.300306 429.61702 
L 154.623252 432.162462 
L 154.793131 427.693553 
z
" clip-path="url(#p47b4b84fd4)" style="fill: #666666; stroke: #666666; stroke-linecap: round"/>
   </g>
   <g id="patch_17">
    <path d="M 226.308147 324.26391 
Q 242.746879 311.150391 258.311603 298.734087 
" clip-path="url(#p47b4b84fd4)" style="fill: none; stroke: #666666; stroke-linecap: round"/>
    <path d="M 253.937438 299.665045 
L 258.311603 298.734087 
L 256.43187 302.791994 
z
" clip-path="url(#p47b4b84fd4)" style="fill: #666666; stroke: #666666; stroke-linecap: round"/>
   </g>
   <g id="patch_18">
    <path d="M 270.552832 285.300196 
Q 277.556765 274.12583 283.966926 263.898793 
" clip-path="url(#p47b4b84fd4)" style="fill: none; stroke: #666666; stroke-linecap: round"/>
    <path d="M 280.147944 266.22589 
L 283.966926 263.898793 
L 283.537215 268.350236 
z
" clip-path="url(#p47b4b84fd4)" style="fill: #666666; stroke: #666666; stroke-linecap: round"/>
   </g>
   <g id="patch_19">
    <path d="M 293.759444 248.275403 
Q 300.763377 237.101036 307.173537 226.874 
" clip-path="url(#p47b4b84fd4)" style="fill: none; stroke: #666666; stroke-linecap: round"/>
    <path d="M 303.354556 229.201097 
L 307.173537 226.874 
L 306.743826 231.325443 
z
" clip-path="url(#p47b4b84fd4)" style="fill: #666666; stroke: #666666; stroke-linecap: round"/>
   </g>
   <g id="patch_20">
    <path d="M 312.366942 209.924099 
Q 312.366942 200.072991 312.366942 191.339917 
" clip-path="url(#p47b4b84fd4)" style="fill: none; stroke: #666666; stroke-linecap: round"/>
    <path d="M 310.366942 195.339917 
L 312.366942 191.339917 
L 314.366942 195.339917 
z
" clip-path="url(#p47b4b84fd4)" style="fill: #666666; stroke: #666666; stroke-linecap: round"/>
   </g>
   <g id="text_1">
    <g id="patch_21">
     <path d="M 374.23097 352.814011 
L 388.503901 354.440555 
Q 390.590396 354.678333 390.828173 352.591837 
L 391.595252 345.860717 
Q 391.833029 343.774222 389.746534 343.536445 
L 375.473603 341.9099 
Q 373.387108 341.672123 373.149331 343.758618 
L 372.382252 350.489738 
Q 372.144475 352.576233 374.23097 352.814011 
z
" clip-path="url(#p47b4b84fd4)" style="fill: #ffffff; stroke: #ffffff; stroke-linejoin: miter"/>
    </g>
    <g clip-path="url(#p47b4b84fd4)">
     <!-- true -->
     <g transform="translate(374.633581 349.281096) rotate(-353.498614) scale(0.07 -0.07)">
      <defs>
       <path id="DejaVuSans-74" d="M 1172 4494 
L 1172 3500 
L 2356 3500 
L 2356 3053 
L 1172 3053 
L 1172 1153 
Q 1172 725 1289 603 
Q 1406 481 1766 481 
L 2356 481 
L 2356 0 
L 1766 0 
Q 1100 0 847 248 
Q 594 497 594 1153 
L 594 3053 
L 172 3053 
L 172 3500 
L 594 3500 
L 594 4494 
L 1172 4494 
z
" transform="scale(0.015625)"/>
       <path id="DejaVuSans-72" d="M 2631 2963 
Q 2534 3019 2420 3045 
Q 2306 3072 2169 3072 
Q 1681 3072 1420 2755 
Q 1159 2438 1159 1844 
L 1159 0 
L 581 0 
L 581 3500 
L 1159 3500 
L 1159 2956 
Q 1341 3275 1631 3429 
Q 1922 3584 2338 3584 
Q 2397 3584 2469 3576 
Q 2541 3569 2628 3553 
L 2631 2963 
z
" transform="scale(0.015625)"/>
       <path id="DejaVuSans-75" d="M 544 1381 
L 544 3500 
L 1119 3500 
L 1119 1403 
Q 1119 906 1312 657 
Q 1506 409 1894 409 
Q 2359 409 2629 706 
Q 2900 1003 2900 1516 
L 2900 3500 
L 3475 3500 
L 3475 0 
L 2900 0 
L 2900 538 
Q 2691 219 2414 64 
Q 2138 -91 1772 -91 
Q 1169 -91 856 284 
Q 544 659 544 1381 
z
M 1991 3584 
L 1991 3584 
z
" transform="scale(0.015625)"/>
       <path id="DejaVuSans-65" d="M 3597 1894 
L 3597 1613 
L 953 1613 
Q 991 1019 1311 708 
Q 1631 397 2203 397 
Q 2534 397 2845 478 
Q 3156 559 3463 722 
L 3463 178 
Q 3153 47 2828 -22 
Q 2503 -91 2169 -91 
Q 1331 -91 842 396 
Q 353 884 353 1716 
Q 353 2575 817 3079 
Q 1281 3584 2069 3584 
Q 2775 3584 3186 3129 
Q 3597 2675 3597 1894 
z
M 3022 2063 
Q 3016 2534 2758 2815 
Q 2500 3097 2075 3097 
Q 1594 3097 1305 2825 
Q 1016 2553 972 2059 
L 3022 2063 
z
" transform="scale(0.015625)"/>
      </defs>
      <use xlink:href="#DejaVuSans-74"/>
      <use xlink:href="#DejaVuSans-72" transform="translate(39.208984 0)"/>
      <use xlink:href="#DejaVuSans-75" transform="translate(80.322266 0)"/>
      <use xlink:href="#DejaVuSans-65" transform="translate(143.701172 0)"/>
     </g>
    </g>
   </g>
   <g id="text_2">
    <g id="patch_22">
     <path d="M 442.534839 214.447039 
L 451.378675 228.556863 
Q 452.493957 230.33623 454.273324 229.220948 
L 460.013636 225.623003 
Q 461.793003 224.507721 460.677721 222.728354 
L 451.833885 208.618531 
Q 450.718603 206.839164 448.939236 207.954445 
L 443.198924 211.552391 
Q 441.419558 212.667673 442.534839 214.447039 
z
" clip-path="url(#p47b4b84fd4)" style="fill: #ffffff; stroke: #ffffff; stroke-linejoin: miter"/>
    </g>
    <g clip-path="url(#p47b4b84fd4)">
     <!-- false -->
     <g transform="translate(445.547715 212.558612) rotate(-302.078898) scale(0.07 -0.07)">
      <defs>
       <path id="DejaVuSans-66" d="M 2375 4863 
L 2375 4384 
L 1825 4384 
Q 1516 4384 1395 4259 
Q 1275 4134 1275 3809 
L 1275 3500 
L 2222 3500 
L 2222 3053 
L 1275 3053 
L 1275 0 
L 697 0 
L 697 3053 
L 147 3053 
L 147 3500 
L 697 3500 
L 697 3744 
Q 697 4328 969 4595 
Q 1241 4863 1831 4863 
L 2375 4863 
z
" transform="scale(0.015625)"/>
       <path id="DejaVuSans-61" d="M 2194 1759 
Q 1497 1759 1228 1600 
Q 959 1441 959 1056 
Q 959 750 1161 570 
Q 1363 391 1709 391 
Q 2188 391 2477 730 
Q 2766 1069 2766 1631 
L 2766 1759 
L 2194 1759 
z
M 3341 1997 
L 3341 0 
L 2766 0 
L 2766 531 
Q 2569 213 2275 61 
Q 1981 -91 1556 -91 
Q 1019 -91 701 211 
Q 384 513 384 1019 
Q 384 1609 779 1909 
Q 1175 2209 1959 2209 
L 2766 2209 
L 2766 2266 
Q 2766 2663 2505 2880 
Q 2244 3097 1772 3097 
Q 1472 3097 1187 3025 
Q 903 2953 641 2809 
L 641 3341 
Q 956 3463 1253 3523 
Q 1550 3584 1831 3584 
Q 2591 3584 2966 3190 
Q 3341 2797 3341 1997 
z
" transform="scale(0.015625)"/>
       <path id="DejaVuSans-6c" d="M 603 4863 
L 1178 4863 
L 1178 0 
L 603 0 
L 603 4863 
z
" transform="scale(0.015625)"/>
       <path id="DejaVuSans-73" d="M 2834 3397 
L 2834 2853 
Q 2591 2978 2328 3040 
Q 2066 3103 1784 3103 
Q 1356 3103 1142 2972 
Q 928 2841 928 2578 
Q 928 2378 1081 2264 
Q 1234 2150 1697 2047 
L 1894 2003 
Q 2506 1872 2764 1633 
Q 3022 1394 3022 966 
Q 3022 478 2636 193 
Q 2250 -91 1575 -91 
Q 1294 -91 989 -36 
Q 684 19 347 128 
L 347 722 
Q 666 556 975 473 
Q 1284 391 1588 391 
Q 1994 391 2212 530 
Q 2431 669 2431 922 
Q 2431 1156 2273 1281 
Q 2116 1406 1581 1522 
L 1381 1569 
Q 847 1681 609 1914 
Q 372 2147 372 2553 
Q 372 3047 722 3315 
Q 1072 3584 1716 3584 
Q 2034 3584 2315 3537 
Q 2597 3491 2834 3397 
z
" transform="scale(0.015625)"/>
      </defs>
      <use xlink:href="#DejaVuSans-66"/>
      <use xlink:href="#DejaVuSans-61" transform="translate(35.205078 0)"/>
      <use xlink:href="#DejaVuSans-6c" transform="translate(96.484375 0)"/>
      <use xlink:href="#DejaVuSans-73" transform="translate(124.267578 0)"/>
      <use xlink:href="#DejaVuSans-65" transform="translate(176.367188 0)"/>
     </g>
    </g>
   </g>
   <g id="text_3">
    <g id="patch_23">
     <path d="M 264.037748 253.163762 
L 277.680619 225.955759 
Q 278.621912 224.078536 276.744689 223.137242 
L 270.688689 220.100591 
Q 268.811465 219.159297 267.870172 221.036521 
L 254.227302 248.244524 
Q 253.286008 250.121747 255.163232 251.063041 
L 261.219232 254.099692 
Q 263.096455 255.040985 264.037748 253.163762 
z
" clip-path="url(#p47b4b84fd4)" style="fill: #ffffff; stroke: #ffffff; stroke-linejoin: miter"/>
    </g>
    <g clip-path="url(#p47b4b84fd4)">
     <!-- continue -->
     <g transform="translate(260.859179 251.569937) rotate(-63.369505) scale(0.07 -0.07)">
      <defs>
       <path id="DejaVuSans-63" d="M 3122 3366 
L 3122 2828 
Q 2878 2963 2633 3030 
Q 2388 3097 2138 3097 
Q 1578 3097 1268 2742 
Q 959 2388 959 1747 
Q 959 1106 1268 751 
Q 1578 397 2138 397 
Q 2388 397 2633 464 
Q 2878 531 3122 666 
L 3122 134 
Q 2881 22 2623 -34 
Q 2366 -91 2075 -91 
Q 1284 -91 818 406 
Q 353 903 353 1747 
Q 353 2603 823 3093 
Q 1294 3584 2113 3584 
Q 2378 3584 2631 3529 
Q 2884 3475 3122 3366 
z
" transform="scale(0.015625)"/>
       <path id="DejaVuSans-6f" d="M 1959 3097 
Q 1497 3097 1228 2736 
Q 959 2375 959 1747 
Q 959 1119 1226 758 
Q 1494 397 1959 397 
Q 2419 397 2687 759 
Q 2956 1122 2956 1747 
Q 2956 2369 2687 2733 
Q 2419 3097 1959 3097 
z
M 1959 3584 
Q 2709 3584 3137 3096 
Q 3566 2609 3566 1747 
Q 3566 888 3137 398 
Q 2709 -91 1959 -91 
Q 1206 -91 779 398 
Q 353 888 353 1747 
Q 353 2609 779 3096 
Q 1206 3584 1959 3584 
z
" transform="scale(0.015625)"/>
       <path id="DejaVuSans-6e" d="M 3513 2113 
L 3513 0 
L 2938 0 
L 2938 2094 
Q 2938 2591 2744 2837 
Q 2550 3084 2163 3084 
Q 1697 3084 1428 2787 
Q 1159 2491 1159 1978 
L 1159 0 
L 581 0 
L 581 3500 
L 1159 3500 
L 1159 2956 
Q 1366 3272 1645 3428 
Q 1925 3584 2291 3584 
Q 2894 3584 3203 3211 
Q 3513 2838 3513 2113 
z
" transform="scale(0.015625)"/>
       <path id="DejaVuSans-69" d="M 603 3500 
L 1178 3500 
L 1178 0 
L 603 0 
L 603 3500 
z
M 603 4863 
L 1178 4863 
L 1178 4134 
L 603 4134 
L 603 4863 
z
" transform="scale(0.015625)"/>
      </defs>
      <use xlink:href="#DejaVuSans-63"/>
      <use xlink:href="#DejaVuSans-6f" transform="translate(54.980469 0)"/>
      <use xlink:href="#DejaVuSans-6e" transform="translate(116.162109 0)"/>
      <use xlink:href="#DejaVuSans-74" transform="translate(179.541016 0)"/>
      <use xlink:href="#DejaVuSans-69" transform="translate(218.75 0)"/>
      <use xlink:href="#DejaVuSans-6e" transform="translate(246.533203 0)"/>
      <use xlink:href="#DejaVuSans-75" transform="translate(309.912109 0)"/>
      <use xlink:href="#DejaVuSans-65" transform="translate(373.291016 0)"/>
     </g>
    </g>
   </g>
   <g id="text_4">
    <g id="patch_24">
     <path d="M 189.150233 351.639289 
L 212.984153 313.613663 
Q 214.099435 311.834296 212.320068 310.719014 
L 206.414794 307.017673 
Q 204.635427 305.902391 203.520145 307.681758 
L 179.686226 345.707385 
Q 178.570944 347.486752 180.350311 348.602033 
L 186.255585 352.303375 
Q 188.034952 353.418656 189.150233 351.639289 
z
" clip-path="url(#p47b4b84fd4)" style="fill: #ffffff; stroke: #ffffff; stroke-linejoin: miter"/>
    </g>
    <g clip-path="url(#p47b4b84fd4)">
     <!-- search_more -->
     <g transform="translate(185.972395 349.647466) rotate(-57.921102) scale(0.07 -0.07)">
      <defs>
       <path id="DejaVuSans-68" d="M 3513 2113 
L 3513 0 
L 2938 0 
L 2938 2094 
Q 2938 2591 2744 2837 
Q 2550 3084 2163 3084 
Q 1697 3084 1428 2787 
Q 1159 2491 1159 1978 
L 1159 0 
L 581 0 
L 581 4863 
L 1159 4863 
L 1159 2956 
Q 1366 3272 1645 3428 
Q 1925 3584 2291 3584 
Q 2894 3584 3203 3211 
Q 3513 2838 3513 2113 
z
" transform="scale(0.015625)"/>
       <path id="DejaVuSans-5f" d="M 3263 -1063 
L 3263 -1509 
L -63 -1509 
L -63 -1063 
L 3263 -1063 
z
" transform="scale(0.015625)"/>
       <path id="DejaVuSans-6d" d="M 3328 2828 
Q 3544 3216 3844 3400 
Q 4144 3584 4550 3584 
Q 5097 3584 5394 3201 
Q 5691 2819 5691 2113 
L 5691 0 
L 5113 0 
L 5113 2094 
Q 5113 2597 4934 2840 
Q 4756 3084 4391 3084 
Q 3944 3084 3684 2787 
Q 3425 2491 3425 1978 
L 3425 0 
L 2847 0 
L 2847 2094 
Q 2847 2600 2669 2842 
Q 2491 3084 2119 3084 
Q 1678 3084 1418 2786 
Q 1159 2488 1159 1978 
L 1159 0 
L 581 0 
L 581 3500 
L 1159 3500 
L 1159 2956 
Q 1356 3278 1631 3431 
Q 1906 3584 2284 3584 
Q 2666 3584 2933 3390 
Q 3200 3197 3328 2828 
z
" transform="scale(0.015625)"/>
      </defs>
      <use xlink:href="#DejaVuSans-73"/>
      <use xlink:href="#DejaVuSans-65" transform="translate(52.099609 0)"/>
      <use xlink:href="#DejaVuSans-61" transform="translate(113.623047 0)"/>
      <use xlink:href="#DejaVuSans-72" transform="translate(174.902344 0)"/>
      <use xlink:href="#DejaVuSans-63" transform="translate(213.765625 0)"/>
      <use xlink:href="#DejaVuSans-68" transform="translate(268.746094 0)"/>
      <use xlink:href="#DejaVuSans-5f" transform="translate(332.125 0)"/>
      <use xlink:href="#DejaVuSans-6d" transform="translate(382.125 0)"/>
      <use xlink:href="#DejaVuSans-6f" transform="translate(479.537109 0)"/>
      <use xlink:href="#DejaVuSans-72" transform="translate(540.71875 0)"/>
      <use xlink:href="#DejaVuSans-65" transform="translate(579.582031 0)"/>
     </g>
    </g>
   </g>
   <g id="text_5">
    <g id="patch_25">
     <path d="M 230.784204 304.704853 
L 241.125391 285.849129 
Q 242.13521 284.007862 240.293943 282.998042 
L 234.35394 279.740321 
Q 232.512673 278.730501 231.502853 280.571768 
L 221.161667 299.427492 
Q 220.151847 301.268759 221.993114 302.278579 
L 227.933118 305.5363 
Q 229.774385 306.54612 230.784204 304.704853 
z
" clip-path="url(#p47b4b84fd4)" style="fill: #ffffff; stroke: #ffffff; stroke-linejoin: miter"/>
    </g>
    <g clip-path="url(#p47b4b84fd4)">
     <!-- adjust -->
     <g transform="translate(227.666517 302.994996) rotate(-61.257985) scale(0.07 -0.07)">
      <defs>
       <path id="DejaVuSans-64" d="M 2906 2969 
L 2906 4863 
L 3481 4863 
L 3481 0 
L 2906 0 
L 2906 525 
Q 2725 213 2448 61 
Q 2172 -91 1784 -91 
Q 1150 -91 751 415 
Q 353 922 353 1747 
Q 353 2572 751 3078 
Q 1150 3584 1784 3584 
Q 2172 3584 2448 3432 
Q 2725 3281 2906 2969 
z
M 947 1747 
Q 947 1113 1208 752 
Q 1469 391 1925 391 
Q 2381 391 2643 752 
Q 2906 1113 2906 1747 
Q 2906 2381 2643 2742 
Q 2381 3103 1925 3103 
Q 1469 3103 1208 2742 
Q 947 2381 947 1747 
z
" transform="scale(0.015625)"/>
       <path id="DejaVuSans-6a" d="M 603 3500 
L 1178 3500 
L 1178 -63 
Q 1178 -731 923 -1031 
Q 669 -1331 103 -1331 
L -116 -1331 
L -116 -844 
L 38 -844 
Q 366 -844 484 -692 
Q 603 -541 603 -63 
L 603 3500 
z
M 603 4863 
L 1178 4863 
L 1178 4134 
L 603 4134 
L 603 4863 
z
" transform="scale(0.015625)"/>
      </defs>
      <use xlink:href="#DejaVuSans-61"/>
      <use xlink:href="#DejaVuSans-64" transform="translate(61.279297 0)"/>
      <use xlink:href="#DejaVuSans-6a" transform="translate(124.755859 0)"/>
      <use xlink:href="#DejaVuSans-75" transform="translate(152.539062 0)"/>
      <use xlink:href="#DejaVuSans-73" transform="translate(215.917969 0)"/>
      <use xlink:href="#DejaVuSans-74" transform="translate(268.017578 0)"/>
     </g>
    </g>
   </g>
   <g id="PathCollection_1">
    <defs>
     <path id="C0_0_a71ab8c8fe" d="M 0 22.36068 
C 5.930122 22.36068 11.618159 20.004617 15.811388 15.811388 
C 20.004617 11.618159 22.36068 5.930122 22.36068 -0 
C 22.36068 -5.930122 20.004617 -11.618159 15.811388 -15.811388 
C 11.618159 -20.004617 5.930122 -22.36068 0 -22.36068 
C -5.930122 -22.36068 -11.618159 -20.004617 -15.811388 -15.811388 
C -20.004617 -11.618159 -22.36068 -5.930122 -22.36068 0 
C -22.36068 5.930122 -20.004617 11.618159 -15.811388 15.811388 
C -11.618159 20.004617 -5.930122 22.36068 0 22.36068 
z
"/>
    </defs>
    <g clip-path="url(#p47b4b84fd4)">
     <use xlink:href="#C0_0_a71ab8c8fe" x="149.920661" y="440.736986" style="fill: #e3f2fd; stroke: #e3f2fd"/>
    </g>
    <g clip-path="url(#p47b4b84fd4)">
     <use xlink:href="#C0_0_a71ab8c8fe" x="149.920661" y="477.761779" style="fill: #e3f2fd; stroke: #e3f2fd"/>
    </g>
    <g clip-path="url(#p47b4b84fd4)">
     <use xlink:href="#C0_0_a71ab8c8fe" x="80.300826" y="514.786573" style="fill: #f3e5f5; stroke: #f3e5f5"/>
    </g>
    <g clip-path="url(#p47b4b84fd4)">
     <use xlink:href="#C0_0_a71ab8c8fe" x="590.846281" y="366.687399" style="fill: #e3f2fd; stroke: #e3f2fd"/>
    </g>
    <g clip-path="url(#p47b4b84fd4)">
     <use xlink:href="#C0_0_a71ab8c8fe" x="637.259504" y="292.637812" style="fill: #e3f2fd; stroke: #e3f2fd"/>
    </g>
    <g clip-path="url(#p47b4b84fd4)">
     <use xlink:href="#C0_0_a71ab8c8fe" x="660.466116" y="329.662606" style="fill: #e3f2fd; stroke: #e3f2fd"/>
    </g>
    <g clip-path="url(#p47b4b84fd4)">
     <use xlink:href="#C0_0_a71ab8c8fe" x="776.499174" y="514.786573" style="fill: #eceff1; stroke: #eceff1"/>
    </g>
    <g clip-path="url(#p47b4b84fd4)">
     <use xlink:href="#C0_0_a71ab8c8fe" x="567.639669" y="403.712193" style="fill: #e3f2fd; stroke: #e3f2fd"/>
    </g>
    <g clip-path="url(#p47b4b84fd4)">
     <use xlink:href="#C0_0_a71ab8c8fe" x="544.433058" y="366.687399" style="fill: #fff3e0; stroke: #fff3e0"/>
    </g>
    <g clip-path="url(#p47b4b84fd4)">
     <use xlink:href="#C0_0_a71ab8c8fe" x="358.780165" y="70.489052" style="fill: #e3f2fd; stroke: #e3f2fd"/>
    </g>
    <g clip-path="url(#p47b4b84fd4)">
     <use xlink:href="#C0_0_a71ab8c8fe" x="335.573554" y="107.513846" style="fill: #ffebee; stroke: #ffebee"/>
    </g>
    <g clip-path="url(#p47b4b84fd4)">
     <use xlink:href="#C0_0_a71ab8c8fe" x="312.366942" y="144.538639" style="fill: #fff3e0; stroke: #fff3e0"/>
    </g>
    <g clip-path="url(#p47b4b84fd4)">
     <use xlink:href="#C0_0_a71ab8c8fe" x="219.540496" y="329.662606" style="fill: #e3f2fd; stroke: #e3f2fd"/>
    </g>
    <g clip-path="url(#p47b4b84fd4)">
     <use xlink:href="#C0_0_a71ab8c8fe" x="265.953719" y="292.637812" style="fill: #e8f5e9; stroke: #e8f5e9"/>
    </g>
    <g clip-path="url(#p47b4b84fd4)">
     <use xlink:href="#C0_0_a71ab8c8fe" x="289.160331" y="255.613019" style="fill: #ffebee; stroke: #ffebee"/>
    </g>
    <g clip-path="url(#p47b4b84fd4)">
     <use xlink:href="#C0_0_a71ab8c8fe" x="312.366942" y="218.588226" style="fill: #e3f2fd; stroke: #e3f2fd"/>
    </g>
    <g clip-path="url(#p47b4b84fd4)">
     <use xlink:href="#C0_0_a71ab8c8fe" x="312.366942" y="181.563432" style="fill: #eceff1; stroke: #eceff1"/>
    </g>
   </g>
   <g id="text_6">
    <g clip-path="url(#p47b4b84fd4)">
     <!-- understand_query -->
     <g transform="translate(113.480661 442.833236) scale(0.08 -0.08)">
      <defs>
       <path id="DejaVuSans-71" d="M 947 1747 
Q 947 1113 1208 752 
Q 1469 391 1925 391 
Q 2381 391 2643 752 
Q 2906 1113 2906 1747 
Q 2906 2381 2643 2742 
Q 2381 3103 1925 3103 
Q 1469 3103 1208 2742 
Q 947 2381 947 1747 
z
M 2906 525 
Q 2725 213 2448 61 
Q 2172 -91 1784 -91 
Q 1150 -91 751 415 
Q 353 922 353 1747 
Q 353 2572 751 3078 
Q 1150 3584 1784 3584 
Q 2172 3584 2448 3432 
Q 2725 3281 2906 2969 
L 2906 3500 
L 3481 3500 
L 3481 -1331 
L 2906 -1331 
L 2906 525 
z
" transform="scale(0.015625)"/>
       <path id="DejaVuSans-79" d="M 2059 -325 
Q 1816 -950 1584 -1140 
Q 1353 -1331 966 -1331 
L 506 -1331 
L 506 -850 
L 844 -850 
Q 1081 -850 1212 -737 
Q 1344 -625 1503 -206 
L 1606 56 
L 191 3500 
L 800 3500 
L 1894 763 
L 2988 3500 
L 3597 3500 
L 2059 -325 
z
" transform="scale(0.015625)"/>
      </defs>
      <use xlink:href="#DejaVuSans-75"/>
      <use xlink:href="#DejaVuSans-6e" transform="translate(63.378906 0)"/>
      <use xlink:href="#DejaVuSans-64" transform="translate(126.757812 0)"/>
      <use xlink:href="#DejaVuSans-65" transform="translate(190.234375 0)"/>
      <use xlink:href="#DejaVuSans-72" transform="translate(251.757812 0)"/>
      <use xlink:href="#DejaVuSans-73" transform="translate(292.871094 0)"/>
      <use xlink:href="#DejaVuSans-74" transform="translate(344.970703 0)"/>
      <use xlink:href="#DejaVuSans-61" transform="translate(384.179688 0)"/>
      <use xlink:href="#DejaVuSans-6e" transform="translate(445.458984 0)"/>
      <use xlink:href="#DejaVuSans-64" transform="translate(508.837891 0)"/>
      <use xlink:href="#DejaVuSans-5f" transform="translate(572.314453 0)"/>
      <use xlink:href="#DejaVuSans-71" transform="translate(622.314453 0)"/>
      <use xlink:href="#DejaVuSans-75" transform="translate(685.791016 0)"/>
      <use xlink:href="#DejaVuSans-65" transform="translate(749.169922 0)"/>
      <use xlink:href="#DejaVuSans-72" transform="translate(810.693359 0)"/>
      <use xlink:href="#DejaVuSans-79" transform="translate(851.806641 0)"/>
     </g>
    </g>
   </g>
   <g id="text_7">
    <g clip-path="url(#p47b4b84fd4)">
     <!-- create_search_plan -->
     <g transform="translate(111.303161 479.858029) scale(0.08 -0.08)">
      <defs>
       <path id="DejaVuSans-70" d="M 1159 525 
L 1159 -1331 
L 581 -1331 
L 581 3500 
L 1159 3500 
L 1159 2969 
Q 1341 3281 1617 3432 
Q 1894 3584 2278 3584 
Q 2916 3584 3314 3078 
Q 3713 2572 3713 1747 
Q 3713 922 3314 415 
Q 2916 -91 2278 -91 
Q 1894 -91 1617 61 
Q 1341 213 1159 525 
z
M 3116 1747 
Q 3116 2381 2855 2742 
Q 2594 3103 2138 3103 
Q 1681 3103 1420 2742 
Q 1159 2381 1159 1747 
Q 1159 1113 1420 752 
Q 1681 391 2138 391 
Q 2594 391 2855 752 
Q 3116 1113 3116 1747 
z
" transform="scale(0.015625)"/>
      </defs>
      <use xlink:href="#DejaVuSans-63"/>
      <use xlink:href="#DejaVuSans-72" transform="translate(54.980469 0)"/>
      <use xlink:href="#DejaVuSans-65" transform="translate(93.84375 0)"/>
      <use xlink:href="#DejaVuSans-61" transform="translate(155.367188 0)"/>
      <use xlink:href="#DejaVuSans-74" transform="translate(216.646484 0)"/>
      <use xlink:href="#DejaVuSans-65" transform="translate(255.855469 0)"/>
      <use xlink:href="#DejaVuSans-5f" transform="translate(317.378906 0)"/>
      <use xlink:href="#DejaVuSans-73" transform="translate(367.378906 0)"/>
      <use xlink:href="#DejaVuSans-65" transform="translate(419.478516 0)"/>
      <use xlink:href="#DejaVuSans-61" transform="translate(481.001953 0)"/>
      <use xlink:href="#DejaVuSans-72" transform="translate(542.28125 0)"/>
      <use xlink:href="#DejaVuSans-63" transform="translate(581.144531 0)"/>
      <use xlink:href="#DejaVuSans-68" transform="translate(636.125 0)"/>
      <use xlink:href="#DejaVuSans-5f" transform="translate(699.503906 0)"/>
      <use xlink:href="#DejaVuSans-70" transform="translate(749.503906 0)"/>
      <use xlink:href="#DejaVuSans-6c" transform="translate(812.980469 0)"/>
      <use xlink:href="#DejaVuSans-61" transform="translate(840.763672 0)"/>
      <use xlink:href="#DejaVuSans-6e" transform="translate(902.042969 0)"/>
     </g>
    </g>
   </g>
   <g id="text_8">
    <g clip-path="url(#p47b4b84fd4)">
     <!-- parallel_search -->
     <g transform="translate(50.134576 516.882823) scale(0.08 -0.08)">
      <use xlink:href="#DejaVuSans-70"/>
      <use xlink:href="#DejaVuSans-61" transform="translate(63.476562 0)"/>
      <use xlink:href="#DejaVuSans-72" transform="translate(124.755859 0)"/>
      <use xlink:href="#DejaVuSans-61" transform="translate(165.869141 0)"/>
      <use xlink:href="#DejaVuSans-6c" transform="translate(227.148438 0)"/>
      <use xlink:href="#DejaVuSans-6c" transform="translate(254.931641 0)"/>
      <use xlink:href="#DejaVuSans-65" transform="translate(282.714844 0)"/>
      <use xlink:href="#DejaVuSans-6c" transform="translate(344.238281 0)"/>
      <use xlink:href="#DejaVuSans-5f" transform="translate(372.021484 0)"/>
      <use xlink:href="#DejaVuSans-73" transform="translate(422.021484 0)"/>
      <use xlink:href="#DejaVuSans-65" transform="translate(474.121094 0)"/>
      <use xlink:href="#DejaVuSans-61" transform="translate(535.644531 0)"/>
      <use xlink:href="#DejaVuSans-72" transform="translate(596.923828 0)"/>
      <use xlink:href="#DejaVuSans-63" transform="translate(635.787109 0)"/>
      <use xlink:href="#DejaVuSans-68" transform="translate(690.767578 0)"/>
     </g>
    </g>
   </g>
   <g id="text_9">
    <g clip-path="url(#p47b4b84fd4)">
     <!-- web_search -->
     <g transform="translate(567.289406 368.783649) scale(0.08 -0.08)">
      <defs>
       <path id="DejaVuSans-77" d="M 269 3500 
L 844 3500 
L 1563 769 
L 2278 3500 
L 2956 3500 
L 3675 769 
L 4391 3500 
L 4966 3500 
L 4050 0 
L 3372 0 
L 2619 2869 
L 1863 0 
L 1184 0 
L 269 3500 
z
" transform="scale(0.015625)"/>
       <path id="DejaVuSans-62" d="M 3116 1747 
Q 3116 2381 2855 2742 
Q 2594 3103 2138 3103 
Q 1681 3103 1420 2742 
Q 1159 2381 1159 1747 
Q 1159 1113 1420 752 
Q 1681 391 2138 391 
Q 2594 391 2855 752 
Q 3116 1113 3116 1747 
z
M 1159 2969 
Q 1341 3281 1617 3432 
Q 1894 3584 2278 3584 
Q 2916 3584 3314 3078 
Q 3713 2572 3713 1747 
Q 3713 922 3314 415 
Q 2916 -91 2278 -91 
Q 1894 -91 1617 61 
Q 1341 213 1159 525 
L 1159 0 
L 581 0 
L 581 4863 
L 1159 4863 
L 1159 2969 
z
" transform="scale(0.015625)"/>
      </defs>
      <use xlink:href="#DejaVuSans-77"/>
      <use xlink:href="#DejaVuSans-65" transform="translate(81.787109 0)"/>
      <use xlink:href="#DejaVuSans-62" transform="translate(143.310547 0)"/>
      <use xlink:href="#DejaVuSans-5f" transform="translate(206.787109 0)"/>
      <use xlink:href="#DejaVuSans-73" transform="translate(256.787109 0)"/>
      <use xlink:href="#DejaVuSans-65" transform="translate(308.886719 0)"/>
      <use xlink:href="#DejaVuSans-61" transform="translate(370.410156 0)"/>
      <use xlink:href="#DejaVuSans-72" transform="translate(431.689453 0)"/>
      <use xlink:href="#DejaVuSans-63" transform="translate(470.552734 0)"/>
      <use xlink:href="#DejaVuSans-68" transform="translate(525.533203 0)"/>
     </g>
    </g>
   </g>
   <g id="text_10">
    <g clip-path="url(#p47b4b84fd4)">
     <!-- academic_search -->
     <g transform="translate(602.665129 294.734062) scale(0.08 -0.08)">
      <use xlink:href="#DejaVuSans-61"/>
      <use xlink:href="#DejaVuSans-63" transform="translate(61.279297 0)"/>
      <use xlink:href="#DejaVuSans-61" transform="translate(116.259766 0)"/>
      <use xlink:href="#DejaVuSans-64" transform="translate(177.539062 0)"/>
      <use xlink:href="#DejaVuSans-65" transform="translate(241.015625 0)"/>
      <use xlink:href="#DejaVuSans-6d" transform="translate(302.539062 0)"/>
      <use xlink:href="#DejaVuSans-69" transform="translate(399.951172 0)"/>
      <use xlink:href="#DejaVuSans-63" transform="translate(427.734375 0)"/>
      <use xlink:href="#DejaVuSans-5f" transform="translate(482.714844 0)"/>
      <use xlink:href="#DejaVuSans-73" transform="translate(532.714844 0)"/>
      <use xlink:href="#DejaVuSans-65" transform="translate(584.814453 0)"/>
      <use xlink:href="#DejaVuSans-61" transform="translate(646.337891 0)"/>
      <use xlink:href="#DejaVuSans-72" transform="translate(707.617188 0)"/>
      <use xlink:href="#DejaVuSans-63" transform="translate(746.480469 0)"/>
      <use xlink:href="#DejaVuSans-68" transform="translate(801.460938 0)"/>
     </g>
    </g>
   </g>
   <g id="text_11">
    <g clip-path="url(#p47b4b84fd4)">
     <!-- code_search -->
     <g transform="translate(635.533616 331.758856) scale(0.08 -0.08)">
      <use xlink:href="#DejaVuSans-63"/>
      <use xlink:href="#DejaVuSans-6f" transform="translate(54.980469 0)"/>
      <use xlink:href="#DejaVuSans-64" transform="translate(116.162109 0)"/>
      <use xlink:href="#DejaVuSans-65" transform="translate(179.638672 0)"/>
      <use xlink:href="#DejaVuSans-5f" transform="translate(241.162109 0)"/>
      <use xlink:href="#DejaVuSans-73" transform="translate(291.162109 0)"/>
      <use xlink:href="#DejaVuSans-65" transform="translate(343.261719 0)"/>
      <use xlink:href="#DejaVuSans-61" transform="translate(404.785156 0)"/>
      <use xlink:href="#DejaVuSans-72" transform="translate(466.064453 0)"/>
      <use xlink:href="#DejaVuSans-63" transform="translate(504.927734 0)"/>
      <use xlink:href="#DejaVuSans-68" transform="translate(559.908203 0)"/>
     </g>
    </g>
   </g>
   <g id="text_12">
    <g clip-path="url(#p47b4b84fd4)">
     <!-- aggregate_sources -->
     <g transform="translate(738.568549 516.771573) scale(0.08 -0.08)">
      <defs>
       <path id="DejaVuSans-67" d="M 2906 1791 
Q 2906 2416 2648 2759 
Q 2391 3103 1925 3103 
Q 1463 3103 1205 2759 
Q 947 2416 947 1791 
Q 947 1169 1205 825 
Q 1463 481 1925 481 
Q 2391 481 2648 825 
Q 2906 1169 2906 1791 
z
M 3481 434 
Q 3481 -459 3084 -895 
Q 2688 -1331 1869 -1331 
Q 1566 -1331 1297 -1286 
Q 1028 -1241 775 -1147 
L 775 -588 
Q 1028 -725 1275 -790 
Q 1522 -856 1778 -856 
Q 2344 -856 2625 -561 
Q 2906 -266 2906 331 
L 2906 616 
Q 2728 306 2450 153 
Q 2172 0 1784 0 
Q 1141 0 747 490 
Q 353 981 353 1791 
Q 353 2603 747 3093 
Q 1141 3584 1784 3584 
Q 2172 3584 2450 3431 
Q 2728 3278 2906 2969 
L 2906 3500 
L 3481 3500 
L 3481 434 
z
" transform="scale(0.015625)"/>
      </defs>
      <use xlink:href="#DejaVuSans-61"/>
      <use xlink:href="#DejaVuSans-67" transform="translate(61.279297 0)"/>
      <use xlink:href="#DejaVuSans-67" transform="translate(124.755859 0)"/>
      <use xlink:href="#DejaVuSans-72" transform="translate(188.232422 0)"/>
      <use xlink:href="#DejaVuSans-65" transform="translate(227.095703 0)"/>
      <use xlink:href="#DejaVuSans-67" transform="translate(288.619141 0)"/>
      <use xlink:href="#DejaVuSans-61" transform="translate(352.095703 0)"/>
      <use xlink:href="#DejaVuSans-74" transform="translate(413.375 0)"/>
      <use xlink:href="#DejaVuSans-65" transform="translate(452.583984 0)"/>
      <use xlink:href="#DejaVuSans-5f" transform="translate(514.107422 0)"/>
      <use xlink:href="#DejaVuSans-73" transform="translate(564.107422 0)"/>
      <use xlink:href="#DejaVuSans-6f" transform="translate(616.207031 0)"/>
      <use xlink:href="#DejaVuSans-75" transform="translate(677.388672 0)"/>
      <use xlink:href="#DejaVuSans-72" transform="translate(740.767578 0)"/>
      <use xlink:href="#DejaVuSans-63" transform="translate(779.630859 0)"/>
      <use xlink:href="#DejaVuSans-65" transform="translate(834.611328 0)"/>
      <use xlink:href="#DejaVuSans-73" transform="translate(896.134766 0)"/>
     </g>
    </g>
   </g>
   <g id="text_13">
    <g clip-path="url(#p47b4b84fd4)">
     <!-- validate_sources -->
     <g transform="translate(534.213419 405.808443) scale(0.08 -0.08)">
      <defs>
       <path id="DejaVuSans-76" d="M 191 3500 
L 800 3500 
L 1894 563 
L 2988 3500 
L 3597 3500 
L 2284 0 
L 1503 0 
L 191 3500 
z
" transform="scale(0.015625)"/>
      </defs>
      <use xlink:href="#DejaVuSans-76"/>
      <use xlink:href="#DejaVuSans-61" transform="translate(59.179688 0)"/>
      <use xlink:href="#DejaVuSans-6c" transform="translate(120.458984 0)"/>
      <use xlink:href="#DejaVuSans-69" transform="translate(148.242188 0)"/>
      <use xlink:href="#DejaVuSans-64" transform="translate(176.025391 0)"/>
      <use xlink:href="#DejaVuSans-61" transform="translate(239.501953 0)"/>
      <use xlink:href="#DejaVuSans-74" transform="translate(300.78125 0)"/>
      <use xlink:href="#DejaVuSans-65" transform="translate(339.990234 0)"/>
      <use xlink:href="#DejaVuSans-5f" transform="translate(401.513672 0)"/>
      <use xlink:href="#DejaVuSans-73" transform="translate(451.513672 0)"/>
      <use xlink:href="#DejaVuSans-6f" transform="translate(503.613281 0)"/>
      <use xlink:href="#DejaVuSans-75" transform="translate(564.794922 0)"/>
      <use xlink:href="#DejaVuSans-72" transform="translate(628.173828 0)"/>
      <use xlink:href="#DejaVuSans-63" transform="translate(667.037109 0)"/>
      <use xlink:href="#DejaVuSans-65" transform="translate(722.017578 0)"/>
      <use xlink:href="#DejaVuSans-73" transform="translate(783.541016 0)"/>
     </g>
    </g>
   </g>
   <g id="text_14">
    <g clip-path="url(#p47b4b84fd4)">
     <!-- check_coverage -->
     <g transform="translate(512.149933 368.783649) scale(0.08 -0.08)">
      <defs>
       <path id="DejaVuSans-6b" d="M 581 4863 
L 1159 4863 
L 1159 1991 
L 2875 3500 
L 3609 3500 
L 1753 1863 
L 3688 0 
L 2938 0 
L 1159 1709 
L 1159 0 
L 581 0 
L 581 4863 
z
" transform="scale(0.015625)"/>
      </defs>
      <use xlink:href="#DejaVuSans-63"/>
      <use xlink:href="#DejaVuSans-68" transform="translate(54.980469 0)"/>
      <use xlink:href="#DejaVuSans-65" transform="translate(118.359375 0)"/>
      <use xlink:href="#DejaVuSans-63" transform="translate(179.882812 0)"/>
      <use xlink:href="#DejaVuSans-6b" transform="translate(234.863281 0)"/>
      <use xlink:href="#DejaVuSans-5f" transform="translate(292.773438 0)"/>
      <use xlink:href="#DejaVuSans-63" transform="translate(342.773438 0)"/>
      <use xlink:href="#DejaVuSans-6f" transform="translate(397.753906 0)"/>
      <use xlink:href="#DejaVuSans-76" transform="translate(458.935547 0)"/>
      <use xlink:href="#DejaVuSans-65" transform="translate(518.115234 0)"/>
      <use xlink:href="#DejaVuSans-72" transform="translate(579.638672 0)"/>
      <use xlink:href="#DejaVuSans-61" transform="translate(620.751953 0)"/>
      <use xlink:href="#DejaVuSans-67" transform="translate(682.03125 0)"/>
      <use xlink:href="#DejaVuSans-65" transform="translate(745.507812 0)"/>
     </g>
    </g>
   </g>
   <g id="text_15">
    <g clip-path="url(#p47b4b84fd4)">
     <!-- gap_analysis -->
     <g transform="translate(333.055165 72.585302) scale(0.08 -0.08)">
      <use xlink:href="#DejaVuSans-67"/>
      <use xlink:href="#DejaVuSans-61" transform="translate(63.476562 0)"/>
      <use xlink:href="#DejaVuSans-70" transform="translate(124.755859 0)"/>
      <use xlink:href="#DejaVuSans-5f" transform="translate(188.232422 0)"/>
      <use xlink:href="#DejaVuSans-61" transform="translate(238.232422 0)"/>
      <use xlink:href="#DejaVuSans-6e" transform="translate(299.511719 0)"/>
      <use xlink:href="#DejaVuSans-61" transform="translate(362.890625 0)"/>
      <use xlink:href="#DejaVuSans-6c" transform="translate(424.169922 0)"/>
      <use xlink:href="#DejaVuSans-79" transform="translate(451.953125 0)"/>
      <use xlink:href="#DejaVuSans-73" transform="translate(511.132812 0)"/>
      <use xlink:href="#DejaVuSans-69" transform="translate(563.232422 0)"/>
      <use xlink:href="#DejaVuSans-73" transform="translate(591.015625 0)"/>
     </g>
    </g>
   </g>
   <g id="text_16">
    <g clip-path="url(#p47b4b84fd4)">
     <!-- request_more_research -->
     <g transform="translate(288.710429 109.610096) scale(0.08 -0.08)">
      <use xlink:href="#DejaVuSans-72"/>
      <use xlink:href="#DejaVuSans-65" transform="translate(38.863281 0)"/>
      <use xlink:href="#DejaVuSans-71" transform="translate(100.386719 0)"/>
      <use xlink:href="#DejaVuSans-75" transform="translate(163.863281 0)"/>
      <use xlink:href="#DejaVuSans-65" transform="translate(227.242188 0)"/>
      <use xlink:href="#DejaVuSans-73" transform="translate(288.765625 0)"/>
      <use xlink:href="#DejaVuSans-74" transform="translate(340.865234 0)"/>
      <use xlink:href="#DejaVuSans-5f" transform="translate(380.074219 0)"/>
      <use xlink:href="#DejaVuSans-6d" transform="translate(430.074219 0)"/>
      <use xlink:href="#DejaVuSans-6f" transform="translate(527.486328 0)"/>
      <use xlink:href="#DejaVuSans-72" transform="translate(588.667969 0)"/>
      <use xlink:href="#DejaVuSans-65" transform="translate(627.53125 0)"/>
      <use xlink:href="#DejaVuSans-5f" transform="translate(689.054688 0)"/>
      <use xlink:href="#DejaVuSans-72" transform="translate(739.054688 0)"/>
      <use xlink:href="#DejaVuSans-65" transform="translate(777.917969 0)"/>
      <use xlink:href="#DejaVuSans-73" transform="translate(839.441406 0)"/>
      <use xlink:href="#DejaVuSans-65" transform="translate(891.541016 0)"/>
      <use xlink:href="#DejaVuSans-61" transform="translate(953.064453 0)"/>
      <use xlink:href="#DejaVuSans-72" transform="translate(1014.34375 0)"/>
      <use xlink:href="#DejaVuSans-63" transform="translate(1053.207031 0)"/>
      <use xlink:href="#DejaVuSans-68" transform="translate(1108.1875 0)"/>
     </g>
    </g>
   </g>
   <g id="text_17">
    <g clip-path="url(#p47b4b84fd4)">
     <!-- handle_gap_decision -->
     <g transform="translate(270.715067 146.634889) scale(0.08 -0.08)">
      <use xlink:href="#DejaVuSans-68"/>
      <use xlink:href="#DejaVuSans-61" transform="translate(63.378906 0)"/>
      <use xlink:href="#DejaVuSans-6e" transform="translate(124.658203 0)"/>
      <use xlink:href="#DejaVuSans-64" transform="translate(188.037109 0)"/>
      <use xlink:href="#DejaVuSans-6c" transform="translate(251.513672 0)"/>
      <use xlink:href="#DejaVuSans-65" transform="translate(279.296875 0)"/>
      <use xlink:href="#DejaVuSans-5f" transform="translate(340.820312 0)"/>
      <use xlink:href="#DejaVuSans-67" transform="translate(390.820312 0)"/>
      <use xlink:href="#DejaVuSans-61" transform="translate(454.296875 0)"/>
      <use xlink:href="#DejaVuSans-70" transform="translate(515.576172 0)"/>
      <use xlink:href="#DejaVuSans-5f" transform="translate(579.052734 0)"/>
      <use xlink:href="#DejaVuSans-64" transform="translate(629.052734 0)"/>
      <use xlink:href="#DejaVuSans-65" transform="translate(692.529297 0)"/>
      <use xlink:href="#DejaVuSans-63" transform="translate(754.052734 0)"/>
      <use xlink:href="#DejaVuSans-69" transform="translate(809.033203 0)"/>
      <use xlink:href="#DejaVuSans-73" transform="translate(836.816406 0)"/>
      <use xlink:href="#DejaVuSans-69" transform="translate(888.916016 0)"/>
      <use xlink:href="#DejaVuSans-6f" transform="translate(916.699219 0)"/>
      <use xlink:href="#DejaVuSans-6e" transform="translate(977.880859 0)"/>
     </g>
    </g>
   </g>
   <g id="text_18">
    <g clip-path="url(#p47b4b84fd4)">
     <!-- synthesize -->
     <g transform="translate(198.234246 331.870106) scale(0.08 -0.08)">
      <defs>
       <path id="DejaVuSans-7a" d="M 353 3500 
L 3084 3500 
L 3084 2975 
L 922 459 
L 3084 459 
L 3084 0 
L 275 0 
L 275 525 
L 2438 3041 
L 353 3041 
L 353 3500 
z
" transform="scale(0.015625)"/>
      </defs>
      <use xlink:href="#DejaVuSans-73"/>
      <use xlink:href="#DejaVuSans-79" transform="translate(52.099609 0)"/>
      <use xlink:href="#DejaVuSans-6e" transform="translate(111.279297 0)"/>
      <use xlink:href="#DejaVuSans-74" transform="translate(174.658203 0)"/>
      <use xlink:href="#DejaVuSans-68" transform="translate(213.867188 0)"/>
      <use xlink:href="#DejaVuSans-65" transform="translate(277.246094 0)"/>
      <use xlink:href="#DejaVuSans-73" transform="translate(338.769531 0)"/>
      <use xlink:href="#DejaVuSans-69" transform="translate(390.869141 0)"/>
      <use xlink:href="#DejaVuSans-7a" transform="translate(418.652344 0)"/>
      <use xlink:href="#DejaVuSans-65" transform="translate(471.142578 0)"/>
     </g>
    </g>
   </g>
   <g id="text_19">
    <g clip-path="url(#p47b4b84fd4)">
     <!-- generate_citations -->
     <g transform="translate(228.756219 294.734062) scale(0.08 -0.08)">
      <use xlink:href="#DejaVuSans-67"/>
      <use xlink:href="#DejaVuSans-65" transform="translate(63.476562 0)"/>
      <use xlink:href="#DejaVuSans-6e" transform="translate(125 0)"/>
      <use xlink:href="#DejaVuSans-65" transform="translate(188.378906 0)"/>
      <use xlink:href="#DejaVuSans-72" transform="translate(249.902344 0)"/>
      <use xlink:href="#DejaVuSans-61" transform="translate(291.015625 0)"/>
      <use xlink:href="#DejaVuSans-74" transform="translate(352.294922 0)"/>
      <use xlink:href="#DejaVuSans-65" transform="translate(391.503906 0)"/>
      <use xlink:href="#DejaVuSans-5f" transform="translate(453.027344 0)"/>
      <use xlink:href="#DejaVuSans-63" transform="translate(503.027344 0)"/>
      <use xlink:href="#DejaVuSans-69" transform="translate(558.007812 0)"/>
      <use xlink:href="#DejaVuSans-74" transform="translate(585.791016 0)"/>
      <use xlink:href="#DejaVuSans-61" transform="translate(625 0)"/>
      <use xlink:href="#DejaVuSans-74" transform="translate(686.279297 0)"/>
      <use xlink:href="#DejaVuSans-69" transform="translate(725.488281 0)"/>
      <use xlink:href="#DejaVuSans-6f" transform="translate(753.271484 0)"/>
      <use xlink:href="#DejaVuSans-6e" transform="translate(814.453125 0)"/>
      <use xlink:href="#DejaVuSans-73" transform="translate(877.832031 0)"/>
     </g>
    </g>
   </g>
   <g id="text_20">
    <g clip-path="url(#p47b4b84fd4)">
     <!-- review_synthesis -->
     <g transform="translate(255.104081 257.709269) scale(0.08 -0.08)">
      <use xlink:href="#DejaVuSans-72"/>
      <use xlink:href="#DejaVuSans-65" transform="translate(38.863281 0)"/>
      <use xlink:href="#DejaVuSans-76" transform="translate(100.386719 0)"/>
      <use xlink:href="#DejaVuSans-69" transform="translate(159.566406 0)"/>
      <use xlink:href="#DejaVuSans-65" transform="translate(187.349609 0)"/>
      <use xlink:href="#DejaVuSans-77" transform="translate(248.873047 0)"/>
      <use xlink:href="#DejaVuSans-5f" transform="translate(330.660156 0)"/>
      <use xlink:href="#DejaVuSans-73" transform="translate(380.660156 0)"/>
      <use xlink:href="#DejaVuSans-79" transform="translate(432.759766 0)"/>
      <use xlink:href="#DejaVuSans-6e" transform="translate(491.939453 0)"/>
      <use xlink:href="#DejaVuSans-74" transform="translate(555.318359 0)"/>
      <use xlink:href="#DejaVuSans-68" transform="translate(594.527344 0)"/>
      <use xlink:href="#DejaVuSans-65" transform="translate(657.90625 0)"/>
      <use xlink:href="#DejaVuSans-73" transform="translate(719.429688 0)"/>
      <use xlink:href="#DejaVuSans-69" transform="translate(771.529297 0)"/>
      <use xlink:href="#DejaVuSans-73" transform="translate(799.3125 0)"/>
     </g>
    </g>
   </g>
   <g id="text_21">
    <g clip-path="url(#p47b4b84fd4)">
     <!-- generate_report -->
     <g transform="translate(280.030067 220.573226) scale(0.08 -0.08)">
      <use xlink:href="#DejaVuSans-67"/>
      <use xlink:href="#DejaVuSans-65" transform="translate(63.476562 0)"/>
      <use xlink:href="#DejaVuSans-6e" transform="translate(125 0)"/>
      <use xlink:href="#DejaVuSans-65" transform="translate(188.378906 0)"/>
      <use xlink:href="#DejaVuSans-72" transform="translate(249.902344 0)"/>
      <use xlink:href="#DejaVuSans-61" transform="translate(291.015625 0)"/>
      <use xlink:href="#DejaVuSans-74" transform="translate(352.294922 0)"/>
      <use xlink:href="#DejaVuSans-65" transform="translate(391.503906 0)"/>
      <use xlink:href="#DejaVuSans-5f" transform="translate(453.027344 0)"/>
      <use xlink:href="#DejaVuSans-72" transform="translate(503.027344 0)"/>
      <use xlink:href="#DejaVuSans-65" transform="translate(541.890625 0)"/>
      <use xlink:href="#DejaVuSans-70" transform="translate(603.414062 0)"/>
      <use xlink:href="#DejaVuSans-6f" transform="translate(666.890625 0)"/>
      <use xlink:href="#DejaVuSans-72" transform="translate(728.072266 0)"/>
      <use xlink:href="#DejaVuSans-74" transform="translate(769.185547 0)"/>
     </g>
    </g>
   </g>
   <g id="text_22">
    <g clip-path="url(#p47b4b84fd4)">
     <!-- complete -->
     <g transform="translate(293.682567 183.770932) scale(0.08 -0.08)">
      <use xlink:href="#DejaVuSans-63"/>
      <use xlink:href="#DejaVuSans-6f" transform="translate(54.980469 0)"/>
      <use xlink:href="#DejaVuSans-6d" transform="translate(116.162109 0)"/>
      <use xlink:href="#DejaVuSans-70" transform="translate(213.574219 0)"/>
      <use xlink:href="#DejaVuSans-6c" transform="translate(277.050781 0)"/>
      <use xlink:href="#DejaVuSans-65" transform="translate(304.833984 0)"/>
      <use xlink:href="#DejaVuSans-74" transform="translate(366.357422 0)"/>
      <use xlink:href="#DejaVuSans-65" transform="translate(405.566406 0)"/>
     </g>
    </g>
   </g>
   <g id="text_23">
    <!-- deep_research -->
    <g transform="translate(370.960625 17.837812) scale(0.14 -0.14)">
     <defs>
      <path id="DejaVuSans-Bold-64" d="M 2919 2988 
L 2919 4863 
L 4044 4863 
L 4044 0 
L 2919 0 
L 2919 506 
Q 2688 197 2409 53 
Q 2131 -91 1766 -91 
Q 1119 -91 703 423 
Q 288 938 288 1747 
Q 288 2556 703 3070 
Q 1119 3584 1766 3584 
Q 2128 3584 2408 3439 
Q 2688 3294 2919 2988 
z
M 2181 722 
Q 2541 722 2730 984 
Q 2919 1247 2919 1747 
Q 2919 2247 2730 2509 
Q 2541 2772 2181 2772 
Q 1825 2772 1636 2509 
Q 1447 2247 1447 1747 
Q 1447 1247 1636 984 
Q 1825 722 2181 722 
z
" transform="scale(0.015625)"/>
      <path id="DejaVuSans-Bold-65" d="M 4031 1759 
L 4031 1441 
L 1416 1441 
Q 1456 1047 1700 850 
Q 1944 653 2381 653 
Q 2734 653 3104 758 
Q 3475 863 3866 1075 
L 3866 213 
Q 3469 63 3072 -14 
Q 2675 -91 2278 -91 
Q 1328 -91 801 392 
Q 275 875 275 1747 
Q 275 2603 792 3093 
Q 1309 3584 2216 3584 
Q 3041 3584 3536 3087 
Q 4031 2591 4031 1759 
z
M 2881 2131 
Q 2881 2450 2695 2645 
Q 2509 2841 2209 2841 
Q 1884 2841 1681 2658 
Q 1478 2475 1428 2131 
L 2881 2131 
z
" transform="scale(0.015625)"/>
      <path id="DejaVuSans-Bold-70" d="M 1656 506 
L 1656 -1331 
L 538 -1331 
L 538 3500 
L 1656 3500 
L 1656 2988 
Q 1888 3294 2169 3439 
Q 2450 3584 2816 3584 
Q 3463 3584 3878 3070 
Q 4294 2556 4294 1747 
Q 4294 938 3878 423 
Q 3463 -91 2816 -91 
Q 2450 -91 2169 54 
Q 1888 200 1656 506 
z
M 2400 2772 
Q 2041 2772 1848 2508 
Q 1656 2244 1656 1747 
Q 1656 1250 1848 986 
Q 2041 722 2400 722 
Q 2759 722 2948 984 
Q 3138 1247 3138 1747 
Q 3138 2247 2948 2509 
Q 2759 2772 2400 2772 
z
" transform="scale(0.015625)"/>
      <path id="DejaVuSans-Bold-5f" d="M 3200 -916 
L 3200 -1509 
L 0 -1509 
L 0 -916 
L 3200 -916 
z
" transform="scale(0.015625)"/>
      <path id="DejaVuSans-Bold-72" d="M 3138 2547 
Q 2991 2616 2845 2648 
Q 2700 2681 2553 2681 
Q 2122 2681 1889 2404 
Q 1656 2128 1656 1613 
L 1656 0 
L 538 0 
L 538 3500 
L 1656 3500 
L 1656 2925 
Q 1872 3269 2151 3426 
Q 2431 3584 2822 3584 
Q 2878 3584 2943 3579 
Q 3009 3575 3134 3559 
L 3138 2547 
z
" transform="scale(0.015625)"/>
      <path id="DejaVuSans-Bold-73" d="M 3272 3391 
L 3272 2541 
Q 2913 2691 2578 2766 
Q 2244 2841 1947 2841 
Q 1628 2841 1473 2761 
Q 1319 2681 1319 2516 
Q 1319 2381 1436 2309 
Q 1553 2238 1856 2203 
L 2053 2175 
Q 2913 2066 3209 1816 
Q 3506 1566 3506 1031 
Q 3506 472 3093 190 
Q 2681 -91 1863 -91 
Q 1516 -91 1145 -36 
Q 775 19 384 128 
L 384 978 
Q 719 816 1070 734 
Q 1422 653 1784 653 
Q 2113 653 2278 743 
Q 2444 834 2444 1013 
Q 2444 1163 2330 1236 
Q 2216 1309 1875 1350 
L 1678 1375 
Q 931 1469 631 1722 
Q 331 1975 331 2491 
Q 331 3047 712 3315 
Q 1094 3584 1881 3584 
Q 2191 3584 2531 3537 
Q 2872 3491 3272 3391 
z
" transform="scale(0.015625)"/>
      <path id="DejaVuSans-Bold-61" d="M 2106 1575 
Q 1756 1575 1579 1456 
Q 1403 1338 1403 1106 
Q 1403 894 1545 773 
Q 1688 653 1941 653 
Q 2256 653 2472 879 
Q 2688 1106 2688 1447 
L 2688 1575 
L 2106 1575 
z
M 3816 1997 
L 3816 0 
L 2688 0 
L 2688 519 
Q 2463 200 2181 54 
Q 1900 -91 1497 -91 
Q 953 -91 614 226 
Q 275 544 275 1050 
Q 275 1666 698 1953 
Q 1122 2241 2028 2241 
L 2688 2241 
L 2688 2328 
Q 2688 2594 2478 2717 
Q 2269 2841 1825 2841 
Q 1466 2841 1156 2769 
Q 847 2697 581 2553 
L 581 3406 
Q 941 3494 1303 3539 
Q 1666 3584 2028 3584 
Q 2975 3584 3395 3211 
Q 3816 2838 3816 1997 
z
" transform="scale(0.015625)"/>
      <path id="DejaVuSans-Bold-63" d="M 3366 3391 
L 3366 2478 
Q 3138 2634 2908 2709 
Q 2678 2784 2431 2784 
Q 1963 2784 1702 2511 
Q 1441 2238 1441 1747 
Q 1441 1256 1702 982 
Q 1963 709 2431 709 
Q 2694 709 2930 787 
Q 3166 866 3366 1019 
L 3366 103 
Q 3103 6 2833 -42 
Q 2563 -91 2291 -91 
Q 1344 -91 809 395 
Q 275 881 275 1747 
Q 275 2613 809 3098 
Q 1344 3584 2291 3584 
Q 2566 3584 2833 3536 
Q 3100 3488 3366 3391 
z
" transform="scale(0.015625)"/>
      <path id="DejaVuSans-Bold-68" d="M 4056 2131 
L 4056 0 
L 2931 0 
L 2931 347 
L 2931 1625 
Q 2931 2084 2911 2256 
Q 2891 2428 2841 2509 
Q 2775 2619 2662 2680 
Q 2550 2741 2406 2741 
Q 2056 2741 1856 2470 
Q 1656 2200 1656 1722 
L 1656 0 
L 538 0 
L 538 4863 
L 1656 4863 
L 1656 2988 
Q 1909 3294 2193 3439 
Q 2478 3584 2822 3584 
Q 3428 3584 3742 3212 
Q 4056 2841 4056 2131 
z
" transform="scale(0.015625)"/>
     </defs>
     <use xlink:href="#DejaVuSans-Bold-64"/>
     <use xlink:href="#DejaVuSans-Bold-65" transform="translate(71.582031 0)"/>
     <use xlink:href="#DejaVuSans-Bold-65" transform="translate(139.404297 0)"/>
     <use xlink:href="#DejaVuSans-Bold-70" transform="translate(207.226562 0)"/>
     <use xlink:href="#DejaVuSans-Bold-5f" transform="translate(278.808594 0)"/>
     <use xlink:href="#DejaVuSans-Bold-72" transform="translate(328.808594 0)"/>
     <use xlink:href="#DejaVuSans-Bold-65" transform="translate(378.125 0)"/>
     <use xlink:href="#DejaVuSans-Bold-73" transform="translate(445.947266 0)"/>
     <use xlink:href="#DejaVuSans-Bold-65" transform="translate(505.46875 0)"/>
     <use xlink:href="#DejaVuSans-Bold-61" transform="translate(573.291016 0)"/>
     <use xlink:href="#DejaVuSans-Bold-72" transform="translate(640.771484 0)"/>
     <use xlink:href="#DejaVuSans-Bold-63" transform="translate(690.087891 0)"/>
     <use xlink:href="#DejaVuSans-Bold-68" transform="translate(749.365234 0)"/>
    </g>
   </g>
  </g>
 </g>
 <defs>
  <clipPath id="p47b4b84fd4">
   <rect x="7.2" y="23.837812" width="842.4" height="537.6"/>
  </clipPath>
 </defs>
</svg>
