<?xml version="1.0" encoding="utf-8" standalone="no"?>
<!DOCTYPE svg PUBLIC "-//W3C//DTD SVG 1.1//EN"
  "http://www.w3.org/Graphics/SVG/1.1/DTD/svg11.dtd">
<svg xmlns:xlink="http://www.w3.org/1999/xlink" width="856.8pt" height="568.637812pt" viewBox="0 0 856.8 568.637812" xmlns="http://www.w3.org/2000/svg" version="1.1">
 <metadata>
  <rdf:RDF xmlns:dc="http://purl.org/dc/elements/1.1/" xmlns:cc="http://creativecommons.org/ns#" xmlns:rdf="http://www.w3.org/1999/02/22-rdf-syntax-ns#">
   <cc:Work>
    <dc:type rdf:resource="http://purl.org/dc/dcmitype/StillImage"/>
    <dc:date>2026-01-03T04:00:57.825076</dc:date>
    <dc:format>image/svg+xml</dc:format>
    <dc:creator>
     <cc:Agent>
      <dc:title>Matplotlib v3.10.8, https://matplotlib.org/</dc:title>
     </cc:Agent>
    </dc:creator>
   </cc:Work>
  </rdf:RDF>
 </metadata>
 <defs>
  <style type="text/css">*{stroke-linejoin: round; stroke-linecap: butt}</style>
 </defs>
 <g id="figure_1">
  <g id="patch_1">
   <path d="M 0 568.637812 
L 856.8 568.637812 
L 856.8 0 
L 0 0 
z
" style="fill: #ffffff"/>
  </g>
  <g id="axes_1">
   <g id="patch_2">
    <path d="M 88.961344 514.786573 
Q 428.401412 514.786573 766.723446 514.786573 
" clip-path="url(#ped5b97af47)" style="fill: none; stroke: #666666; stroke-linecap: round"/>
    <path d="M 762.723446 512.786573 
L 766.723446 514.786573 
L 762.723446 516.786573 
z
" clip-path="url(#ped5b97af47)" style="fill: #666666; stroke: #666666; stroke-linecap: round"/>
   </g>
   <g id="patch_3">
    <path d="M 771.475392 507.733241 
Q 744.853564 470.356498 718.880356 433.89041 
" clip-path="url(#ped5b97af47)" style="fill: none; stroke: #666666; stroke-linecap: round"/>
    <path d="M 719.5719 438.308755 
L 718.880356 433.89041 
L 722.829958 435.988182 
z
" clip-path="url(#ped5b97af47)" style="fill: #666666; stroke: #666666; stroke-linecap: round"/>
   </g>
   <g id="patch_4">
    <path d="M 116.972884 463.299421 
Q 159.415648 403.710265 201.209792 345.031763 
" clip-path="url(#ped5b97af47)" style="fill: none; stroke: #666666; stroke-linecap: round"/>
    <path d="M 197.26019 347.129535 
L 201.209792 345.031763 
L 200.518248 349.450108 
z
" clip-path="url(#ped5b97af47)" style="fill: #666666; stroke: #666666; stroke-linecap: round"/>
   </g>
   <g id="patch_5">
    <path d="M 211.906125 344.120896 
Q 222.704089 359.281114 232.853432 373.530676 
" clip-path="url(#ped5b97af47)" style="fill: none; stroke: #666666; stroke-linecap: round"/>
    <path d="M 232.161888 369.112332 
L 232.853432 373.530676 
L 228.90383 371.432905 
z
" clip-path="url(#ped5b97af47)" style="fill: #666666; stroke: #666666; stroke-linecap: round"/>
   </g>
   <g id="patch_6">
    <path d="M 247.150578 382.304409 
Q 475.868162 403.712201 703.472579 425.015802 
" clip-path="url(#ped5b97af47)" style="fill: none; stroke: #666666; stroke-linecap: round"/>
    <path d="M 699.67637 422.651738 
L 703.472579 425.015802 
L 699.303602 426.634331 
z
" clip-path="url(#ped5b97af47)" style="fill: #666666; stroke: #666666; stroke-linecap: round"/>
   </g>
   <g id="patch_7">
    <path d="M 708.181736 418.869669 
Q 665.738973 359.280513 623.944829 300.602011 
" clip-path="url(#ped5b97af47)" style="fill: none; stroke: #666666; stroke-linecap: round"/>
    <path d="M 624.636373 305.020356 
L 623.944829 300.602011 
L 627.894431 302.699783 
z
" clip-path="url(#ped5b97af47)" style="fill: #666666; stroke: #666666; stroke-linecap: round"/>
   </g>
   <g id="patch_8">
    <path d="M 613.248495 285.584481 
Q 602.450532 270.424263 592.301188 256.174701 
" clip-path="url(#ped5b97af47)" style="fill: none; stroke: #666666; stroke-linecap: round"/>
    <path d="M 592.992732 260.593045 
L 592.301188 256.174701 
L 596.25079 258.272472 
z
" clip-path="url(#ped5b97af47)" style="fill: #666666; stroke: #666666; stroke-linecap: round"/>
   </g>
   <g id="patch_9">
    <path d="M 578.290144 250.549002 
Q 428.399497 292.637954 279.585253 334.424654 
" clip-path="url(#ped5b97af47)" style="fill: none; stroke: #666666; stroke-linecap: round"/>
    <path d="M 283.976995 335.268815 
L 279.585253 334.424654 
L 282.895626 331.417757 
z
" clip-path="url(#ped5b97af47)" style="fill: #666666; stroke: #666666; stroke-linecap: round"/>
   </g>
   <g id="patch_10">
    <path d="M 581.603116 241.154729 
Q 523.336607 159.349214 465.718717 78.454354 
" clip-path="url(#ped5b97af47)" style="fill: none; stroke: #666666; stroke-linecap: round"/>
    <path d="M 466.410261 82.872698 
L 465.718717 78.454354 
L 469.668319 80.552125 
z
" clip-path="url(#ped5b97af47)" style="fill: #666666; stroke: #666666; stroke-linecap: round"/>
   </g>
   <g id="patch_11">
    <path d="M 455.018701 77.546451 
Q 365.107575 203.780648 275.845069 329.104189 
" clip-path="url(#ped5b97af47)" style="fill: none; stroke: #666666; stroke-linecap: round"/>
    <path d="M 279.794671 327.006418 
L 275.845069 329.104189 
L 276.536613 324.685845 
z
" clip-path="url(#ped5b97af47)" style="fill: #666666; stroke: #666666; stroke-linecap: round"/>
   </g>
   <g id="patch_12">
    <path d="M 276.795667 331.488762 
Q 349.286347 270.423109 420.921951 210.077766 
" clip-path="url(#ped5b97af47)" style="fill: none; stroke: #666666; stroke-linecap: round"/>
    <path d="M 416.574211 211.125219 
L 420.921951 210.077766 
L 419.151269 214.184429 
z
" clip-path="url(#ped5b97af47)" style="fill: #666666; stroke: #666666; stroke-linecap: round"/>
   </g>
   <g id="patch_13">
    <path d="M 433.423781 196.724977 
Q 444.221745 181.564759 454.371088 167.315197 
" clip-path="url(#ped5b97af47)" style="fill: none; stroke: #666666; stroke-linecap: round"/>
    <path d="M 450.421486 169.412968 
L 454.371088 167.315197 
L 453.679544 171.733541 
z
" clip-path="url(#ped5b97af47)" style="fill: #666666; stroke: #666666; stroke-linecap: round"/>
   </g>
   <g id="patch_14">
    <path d="M 460.045379 150.689853 
Q 460.045379 137.133796 460.045379 124.695772 
" clip-path="url(#ped5b97af47)" style="fill: none; stroke: #666666; stroke-linecap: round"/>
    <path d="M 458.045379 128.695772 
L 460.045379 124.695772 
L 462.045379 128.695772 
z
" clip-path="url(#ped5b97af47)" style="fill: #666666; stroke: #666666; stroke-linecap: round"/>
   </g>
   <g id="text_1">
    <g id="patch_15">
     <path d="M 418.026438 301.250256 
L 441.739475 294.591689 
Q 443.76128 294.023971 443.193561 292.002166 
L 441.362079 285.479738 
Q 440.79436 283.457933 438.772555 284.025652 
L 415.059519 290.684218 
Q 413.037714 291.251936 413.605432 293.273742 
L 415.436915 299.796169 
Q 416.004633 301.817974 418.026438 301.250256 
z
" clip-path="url(#ped5b97af47)" style="fill: #ffffff; stroke: #ffffff; stroke-linejoin: miter"/>
    </g>
    <g clip-path="url(#ped5b97af47)">
     <!-- default -->
     <g transform="translate(417.065161 297.826877) rotate(-15.684621) scale(0.07 -0.07)">
      <defs>
       <path id="DejaVuSans-64" d="M 2906 2969 
L 2906 4863 
L 3481 4863 
L 3481 0 
L 2906 0 
L 2906 525 
Q 2725 213 2448 61 
Q 2172 -91 1784 -91 
Q 1150 -91 751 415 
Q 353 922 353 1747 
Q 353 2572 751 3078 
Q 1150 3584 1784 3584 
Q 2172 3584 2448 3432 
Q 2725 3281 2906 2969 
z
M 947 1747 
Q 947 1113 1208 752 
Q 1469 391 1925 391 
Q 2381 391 2643 752 
Q 2906 1113 2906 1747 
Q 2906 2381 2643 2742 
Q 2381 3103 1925 3103 
Q 1469 3103 1208 2742 
Q 947 2381 947 1747 
z
" transform="scale(0.015625)"/>
       <path id="DejaVuSans-65" d="M 3597 1894 
L 3597 1613 
L 953 1613 
Q 991 1019 1311 708 
Q 1631 397 2203 397 
Q 2534 397 2845 478 
Q 3156 559 3463 722 
L 3463 178 
Q 3153 47 2828 -22 
Q 2503 -91 2169 -91 
Q 1331 -91 842 396 
Q 353 884 353 1716 
Q 353 2575 817 3079 
Q 1281 3584 2069 3584 
Q 2775 3584 3186 3129 
Q 3597 2675 3597 1894 
z
M 3022 2063 
Q 3016 2534 2758 2815 
Q 2500 3097 2075 3097 
Q 1594 3097 1305 2825 
Q 1016 2553 972 2059 
L 3022 2063 
z
" transform="scale(0.015625)"/>
       <path id="DejaVuSans-66" d="M 2375 4863 
L 2375 4384 
L 1825 4384 
Q 1516 4384 1395 4259 
Q 1275 4134 1275 3809 
L 1275 3500 
L 2222 3500 
L 2222 3053 
L 1275 3053 
L 1275 0 
L 697 0 
L 697 3053 
L 147 3053 
L 147 3500 
L 697 3500 
L 697 3744 
Q 697 4328 969 4595 
Q 1241 4863 1831 4863 
L 2375 4863 
z
" transform="scale(0.015625)"/>
       <path id="DejaVuSans-61" d="M 2194 1759 
Q 1497 1759 1228 1600 
Q 959 1441 959 1056 
Q 959 750 1161 570 
Q 1363 391 1709 391 
Q 2188 391 2477 730 
Q 2766 1069 2766 1631 
L 2766 1759 
L 2194 1759 
z
M 3341 1997 
L 3341 0 
L 2766 0 
L 2766 531 
Q 2569 213 2275 61 
Q 1981 -91 1556 -91 
Q 1019 -91 701 211 
Q 384 513 384 1019 
Q 384 1609 779 1909 
Q 1175 2209 1959 2209 
L 2766 2209 
L 2766 2266 
Q 2766 2663 2505 2880 
Q 2244 3097 1772 3097 
Q 1472 3097 1187 3025 
Q 903 2953 641 2809 
L 641 3341 
Q 956 3463 1253 3523 
Q 1550 3584 1831 3584 
Q 2591 3584 2966 3190 
Q 3341 2797 3341 1997 
z
" transform="scale(0.015625)"/>
       <path id="DejaVuSans-75" d="M 544 1381 
L 544 3500 
L 1119 3500 
L 1119 1403 
Q 1119 906 1312 657 
Q 1506 409 1894 409 
Q 2359 409 2629 706 
Q 2900 1003 2900 1516 
L 2900 3500 
L 3475 3500 
L 3475 0 
L 2900 0 
L 2900 538 
Q 2691 219 2414 64 
Q 2138 -91 1772 -91 
Q 1169 -91 856 284 
Q 544 659 544 1381 
z
M 1991 3584 
L 1991 3584 
z
" transform="scale(0.015625)"/>
       <path id="DejaVuSans-6c" d="M 603 4863 
L 1178 4863 
L 1178 0 
L 603 0 
L 603 4863 
z
" transform="scale(0.015625)"/>
       <path id="DejaVuSans-74" d="M 1172 4494 
L 1172 3500 
L 2356 3500 
L 2356 3053 
L 1172 3053 
L 1172 1153 
Q 1172 725 1289 603 
Q 1406 481 1766 481 
L 2356 481 
L 2356 0 
L 1766 0 
Q 1100 0 847 248 
Q 594 497 594 1153 
L 594 3053 
L 172 3053 
L 172 3500 
L 594 3500 
L 594 4494 
L 1172 4494 
z
" transform="scale(0.015625)"/>
      </defs>
      <use xlink:href="#DejaVuSans-64"/>
      <use xlink:href="#DejaVuSans-65" transform="translate(63.476562 0)"/>
      <use xlink:href="#DejaVuSans-66" transform="translate(125 0)"/>
      <use xlink:href="#DejaVuSans-61" transform="translate(160.205078 0)"/>
      <use xlink:href="#DejaVuSans-75" transform="translate(221.484375 0)"/>
      <use xlink:href="#DejaVuSans-6c" transform="translate(284.863281 0)"/>
      <use xlink:href="#DejaVuSans-74" transform="translate(312.646484 0)"/>
     </g>
    </g>
   </g>
   <g id="text_2">
    <g id="patch_16">
     <path d="M 504.318255 142.27406 
L 533.25734 182.904205 
Q 534.475641 184.614686 536.186121 183.396385 
L 541.862778 179.353149 
Q 543.573259 178.134848 542.354958 176.424368 
L 513.415873 135.794222 
Q 512.197572 134.083742 510.487092 135.302043 
L 504.810435 139.345278 
Q 503.099954 140.563579 504.318255 142.27406 
z
" clip-path="url(#ped5b97af47)" style="fill: #ffffff; stroke: #ffffff; stroke-linejoin: miter"/>
    </g>
    <g clip-path="url(#ped5b97af47)">
     <!-- low_credibility -->
     <g transform="translate(507.373066 140.09825) rotate(-305.460617) scale(0.07 -0.07)">
      <defs>
       <path id="DejaVuSans-6f" d="M 1959 3097 
Q 1497 3097 1228 2736 
Q 959 2375 959 1747 
Q 959 1119 1226 758 
Q 1494 397 1959 397 
Q 2419 397 2687 759 
Q 2956 1122 2956 1747 
Q 2956 2369 2687 2733 
Q 2419 3097 1959 3097 
z
M 1959 3584 
Q 2709 3584 3137 3096 
Q 3566 2609 3566 1747 
Q 3566 888 3137 398 
Q 2709 -91 1959 -91 
Q 1206 -91 779 398 
Q 353 888 353 1747 
Q 353 2609 779 3096 
Q 1206 3584 1959 3584 
z
" transform="scale(0.015625)"/>
       <path id="DejaVuSans-77" d="M 269 3500 
L 844 3500 
L 1563 769 
L 2278 3500 
L 2956 3500 
L 3675 769 
L 4391 3500 
L 4966 3500 
L 4050 0 
L 3372 0 
L 2619 2869 
L 1863 0 
L 1184 0 
L 269 3500 
z
" transform="scale(0.015625)"/>
       <path id="DejaVuSans-5f" d="M 3263 -1063 
L 3263 -1509 
L -63 -1509 
L -63 -1063 
L 3263 -1063 
z
" transform="scale(0.015625)"/>
       <path id="DejaVuSans-63" d="M 3122 3366 
L 3122 2828 
Q 2878 2963 2633 3030 
Q 2388 3097 2138 3097 
Q 1578 3097 1268 2742 
Q 959 2388 959 1747 
Q 959 1106 1268 751 
Q 1578 397 2138 397 
Q 2388 397 2633 464 
Q 2878 531 3122 666 
L 3122 134 
Q 2881 22 2623 -34 
Q 2366 -91 2075 -91 
Q 1284 -91 818 406 
Q 353 903 353 1747 
Q 353 2603 823 3093 
Q 1294 3584 2113 3584 
Q 2378 3584 2631 3529 
Q 2884 3475 3122 3366 
z
" transform="scale(0.015625)"/>
       <path id="DejaVuSans-72" d="M 2631 2963 
Q 2534 3019 2420 3045 
Q 2306 3072 2169 3072 
Q 1681 3072 1420 2755 
Q 1159 2438 1159 1844 
L 1159 0 
L 581 0 
L 581 3500 
L 1159 3500 
L 1159 2956 
Q 1341 3275 1631 3429 
Q 1922 3584 2338 3584 
Q 2397 3584 2469 3576 
Q 2541 3569 2628 3553 
L 2631 2963 
z
" transform="scale(0.015625)"/>
       <path id="DejaVuSans-69" d="M 603 3500 
L 1178 3500 
L 1178 0 
L 603 0 
L 603 3500 
z
M 603 4863 
L 1178 4863 
L 1178 4134 
L 603 4134 
L 603 4863 
z
" transform="scale(0.015625)"/>
       <path id="DejaVuSans-62" d="M 3116 1747 
Q 3116 2381 2855 2742 
Q 2594 3103 2138 3103 
Q 1681 3103 1420 2742 
Q 1159 2381 1159 1747 
Q 1159 1113 1420 752 
Q 1681 391 2138 391 
Q 2594 391 2855 752 
Q 3116 1113 3116 1747 
z
M 1159 2969 
Q 1341 3281 1617 3432 
Q 1894 3584 2278 3584 
Q 2916 3584 3314 3078 
Q 3713 2572 3713 1747 
Q 3713 922 3314 415 
Q 2916 -91 2278 -91 
Q 1894 -91 1617 61 
Q 1341 213 1159 525 
L 1159 0 
L 581 0 
L 581 4863 
L 1159 4863 
L 1159 2969 
z
" transform="scale(0.015625)"/>
       <path id="DejaVuSans-79" d="M 2059 -325 
Q 1816 -950 1584 -1140 
Q 1353 -1331 966 -1331 
L 506 -1331 
L 506 -850 
L 844 -850 
Q 1081 -850 1212 -737 
Q 1344 -625 1503 -206 
L 1606 56 
L 191 3500 
L 800 3500 
L 1894 763 
L 2988 3500 
L 3597 3500 
L 2059 -325 
z
" transform="scale(0.015625)"/>
      </defs>
      <use xlink:href="#DejaVuSans-6c"/>
      <use xlink:href="#DejaVuSans-6f" transform="translate(27.783203 0)"/>
      <use xlink:href="#DejaVuSans-77" transform="translate(88.964844 0)"/>
      <use xlink:href="#DejaVuSans-5f" transform="translate(170.751953 0)"/>
      <use xlink:href="#DejaVuSans-63" transform="translate(220.751953 0)"/>
      <use xlink:href="#DejaVuSans-72" transform="translate(275.732422 0)"/>
      <use xlink:href="#DejaVuSans-65" transform="translate(314.595703 0)"/>
      <use xlink:href="#DejaVuSans-64" transform="translate(376.119141 0)"/>
      <use xlink:href="#DejaVuSans-69" transform="translate(439.595703 0)"/>
      <use xlink:href="#DejaVuSans-62" transform="translate(467.378906 0)"/>
      <use xlink:href="#DejaVuSans-69" transform="translate(530.855469 0)"/>
      <use xlink:href="#DejaVuSans-6c" transform="translate(558.638672 0)"/>
      <use xlink:href="#DejaVuSans-69" transform="translate(586.421875 0)"/>
      <use xlink:href="#DejaVuSans-74" transform="translate(614.205078 0)"/>
      <use xlink:href="#DejaVuSans-79" transform="translate(653.414062 0)"/>
     </g>
    </g>
   </g>
   <g id="PathCollection_1">
    <defs>
     <path id="C0_0_1bc7e37da8" d="M 0 22.36068 
C 5.930122 22.36068 11.618159 20.004617 15.811388 15.811388 
C 20.004617 11.618159 22.36068 5.930122 22.36068 -0 
C 22.36068 -5.930122 20.004617 -11.618159 15.811388 -15.811388 
C 11.618159 -20.004617 5.930122 -22.36068 0 -22.36068 
C -5.930122 -22.36068 -11.618159 -20.004617 -15.811388 -15.811388 
C -20.004617 -11.618159 -22.36068 -5.930122 -22.36068 0 
C -22.36068 5.930122 -20.004617 11.618159 -15.811388 15.811388 
C -11.618159 20.004617 -5.930122 22.36068 0 22.36068 
z
"/>
    </defs>
    <g clip-path="url(#ped5b97af47)">
     <use xlink:href="#C0_0_1bc7e37da8" x="80.300826" y="514.786573" style="fill: #e3f2fd; stroke: #e3f2fd"/>
    </g>
    <g clip-path="url(#ped5b97af47)">
     <use xlink:href="#C0_0_1bc7e37da8" x="776.499174" y="514.786573" style="fill: #f3e5f5; stroke: #f3e5f5"/>
    </g>
    <g clip-path="url(#ped5b97af47)">
     <use xlink:href="#C0_0_1bc7e37da8" x="111.946206" y="470.356821" style="fill: #e3f2fd; stroke: #e3f2fd"/>
    </g>
    <g clip-path="url(#ped5b97af47)">
     <use xlink:href="#C0_0_1bc7e37da8" x="206.882344" y="337.067565" style="fill: #e3f2fd; stroke: #e3f2fd"/>
    </g>
    <g clip-path="url(#ped5b97af47)">
     <use xlink:href="#C0_0_1bc7e37da8" x="238.527724" y="381.497317" style="fill: #e3f2fd; stroke: #e3f2fd"/>
    </g>
    <g clip-path="url(#ped5b97af47)">
     <use xlink:href="#C0_0_1bc7e37da8" x="713.208415" y="425.927069" style="fill: #eceff1; stroke: #eceff1"/>
    </g>
    <g clip-path="url(#ped5b97af47)">
     <use xlink:href="#C0_0_1bc7e37da8" x="618.272276" y="292.637812" style="fill: #e3f2fd; stroke: #e3f2fd"/>
    </g>
    <g clip-path="url(#ped5b97af47)">
     <use xlink:href="#C0_0_1bc7e37da8" x="586.626897" y="248.20806" style="fill: #fff3e0; stroke: #fff3e0"/>
    </g>
    <g clip-path="url(#ped5b97af47)">
     <use xlink:href="#C0_0_1bc7e37da8" x="460.045379" y="70.489052" style="fill: #ffebee; stroke: #ffebee"/>
    </g>
    <g clip-path="url(#ped5b97af47)">
     <use xlink:href="#C0_0_1bc7e37da8" x="270.173103" y="337.067565" style="fill: #e3f2fd; stroke: #e3f2fd"/>
    </g>
    <g clip-path="url(#ped5b97af47)">
     <use xlink:href="#C0_0_1bc7e37da8" x="428.4" y="203.778308" style="fill: #ffebee; stroke: #ffebee"/>
    </g>
    <g clip-path="url(#ped5b97af47)">
     <use xlink:href="#C0_0_1bc7e37da8" x="460.045379" y="159.348556" style="fill: #e3f2fd; stroke: #e3f2fd"/>
    </g>
    <g clip-path="url(#ped5b97af47)">
     <use xlink:href="#C0_0_1bc7e37da8" x="460.045379" y="114.918804" style="fill: #eceff1; stroke: #eceff1"/>
    </g>
   </g>
   <g id="text_3">
    <g clip-path="url(#ped5b97af47)">
     <!-- parse_claims -->
     <g transform="translate(54.267701 516.882823) scale(0.08 -0.08)">
      <defs>
       <path id="DejaVuSans-70" d="M 1159 525 
L 1159 -1331 
L 581 -1331 
L 581 3500 
L 1159 3500 
L 1159 2969 
Q 1341 3281 1617 3432 
Q 1894 3584 2278 3584 
Q 2916 3584 3314 3078 
Q 3713 2572 3713 1747 
Q 3713 922 3314 415 
Q 2916 -91 2278 -91 
Q 1894 -91 1617 61 
Q 1341 213 1159 525 
z
M 3116 1747 
Q 3116 2381 2855 2742 
Q 2594 3103 2138 3103 
Q 1681 3103 1420 2742 
Q 1159 2381 1159 1747 
Q 1159 1113 1420 752 
Q 1681 391 2138 391 
Q 2594 391 2855 752 
Q 3116 1113 3116 1747 
z
" transform="scale(0.015625)"/>
       <path id="DejaVuSans-73" d="M 2834 3397 
L 2834 2853 
Q 2591 2978 2328 3040 
Q 2066 3103 1784 3103 
Q 1356 3103 1142 2972 
Q 928 2841 928 2578 
Q 928 2378 1081 2264 
Q 1234 2150 1697 2047 
L 1894 2003 
Q 2506 1872 2764 1633 
Q 3022 1394 3022 966 
Q 3022 478 2636 193 
Q 2250 -91 1575 -91 
Q 1294 -91 989 -36 
Q 684 19 347 128 
L 347 722 
Q 666 556 975 473 
Q 1284 391 1588 391 
Q 1994 391 2212 530 
Q 2431 669 2431 922 
Q 2431 1156 2273 1281 
Q 2116 1406 1581 1522 
L 1381 1569 
Q 847 1681 609 1914 
Q 372 2147 372 2553 
Q 372 3047 722 3315 
Q 1072 3584 1716 3584 
Q 2034 3584 2315 3537 
Q 2597 3491 2834 3397 
z
" transform="scale(0.015625)"/>
       <path id="DejaVuSans-6d" d="M 3328 2828 
Q 3544 3216 3844 3400 
Q 4144 3584 4550 3584 
Q 5097 3584 5394 3201 
Q 5691 2819 5691 2113 
L 5691 0 
L 5113 0 
L 5113 2094 
Q 5113 2597 4934 2840 
Q 4756 3084 4391 3084 
Q 3944 3084 3684 2787 
Q 3425 2491 3425 1978 
L 3425 0 
L 2847 0 
L 2847 2094 
Q 2847 2600 2669 2842 
Q 2491 3084 2119 3084 
Q 1678 3084 1418 2786 
Q 1159 2488 1159 1978 
L 1159 0 
L 581 0 
L 581 3500 
L 1159 3500 
L 1159 2956 
Q 1356 3278 1631 3431 
Q 1906 3584 2284 3584 
Q 2666 3584 2933 3390 
Q 3200 3197 3328 2828 
z
" transform="scale(0.015625)"/>
      </defs>
      <use xlink:href="#DejaVuSans-70"/>
      <use xlink:href="#DejaVuSans-61" transform="translate(63.476562 0)"/>
      <use xlink:href="#DejaVuSans-72" transform="translate(124.755859 0)"/>
      <use xlink:href="#DejaVuSans-73" transform="translate(165.869141 0)"/>
      <use xlink:href="#DejaVuSans-65" transform="translate(217.96875 0)"/>
      <use xlink:href="#DejaVuSans-5f" transform="translate(279.492188 0)"/>
      <use xlink:href="#DejaVuSans-63" transform="translate(329.492188 0)"/>
      <use xlink:href="#DejaVuSans-6c" transform="translate(384.472656 0)"/>
      <use xlink:href="#DejaVuSans-61" transform="translate(412.255859 0)"/>
      <use xlink:href="#DejaVuSans-69" transform="translate(473.535156 0)"/>
      <use xlink:href="#DejaVuSans-6d" transform="translate(501.318359 0)"/>
      <use xlink:href="#DejaVuSans-73" transform="translate(598.730469 0)"/>
     </g>
    </g>
   </g>
   <g id="text_4">
    <g clip-path="url(#ped5b97af47)">
     <!-- parallel_search -->
     <g transform="translate(746.332924 516.882823) scale(0.08 -0.08)">
      <defs>
       <path id="DejaVuSans-68" d="M 3513 2113 
L 3513 0 
L 2938 0 
L 2938 2094 
Q 2938 2591 2744 2837 
Q 2550 3084 2163 3084 
Q 1697 3084 1428 2787 
Q 1159 2491 1159 1978 
L 1159 0 
L 581 0 
L 581 4863 
L 1159 4863 
L 1159 2956 
Q 1366 3272 1645 3428 
Q 1925 3584 2291 3584 
Q 2894 3584 3203 3211 
Q 3513 2838 3513 2113 
z
" transform="scale(0.015625)"/>
      </defs>
      <use xlink:href="#DejaVuSans-70"/>
      <use xlink:href="#DejaVuSans-61" transform="translate(63.476562 0)"/>
      <use xlink:href="#DejaVuSans-72" transform="translate(124.755859 0)"/>
      <use xlink:href="#DejaVuSans-61" transform="translate(165.869141 0)"/>
      <use xlink:href="#DejaVuSans-6c" transform="translate(227.148438 0)"/>
      <use xlink:href="#DejaVuSans-6c" transform="translate(254.931641 0)"/>
      <use xlink:href="#DejaVuSans-65" transform="translate(282.714844 0)"/>
      <use xlink:href="#DejaVuSans-6c" transform="translate(344.238281 0)"/>
      <use xlink:href="#DejaVuSans-5f" transform="translate(372.021484 0)"/>
      <use xlink:href="#DejaVuSans-73" transform="translate(422.021484 0)"/>
      <use xlink:href="#DejaVuSans-65" transform="translate(474.121094 0)"/>
      <use xlink:href="#DejaVuSans-61" transform="translate(535.644531 0)"/>
      <use xlink:href="#DejaVuSans-72" transform="translate(596.923828 0)"/>
      <use xlink:href="#DejaVuSans-63" transform="translate(635.787109 0)"/>
      <use xlink:href="#DejaVuSans-68" transform="translate(690.767578 0)"/>
     </g>
    </g>
   </g>
   <g id="text_5">
    <g clip-path="url(#ped5b97af47)">
     <!-- primary_sources -->
     <g transform="translate(78.926831 472.453071) scale(0.08 -0.08)">
      <use xlink:href="#DejaVuSans-70"/>
      <use xlink:href="#DejaVuSans-72" transform="translate(63.476562 0)"/>
      <use xlink:href="#DejaVuSans-69" transform="translate(104.589844 0)"/>
      <use xlink:href="#DejaVuSans-6d" transform="translate(132.373047 0)"/>
      <use xlink:href="#DejaVuSans-61" transform="translate(229.785156 0)"/>
      <use xlink:href="#DejaVuSans-72" transform="translate(291.064453 0)"/>
      <use xlink:href="#DejaVuSans-79" transform="translate(332.177734 0)"/>
      <use xlink:href="#DejaVuSans-5f" transform="translate(391.357422 0)"/>
      <use xlink:href="#DejaVuSans-73" transform="translate(441.357422 0)"/>
      <use xlink:href="#DejaVuSans-6f" transform="translate(493.457031 0)"/>
      <use xlink:href="#DejaVuSans-75" transform="translate(554.638672 0)"/>
      <use xlink:href="#DejaVuSans-72" transform="translate(618.017578 0)"/>
      <use xlink:href="#DejaVuSans-63" transform="translate(656.880859 0)"/>
      <use xlink:href="#DejaVuSans-65" transform="translate(711.861328 0)"/>
      <use xlink:href="#DejaVuSans-73" transform="translate(773.384766 0)"/>
     </g>
    </g>
   </g>
   <g id="text_6">
    <g clip-path="url(#ped5b97af47)">
     <!-- fact_check_sites -->
     <g transform="translate(174.236094 339.163815) scale(0.08 -0.08)">
      <defs>
       <path id="DejaVuSans-6b" d="M 581 4863 
L 1159 4863 
L 1159 1991 
L 2875 3500 
L 3609 3500 
L 1753 1863 
L 3688 0 
L 2938 0 
L 1159 1709 
L 1159 0 
L 581 0 
L 581 4863 
z
" transform="scale(0.015625)"/>
      </defs>
      <use xlink:href="#DejaVuSans-66"/>
      <use xlink:href="#DejaVuSans-61" transform="translate(35.205078 0)"/>
      <use xlink:href="#DejaVuSans-63" transform="translate(96.484375 0)"/>
      <use xlink:href="#DejaVuSans-74" transform="translate(151.464844 0)"/>
      <use xlink:href="#DejaVuSans-5f" transform="translate(190.673828 0)"/>
      <use xlink:href="#DejaVuSans-63" transform="translate(240.673828 0)"/>
      <use xlink:href="#DejaVuSans-68" transform="translate(295.654297 0)"/>
      <use xlink:href="#DejaVuSans-65" transform="translate(359.033203 0)"/>
      <use xlink:href="#DejaVuSans-63" transform="translate(420.556641 0)"/>
      <use xlink:href="#DejaVuSans-6b" transform="translate(475.537109 0)"/>
      <use xlink:href="#DejaVuSans-5f" transform="translate(533.447266 0)"/>
      <use xlink:href="#DejaVuSans-73" transform="translate(583.447266 0)"/>
      <use xlink:href="#DejaVuSans-69" transform="translate(635.546875 0)"/>
      <use xlink:href="#DejaVuSans-74" transform="translate(663.330078 0)"/>
      <use xlink:href="#DejaVuSans-65" transform="translate(702.539062 0)"/>
      <use xlink:href="#DejaVuSans-73" transform="translate(764.0625 0)"/>
     </g>
    </g>
   </g>
   <g id="text_7">
    <g clip-path="url(#ped5b97af47)">
     <!-- news_archives -->
     <g transform="translate(209.412724 383.593567) scale(0.08 -0.08)">
      <defs>
       <path id="DejaVuSans-6e" d="M 3513 2113 
L 3513 0 
L 2938 0 
L 2938 2094 
Q 2938 2591 2744 2837 
Q 2550 3084 2163 3084 
Q 1697 3084 1428 2787 
Q 1159 2491 1159 1978 
L 1159 0 
L 581 0 
L 581 3500 
L 1159 3500 
L 1159 2956 
Q 1366 3272 1645 3428 
Q 1925 3584 2291 3584 
Q 2894 3584 3203 3211 
Q 3513 2838 3513 2113 
z
" transform="scale(0.015625)"/>
       <path id="DejaVuSans-76" d="M 191 3500 
L 800 3500 
L 1894 563 
L 2988 3500 
L 3597 3500 
L 2284 0 
L 1503 0 
L 191 3500 
z
" transform="scale(0.015625)"/>
      </defs>
      <use xlink:href="#DejaVuSans-6e"/>
      <use xlink:href="#DejaVuSans-65" transform="translate(63.378906 0)"/>
      <use xlink:href="#DejaVuSans-77" transform="translate(124.902344 0)"/>
      <use xlink:href="#DejaVuSans-73" transform="translate(206.689453 0)"/>
      <use xlink:href="#DejaVuSans-5f" transform="translate(258.789062 0)"/>
      <use xlink:href="#DejaVuSans-61" transform="translate(308.789062 0)"/>
      <use xlink:href="#DejaVuSans-72" transform="translate(370.068359 0)"/>
      <use xlink:href="#DejaVuSans-63" transform="translate(408.931641 0)"/>
      <use xlink:href="#DejaVuSans-68" transform="translate(463.912109 0)"/>
      <use xlink:href="#DejaVuSans-69" transform="translate(527.291016 0)"/>
      <use xlink:href="#DejaVuSans-76" transform="translate(555.074219 0)"/>
      <use xlink:href="#DejaVuSans-65" transform="translate(614.253906 0)"/>
      <use xlink:href="#DejaVuSans-73" transform="translate(675.777344 0)"/>
     </g>
    </g>
   </g>
   <g id="text_8">
    <g clip-path="url(#ped5b97af47)">
     <!-- aggregate_evidence -->
     <g transform="translate(672.50654 428.023319) scale(0.08 -0.08)">
      <defs>
       <path id="DejaVuSans-67" d="M 2906 1791 
Q 2906 2416 2648 2759 
Q 2391 3103 1925 3103 
Q 1463 3103 1205 2759 
Q 947 2416 947 1791 
Q 947 1169 1205 825 
Q 1463 481 1925 481 
Q 2391 481 2648 825 
Q 2906 1169 2906 1791 
z
M 3481 434 
Q 3481 -459 3084 -895 
Q 2688 -1331 1869 -1331 
Q 1566 -1331 1297 -1286 
Q 1028 -1241 775 -1147 
L 775 -588 
Q 1028 -725 1275 -790 
Q 1522 -856 1778 -856 
Q 2344 -856 2625 -561 
Q 2906 -266 2906 331 
L 2906 616 
Q 2728 306 2450 153 
Q 2172 0 1784 0 
Q 1141 0 747 490 
Q 353 981 353 1791 
Q 353 2603 747 3093 
Q 1141 3584 1784 3584 
Q 2172 3584 2450 3431 
Q 2728 3278 2906 2969 
L 2906 3500 
L 3481 3500 
L 3481 434 
z
" transform="scale(0.015625)"/>
      </defs>
      <use xlink:href="#DejaVuSans-61"/>
      <use xlink:href="#DejaVuSans-67" transform="translate(61.279297 0)"/>
      <use xlink:href="#DejaVuSans-67" transform="translate(124.755859 0)"/>
      <use xlink:href="#DejaVuSans-72" transform="translate(188.232422 0)"/>
      <use xlink:href="#DejaVuSans-65" transform="translate(227.095703 0)"/>
      <use xlink:href="#DejaVuSans-67" transform="translate(288.619141 0)"/>
      <use xlink:href="#DejaVuSans-61" transform="translate(352.095703 0)"/>
      <use xlink:href="#DejaVuSans-74" transform="translate(413.375 0)"/>
      <use xlink:href="#DejaVuSans-65" transform="translate(452.583984 0)"/>
      <use xlink:href="#DejaVuSans-5f" transform="translate(514.107422 0)"/>
      <use xlink:href="#DejaVuSans-65" transform="translate(564.107422 0)"/>
      <use xlink:href="#DejaVuSans-76" transform="translate(625.630859 0)"/>
      <use xlink:href="#DejaVuSans-69" transform="translate(684.810547 0)"/>
      <use xlink:href="#DejaVuSans-64" transform="translate(712.59375 0)"/>
      <use xlink:href="#DejaVuSans-65" transform="translate(776.070312 0)"/>
      <use xlink:href="#DejaVuSans-6e" transform="translate(837.59375 0)"/>
      <use xlink:href="#DejaVuSans-63" transform="translate(900.972656 0)"/>
      <use xlink:href="#DejaVuSans-65" transform="translate(955.953125 0)"/>
     </g>
    </g>
   </g>
   <g id="text_9">
    <g clip-path="url(#ped5b97af47)">
     <!-- evaluate_evidence -->
     <g transform="translate(580.729151 294.734062) scale(0.08 -0.08)">
      <use xlink:href="#DejaVuSans-65"/>
      <use xlink:href="#DejaVuSans-76" transform="translate(61.523438 0)"/>
      <use xlink:href="#DejaVuSans-61" transform="translate(120.703125 0)"/>
      <use xlink:href="#DejaVuSans-6c" transform="translate(181.982422 0)"/>
      <use xlink:href="#DejaVuSans-75" transform="translate(209.765625 0)"/>
      <use xlink:href="#DejaVuSans-61" transform="translate(273.144531 0)"/>
      <use xlink:href="#DejaVuSans-74" transform="translate(334.423828 0)"/>
      <use xlink:href="#DejaVuSans-65" transform="translate(373.632812 0)"/>
      <use xlink:href="#DejaVuSans-5f" transform="translate(435.15625 0)"/>
      <use xlink:href="#DejaVuSans-65" transform="translate(485.15625 0)"/>
      <use xlink:href="#DejaVuSans-76" transform="translate(546.679688 0)"/>
      <use xlink:href="#DejaVuSans-69" transform="translate(605.859375 0)"/>
      <use xlink:href="#DejaVuSans-64" transform="translate(633.642578 0)"/>
      <use xlink:href="#DejaVuSans-65" transform="translate(697.119141 0)"/>
      <use xlink:href="#DejaVuSans-6e" transform="translate(758.642578 0)"/>
      <use xlink:href="#DejaVuSans-63" transform="translate(822.021484 0)"/>
      <use xlink:href="#DejaVuSans-65" transform="translate(877.001953 0)"/>
     </g>
    </g>
   </g>
   <g id="text_10">
    <g clip-path="url(#ped5b97af47)">
     <!-- check_evidence_quality -->
     <g transform="translate(539.095647 250.30431) scale(0.08 -0.08)">
      <defs>
       <path id="DejaVuSans-71" d="M 947 1747 
Q 947 1113 1208 752 
Q 1469 391 1925 391 
Q 2381 391 2643 752 
Q 2906 1113 2906 1747 
Q 2906 2381 2643 2742 
Q 2381 3103 1925 3103 
Q 1469 3103 1208 2742 
Q 947 2381 947 1747 
z
M 2906 525 
Q 2725 213 2448 61 
Q 2172 -91 1784 -91 
Q 1150 -91 751 415 
Q 353 922 353 1747 
Q 353 2572 751 3078 
Q 1150 3584 1784 3584 
Q 2172 3584 2448 3432 
Q 2725 3281 2906 2969 
L 2906 3500 
L 3481 3500 
L 3481 -1331 
L 2906 -1331 
L 2906 525 
z
" transform="scale(0.015625)"/>
      </defs>
      <use xlink:href="#DejaVuSans-63"/>
      <use xlink:href="#DejaVuSans-68" transform="translate(54.980469 0)"/>
      <use xlink:href="#DejaVuSans-65" transform="translate(118.359375 0)"/>
      <use xlink:href="#DejaVuSans-63" transform="translate(179.882812 0)"/>
      <use xlink:href="#DejaVuSans-6b" transform="translate(234.863281 0)"/>
      <use xlink:href="#DejaVuSans-5f" transform="translate(292.773438 0)"/>
      <use xlink:href="#DejaVuSans-65" transform="translate(342.773438 0)"/>
      <use xlink:href="#DejaVuSans-76" transform="translate(404.296875 0)"/>
      <use xlink:href="#DejaVuSans-69" transform="translate(463.476562 0)"/>
      <use xlink:href="#DejaVuSans-64" transform="translate(491.259766 0)"/>
      <use xlink:href="#DejaVuSans-65" transform="translate(554.736328 0)"/>
      <use xlink:href="#DejaVuSans-6e" transform="translate(616.259766 0)"/>
      <use xlink:href="#DejaVuSans-63" transform="translate(679.638672 0)"/>
      <use xlink:href="#DejaVuSans-65" transform="translate(734.619141 0)"/>
      <use xlink:href="#DejaVuSans-5f" transform="translate(796.142578 0)"/>
      <use xlink:href="#DejaVuSans-71" transform="translate(846.142578 0)"/>
      <use xlink:href="#DejaVuSans-75" transform="translate(909.619141 0)"/>
      <use xlink:href="#DejaVuSans-61" transform="translate(972.998047 0)"/>
      <use xlink:href="#DejaVuSans-6c" transform="translate(1034.277344 0)"/>
      <use xlink:href="#DejaVuSans-69" transform="translate(1062.060547 0)"/>
      <use xlink:href="#DejaVuSans-74" transform="translate(1089.84375 0)"/>
      <use xlink:href="#DejaVuSans-79" transform="translate(1129.052734 0)"/>
     </g>
    </g>
   </g>
   <g id="text_11">
    <g clip-path="url(#ped5b97af47)">
     <!-- request_additional_sources -->
     <g transform="translate(405.611629 72.585302) scale(0.08 -0.08)">
      <use xlink:href="#DejaVuSans-72"/>
      <use xlink:href="#DejaVuSans-65" transform="translate(38.863281 0)"/>
      <use xlink:href="#DejaVuSans-71" transform="translate(100.386719 0)"/>
      <use xlink:href="#DejaVuSans-75" transform="translate(163.863281 0)"/>
      <use xlink:href="#DejaVuSans-65" transform="translate(227.242188 0)"/>
      <use xlink:href="#DejaVuSans-73" transform="translate(288.765625 0)"/>
      <use xlink:href="#DejaVuSans-74" transform="translate(340.865234 0)"/>
      <use xlink:href="#DejaVuSans-5f" transform="translate(380.074219 0)"/>
      <use xlink:href="#DejaVuSans-61" transform="translate(430.074219 0)"/>
      <use xlink:href="#DejaVuSans-64" transform="translate(491.353516 0)"/>
      <use xlink:href="#DejaVuSans-64" transform="translate(554.830078 0)"/>
      <use xlink:href="#DejaVuSans-69" transform="translate(618.306641 0)"/>
      <use xlink:href="#DejaVuSans-74" transform="translate(646.089844 0)"/>
      <use xlink:href="#DejaVuSans-69" transform="translate(685.298828 0)"/>
      <use xlink:href="#DejaVuSans-6f" transform="translate(713.082031 0)"/>
      <use xlink:href="#DejaVuSans-6e" transform="translate(774.263672 0)"/>
      <use xlink:href="#DejaVuSans-61" transform="translate(837.642578 0)"/>
      <use xlink:href="#DejaVuSans-6c" transform="translate(898.921875 0)"/>
      <use xlink:href="#DejaVuSans-5f" transform="translate(926.705078 0)"/>
      <use xlink:href="#DejaVuSans-73" transform="translate(976.705078 0)"/>
      <use xlink:href="#DejaVuSans-6f" transform="translate(1028.804688 0)"/>
      <use xlink:href="#DejaVuSans-75" transform="translate(1089.986328 0)"/>
      <use xlink:href="#DejaVuSans-72" transform="translate(1153.365234 0)"/>
      <use xlink:href="#DejaVuSans-63" transform="translate(1192.228516 0)"/>
      <use xlink:href="#DejaVuSans-65" transform="translate(1247.208984 0)"/>
      <use xlink:href="#DejaVuSans-73" transform="translate(1308.732422 0)"/>
     </g>
    </g>
   </g>
   <g id="text_12">
    <g clip-path="url(#ped5b97af47)">
     <!-- generate_verdicts -->
     <g transform="translate(234.146228 339.163815) scale(0.08 -0.08)">
      <use xlink:href="#DejaVuSans-67"/>
      <use xlink:href="#DejaVuSans-65" transform="translate(63.476562 0)"/>
      <use xlink:href="#DejaVuSans-6e" transform="translate(125 0)"/>
      <use xlink:href="#DejaVuSans-65" transform="translate(188.378906 0)"/>
      <use xlink:href="#DejaVuSans-72" transform="translate(249.902344 0)"/>
      <use xlink:href="#DejaVuSans-61" transform="translate(291.015625 0)"/>
      <use xlink:href="#DejaVuSans-74" transform="translate(352.294922 0)"/>
      <use xlink:href="#DejaVuSans-65" transform="translate(391.503906 0)"/>
      <use xlink:href="#DejaVuSans-5f" transform="translate(453.027344 0)"/>
      <use xlink:href="#DejaVuSans-76" transform="translate(503.027344 0)"/>
      <use xlink:href="#DejaVuSans-65" transform="translate(562.207031 0)"/>
      <use xlink:href="#DejaVuSans-72" transform="translate(623.730469 0)"/>
      <use xlink:href="#DejaVuSans-64" transform="translate(663.09375 0)"/>
      <use xlink:href="#DejaVuSans-69" transform="translate(726.570312 0)"/>
      <use xlink:href="#DejaVuSans-63" transform="translate(754.353516 0)"/>
      <use xlink:href="#DejaVuSans-74" transform="translate(809.333984 0)"/>
      <use xlink:href="#DejaVuSans-73" transform="translate(848.542969 0)"/>
     </g>
    </g>
   </g>
   <g id="text_13">
    <g clip-path="url(#ped5b97af47)">
     <!-- review_verdicts -->
     <g transform="translate(397.268125 205.874558) scale(0.08 -0.08)">
      <use xlink:href="#DejaVuSans-72"/>
      <use xlink:href="#DejaVuSans-65" transform="translate(38.863281 0)"/>
      <use xlink:href="#DejaVuSans-76" transform="translate(100.386719 0)"/>
      <use xlink:href="#DejaVuSans-69" transform="translate(159.566406 0)"/>
      <use xlink:href="#DejaVuSans-65" transform="translate(187.349609 0)"/>
      <use xlink:href="#DejaVuSans-77" transform="translate(248.873047 0)"/>
      <use xlink:href="#DejaVuSans-5f" transform="translate(330.660156 0)"/>
      <use xlink:href="#DejaVuSans-76" transform="translate(380.660156 0)"/>
      <use xlink:href="#DejaVuSans-65" transform="translate(439.839844 0)"/>
      <use xlink:href="#DejaVuSans-72" transform="translate(501.363281 0)"/>
      <use xlink:href="#DejaVuSans-64" transform="translate(540.726562 0)"/>
      <use xlink:href="#DejaVuSans-69" transform="translate(604.203125 0)"/>
      <use xlink:href="#DejaVuSans-63" transform="translate(631.986328 0)"/>
      <use xlink:href="#DejaVuSans-74" transform="translate(686.966797 0)"/>
      <use xlink:href="#DejaVuSans-73" transform="translate(726.175781 0)"/>
     </g>
    </g>
   </g>
   <g id="text_14">
    <g clip-path="url(#ped5b97af47)">
     <!-- generate_report -->
     <g transform="translate(427.708504 161.333556) scale(0.08 -0.08)">
      <use xlink:href="#DejaVuSans-67"/>
      <use xlink:href="#DejaVuSans-65" transform="translate(63.476562 0)"/>
      <use xlink:href="#DejaVuSans-6e" transform="translate(125 0)"/>
      <use xlink:href="#DejaVuSans-65" transform="translate(188.378906 0)"/>
      <use xlink:href="#DejaVuSans-72" transform="translate(249.902344 0)"/>
      <use xlink:href="#DejaVuSans-61" transform="translate(291.015625 0)"/>
      <use xlink:href="#DejaVuSans-74" transform="translate(352.294922 0)"/>
      <use xlink:href="#DejaVuSans-65" transform="translate(391.503906 0)"/>
      <use xlink:href="#DejaVuSans-5f" transform="translate(453.027344 0)"/>
      <use xlink:href="#DejaVuSans-72" transform="translate(503.027344 0)"/>
      <use xlink:href="#DejaVuSans-65" transform="translate(541.890625 0)"/>
      <use xlink:href="#DejaVuSans-70" transform="translate(603.414062 0)"/>
      <use xlink:href="#DejaVuSans-6f" transform="translate(666.890625 0)"/>
      <use xlink:href="#DejaVuSans-72" transform="translate(728.072266 0)"/>
      <use xlink:href="#DejaVuSans-74" transform="translate(769.185547 0)"/>
     </g>
    </g>
   </g>
   <g id="text_15">
    <g clip-path="url(#ped5b97af47)">
     <!-- complete -->
     <g transform="translate(441.361004 117.126304) scale(0.08 -0.08)">
      <use xlink:href="#DejaVuSans-63"/>
      <use xlink:href="#DejaVuSans-6f" transform="translate(54.980469 0)"/>
      <use xlink:href="#DejaVuSans-6d" transform="translate(116.162109 0)"/>
      <use xlink:href="#DejaVuSans-70" transform="translate(213.574219 0)"/>
      <use xlink:href="#DejaVuSans-6c" transform="translate(277.050781 0)"/>
      <use xlink:href="#DejaVuSans-65" transform="translate(304.833984 0)"/>
      <use xlink:href="#DejaVuSans-74" transform="translate(366.357422 0)"/>
      <use xlink:href="#DejaVuSans-65" transform="translate(405.566406 0)"/>
     </g>
    </g>
   </g>
   <g id="text_16">
    <!-- fact_check -->
    <g transform="translate(386.950156 17.837812) scale(0.14 -0.14)">
     <defs>
      <path id="DejaVuSans-Bold-66" d="M 2841 4863 
L 2841 4128 
L 2222 4128 
Q 1984 4128 1890 4042 
Q 1797 3956 1797 3744 
L 1797 3500 
L 2753 3500 
L 2753 2700 
L 1797 2700 
L 1797 0 
L 678 0 
L 678 2700 
L 122 2700 
L 122 3500 
L 678 3500 
L 678 3744 
Q 678 4316 997 4589 
Q 1316 4863 1984 4863 
L 2841 4863 
z
" transform="scale(0.015625)"/>
      <path id="DejaVuSans-Bold-61" d="M 2106 1575 
Q 1756 1575 1579 1456 
Q 1403 1338 1403 1106 
Q 1403 894 1545 773 
Q 1688 653 1941 653 
Q 2256 653 2472 879 
Q 2688 1106 2688 1447 
L 2688 1575 
L 2106 1575 
z
M 3816 1997 
L 3816 0 
L 2688 0 
L 2688 519 
Q 2463 200 2181 54 
Q 1900 -91 1497 -91 
Q 953 -91 614 226 
Q 275 544 275 1050 
Q 275 1666 698 1953 
Q 1122 2241 2028 2241 
L 2688 2241 
L 2688 2328 
Q 2688 2594 2478 2717 
Q 2269 2841 1825 2841 
Q 1466 2841 1156 2769 
Q 847 2697 581 2553 
L 581 3406 
Q 941 3494 1303 3539 
Q 1666 3584 2028 3584 
Q 2975 3584 3395 3211 
Q 3816 2838 3816 1997 
z
" transform="scale(0.015625)"/>
      <path id="DejaVuSans-Bold-63" d="M 3366 3391 
L 3366 2478 
Q 3138 2634 2908 2709 
Q 2678 2784 2431 2784 
Q 1963 2784 1702 2511 
Q 1441 2238 1441 1747 
Q 1441 1256 1702 982 
Q 1963 709 2431 709 
Q 2694 709 2930 787 
Q 3166 866 3366 1019 
L 3366 103 
Q 3103 6 2833 -42 
Q 2563 -91 2291 -91 
Q 1344 -91 809 395 
Q 275 881 275 1747 
Q 275 2613 809 3098 
Q 1344 3584 2291 3584 
Q 2566 3584 2833 3536 
Q 3100 3488 3366 3391 
z
" transform="scale(0.015625)"/>
      <path id="DejaVuSans-Bold-74" d="M 1759 4494 
L 1759 3500 
L 2913 3500 
L 2913 2700 
L 1759 2700 
L 1759 1216 
Q 1759 972 1856 886 
Q 1953 800 2241 800 
L 2816 800 
L 2816 0 
L 1856 0 
Q 1194 0 917 276 
Q 641 553 641 1216 
L 641 2700 
L 84 2700 
L 84 3500 
L 641 3500 
L 641 4494 
L 1759 4494 
z
" transform="scale(0.015625)"/>
      <path id="DejaVuSans-Bold-5f" d="M 3200 -916 
L 3200 -1509 
L 0 -1509 
L 0 -916 
L 3200 -916 
z
" transform="scale(0.015625)"/>
      <path id="DejaVuSans-Bold-68" d="M 4056 2131 
L 4056 0 
L 2931 0 
L 2931 347 
L 2931 1625 
Q 2931 2084 2911 2256 
Q 2891 2428 2841 2509 
Q 2775 2619 2662 2680 
Q 2550 2741 2406 2741 
Q 2056 2741 1856 2470 
Q 1656 2200 1656 1722 
L 1656 0 
L 538 0 
L 538 4863 
L 1656 4863 
L 1656 2988 
Q 1909 3294 2193 3439 
Q 2478 3584 2822 3584 
Q 3428 3584 3742 3212 
Q 4056 2841 4056 2131 
z
" transform="scale(0.015625)"/>
      <path id="DejaVuSans-Bold-65" d="M 4031 1759 
L 4031 1441 
L 1416 1441 
Q 1456 1047 1700 850 
Q 1944 653 2381 653 
Q 2734 653 3104 758 
Q 3475 863 3866 1075 
L 3866 213 
Q 3469 63 3072 -14 
Q 2675 -91 2278 -91 
Q 1328 -91 801 392 
Q 275 875 275 1747 
Q 275 2603 792 3093 
Q 1309 3584 2216 3584 
Q 3041 3584 3536 3087 
Q 4031 2591 4031 1759 
z
M 2881 2131 
Q 2881 2450 2695 2645 
Q 2509 2841 2209 2841 
Q 1884 2841 1681 2658 
Q 1478 2475 1428 2131 
L 2881 2131 
z
" transform="scale(0.015625)"/>
      <path id="DejaVuSans-Bold-6b" d="M 538 4863 
L 1656 4863 
L 1656 2216 
L 2944 3500 
L 4244 3500 
L 2534 1894 
L 4378 0 
L 3022 0 
L 1656 1459 
L 1656 0 
L 538 0 
L 538 4863 
z
" transform="scale(0.015625)"/>
     </defs>
     <use xlink:href="#DejaVuSans-Bold-66"/>
     <use xlink:href="#DejaVuSans-Bold-61" transform="translate(43.505859 0)"/>
     <use xlink:href="#DejaVuSans-Bold-63" transform="translate(110.986328 0)"/>
     <use xlink:href="#DejaVuSans-Bold-74" transform="translate(170.263672 0)"/>
     <use xlink:href="#DejaVuSans-Bold-5f" transform="translate(218.066406 0)"/>
     <use xlink:href="#DejaVuSans-Bold-63" transform="translate(268.066406 0)"/>
     <use xlink:href="#DejaVuSans-Bold-68" transform="translate(327.34375 0)"/>
     <use xlink:href="#DejaVuSans-Bold-65" transform="translate(398.535156 0)"/>
     <use xlink:href="#DejaVuSans-Bold-63" transform="translate(466.357422 0)"/>
     <use xlink:href="#DejaVuSans-Bold-6b" transform="translate(525.634766 0)"/>
    </g>
   </g>
  </g>
 </g>
 <defs>
  <clipPath id="ped5b97af47">
   <rect x="7.2" y="23.837812" width="842.4" height="537.6"/>
  </clipPath>
 </defs>
</svg>
