<?xml version="1.0" encoding="utf-8" standalone="no"?>
<!DOCTYPE svg PUBLIC "-//W3C//DTD SVG 1.1//EN"
  "http://www.w3.org/Graphics/SVG/1.1/DTD/svg11.dtd">
<svg xmlns:xlink="http://www.w3.org/1999/xlink" width="856.8pt" height="568.637812pt" viewBox="0 0 856.8 568.637812" xmlns="http://www.w3.org/2000/svg" version="1.1">
 <metadata>
  <rdf:RDF xmlns:dc="http://purl.org/dc/elements/1.1/" xmlns:cc="http://creativecommons.org/ns#" xmlns:rdf="http://www.w3.org/1999/02/22-rdf-syntax-ns#">
   <cc:Work>
    <dc:type rdf:resource="http://purl.org/dc/dcmitype/StillImage"/>
    <dc:date>2026-01-03T04:01:02.043429</dc:date>
    <dc:format>image/svg+xml</dc:format>
    <dc:creator>
     <cc:Agent>
      <dc:title>Matplotlib v3.10.8, https://matplotlib.org/</dc:title>
     </cc:Agent>
    </dc:creator>
   </cc:Work>
  </rdf:RDF>
 </metadata>
 <defs>
  <style type="text/css">*{stroke-linejoin: round; stroke-linecap: butt}</style>
 </defs>
 <g id="figure_1">
  <g id="patch_1">
   <path d="M 0 568.637812 
L 856.8 568.637812 
L 856.8 0 
L 0 0 
z
" style="fill: #ffffff"/>
  </g>
  <g id="axes_1">
   <g id="patch_2">
    <path d="M 88.961344 514.786573 
Q 428.401412 514.786573 766.723446 514.786573 
" clip-path="url(#p74c3ae2d62)" style="fill: none; stroke: #666666; stroke-linecap: round"/>
    <path d="M 762.723446 512.786573 
L 766.723446 514.786573 
L 762.723446 516.786573 
z
" clip-path="url(#p74c3ae2d62)" style="fill: #666666; stroke: #666666; stroke-linecap: round"/>
   </g>
   <g id="patch_3">
    <path d="M 771.404617 507.783931 
Q 751.636192 480.611552 732.525509 454.343263 
" clip-path="url(#p74c3ae2d62)" style="fill: none; stroke: #666666; stroke-linecap: round"/>
    <path d="M 733.261435 458.754432 
L 732.525509 454.343263 
L 736.496 456.401224 
z
" clip-path="url(#p74c3ae2d62)" style="fill: #666666; stroke: #666666; stroke-linecap: round"/>
   </g>
   <g id="patch_4">
    <path d="M 110.261886 473.604069 
Q 142.461614 429.344438 174.003601 385.988895 
" clip-path="url(#p74c3ae2d62)" style="fill: none; stroke: #666666; stroke-linecap: round"/>
    <path d="M 170.03311 388.046856 
L 174.003601 385.988895 
L 173.267676 390.400064 
z
" clip-path="url(#p74c3ae2d62)" style="fill: #666666; stroke: #666666; stroke-linecap: round"/>
   </g>
   <g id="patch_5">
    <path d="M 184.852289 385.082286 
Q 192.189897 395.168079 198.869763 404.349784 
" clip-path="url(#p74c3ae2d62)" style="fill: none; stroke: #666666; stroke-linecap: round"/>
    <path d="M 198.133838 399.938615 
L 198.869763 404.349784 
L 194.899273 402.291823 
z
" clip-path="url(#p74c3ae2d62)" style="fill: #666666; stroke: #666666; stroke-linecap: round"/>
   </g>
   <g id="patch_6">
    <path d="M 213.262559 412.821938 
Q 465.697313 429.344806 717.016421 445.79465 
" clip-path="url(#p74c3ae2d62)" style="fill: none; stroke: #666666; stroke-linecap: round"/>
    <path d="M 713.15559 443.537664 
L 717.016421 445.79465 
L 712.894333 447.529123 
z
" clip-path="url(#p74c3ae2d62)" style="fill: #666666; stroke: #666666; stroke-linecap: round"/>
   </g>
   <g id="patch_7">
    <path d="M 721.673888 439.427337 
Q 689.474159 395.167706 657.932172 351.812163 
" clip-path="url(#p74c3ae2d62)" style="fill: none; stroke: #666666; stroke-linecap: round"/>
    <path d="M 658.668098 356.223332 
L 657.932172 351.812163 
L 661.902663 353.870124 
z
" clip-path="url(#p74c3ae2d62)" style="fill: #666666; stroke: #666666; stroke-linecap: round"/>
   </g>
   <g id="patch_8">
    <path d="M 647.083484 336.900269 
Q 639.745876 326.814475 633.06601 317.63277 
" clip-path="url(#p74c3ae2d62)" style="fill: none; stroke: #666666; stroke-linecap: round"/>
    <path d="M 633.801935 322.043939 
L 633.06601 317.63277 
L 637.036501 319.690731 
z
" clip-path="url(#p74c3ae2d62)" style="fill: #666666; stroke: #666666; stroke-linecap: round"/>
   </g>
   <g id="patch_9">
    <path d="M 618.775841 311.193146 
Q 428.397483 343.903344 239.121012 376.424219 
" clip-path="url(#p74c3ae2d62)" style="fill: none; stroke: #666666; stroke-linecap: round"/>
    <path d="M 243.401917 377.717994 
L 239.121012 376.424219 
L 242.724575 373.77576 
z
" clip-path="url(#p74c3ae2d62)" style="fill: #666666; stroke: #666666; stroke-linecap: round"/>
   </g>
   <g id="patch_10">
    <path d="M 622.21736 302.720929 
Q 540.289166 190.107817 459.018714 78.398793 
" clip-path="url(#p74c3ae2d62)" style="fill: none; stroke: #666666; stroke-linecap: round"/>
    <path d="M 459.75464 82.809962 
L 459.018714 78.398793 
L 462.989205 80.456754 
z
" clip-path="url(#p74c3ae2d62)" style="fill: #666666; stroke: #666666; stroke-linecap: round"/>
   </g>
   <g id="patch_11">
    <path d="M 448.167963 77.494041 
Q 341.373902 224.286141 235.237583 370.174152 
" clip-path="url(#p74c3ae2d62)" style="fill: none; stroke: #666666; stroke-linecap: round"/>
    <path d="M 239.208073 368.116191 
L 235.237583 370.174152 
L 235.973508 365.762983 
z
" clip-path="url(#p74c3ae2d62)" style="fill: #666666; stroke: #666666; stroke-linecap: round"/>
   </g>
   <g id="patch_12">
    <path d="M 236.167385 372.569521 
Q 291.646778 326.814525 346.26363 281.770882 
" clip-path="url(#p74c3ae2d62)" style="fill: none; stroke: #666666; stroke-linecap: round"/>
    <path d="M 341.905205 282.772943 
L 346.26363 281.770882 
L 344.450223 285.858859 
z
" clip-path="url(#p74c3ae2d62)" style="fill: #666666; stroke: #666666; stroke-linecap: round"/>
   </g>
   <g id="patch_13">
    <path d="M 358.901876 268.546804 
Q 366.239484 258.46101 372.91935 249.279305 
" clip-path="url(#p74c3ae2d62)" style="fill: none; stroke: #666666; stroke-linecap: round"/>
    <path d="M 368.948859 251.337267 
L 372.91935 249.279305 
L 372.183425 253.690475 
z
" clip-path="url(#p74c3ae2d62)" style="fill: #666666; stroke: #666666; stroke-linecap: round"/>
   </g>
   <g id="patch_14">
    <path d="M 383.766103 234.370072 
Q 391.103711 224.284278 397.783577 215.102573 
" clip-path="url(#p74c3ae2d62)" style="fill: none; stroke: #666666; stroke-linecap: round"/>
    <path d="M 393.813086 217.160534 
L 397.783577 215.102573 
L 397.047651 219.513742 
z
" clip-path="url(#p74c3ae2d62)" style="fill: #666666; stroke: #666666; stroke-linecap: round"/>
   </g>
   <g id="patch_15">
    <path d="M 408.63033 200.193339 
Q 415.967937 190.107546 422.647803 180.925841 
" clip-path="url(#p74c3ae2d62)" style="fill: none; stroke: #666666; stroke-linecap: round"/>
    <path d="M 418.677313 182.983802 
L 422.647803 180.925841 
L 421.911878 185.33701 
z
" clip-path="url(#p74c3ae2d62)" style="fill: #666666; stroke: #666666; stroke-linecap: round"/>
   </g>
   <g id="patch_16">
    <path d="M 433.494556 166.016607 
Q 440.832164 155.930813 447.51203 146.749108 
" clip-path="url(#p74c3ae2d62)" style="fill: none; stroke: #666666; stroke-linecap: round"/>
    <path d="M 443.54154 148.807069 
L 447.51203 146.749108 
L 446.776105 151.160277 
z
" clip-path="url(#p74c3ae2d62)" style="fill: #666666; stroke: #666666; stroke-linecap: round"/>
   </g>
   <g id="patch_17">
    <path d="M 453.264227 130.185691 
Q 453.264227 121.75434 453.264227 114.441023 
" clip-path="url(#p74c3ae2d62)" style="fill: none; stroke: #666666; stroke-linecap: round"/>
    <path d="M 451.264227 118.441023 
L 453.264227 114.441023 
L 455.264227 118.441023 
z
" clip-path="url(#p74c3ae2d62)" style="fill: #666666; stroke: #666666; stroke-linecap: round"/>
   </g>
   <g id="text_1">
    <g id="patch_18">
     <path d="M 422.247757 350.52772 
L 436.405612 348.095163 
Q 438.475285 347.739559 438.119681 345.669886 
L 436.972485 338.993035 
Q 436.616881 336.923362 434.547208 337.278967 
L 420.389353 339.711524 
Q 418.31968 340.067129 418.675285 342.136801 
L 419.82248 348.813652 
Q 420.178084 350.883325 422.247757 350.52772 
z
" clip-path="url(#p74c3ae2d62)" style="fill: #ffffff; stroke: #ffffff; stroke-linejoin: miter"/>
    </g>
    <g clip-path="url(#p74c3ae2d62)">
     <!-- true -->
     <g transform="translate(421.645637 347.02329) rotate(-9.749185) scale(0.07 -0.07)">
      <defs>
       <path id="DejaVuSans-74" d="M 1172 4494 
L 1172 3500 
L 2356 3500 
L 2356 3053 
L 1172 3053 
L 1172 1153 
Q 1172 725 1289 603 
Q 1406 481 1766 481 
L 2356 481 
L 2356 0 
L 1766 0 
Q 1100 0 847 248 
Q 594 497 594 1153 
L 594 3053 
L 172 3053 
L 172 3500 
L 594 3500 
L 594 4494 
L 1172 4494 
z
" transform="scale(0.015625)"/>
       <path id="DejaVuSans-72" d="M 2631 2963 
Q 2534 3019 2420 3045 
Q 2306 3072 2169 3072 
Q 1681 3072 1420 2755 
Q 1159 2438 1159 1844 
L 1159 0 
L 581 0 
L 581 3500 
L 1159 3500 
L 1159 2956 
Q 1341 3275 1631 3429 
Q 1922 3584 2338 3584 
Q 2397 3584 2469 3576 
Q 2541 3569 2628 3553 
L 2631 2963 
z
" transform="scale(0.015625)"/>
       <path id="DejaVuSans-75" d="M 544 1381 
L 544 3500 
L 1119 3500 
L 1119 1403 
Q 1119 906 1312 657 
Q 1506 409 1894 409 
Q 2359 409 2629 706 
Q 2900 1003 2900 1516 
L 2900 3500 
L 3475 3500 
L 3475 0 
L 2900 0 
L 2900 538 
Q 2691 219 2414 64 
Q 2138 -91 1772 -91 
Q 1169 -91 856 284 
Q 544 659 544 1381 
z
M 1991 3584 
L 1991 3584 
z
" transform="scale(0.015625)"/>
       <path id="DejaVuSans-65" d="M 3597 1894 
L 3597 1613 
L 953 1613 
Q 991 1019 1311 708 
Q 1631 397 2203 397 
Q 2534 397 2845 478 
Q 3156 559 3463 722 
L 3463 178 
Q 3153 47 2828 -22 
Q 2503 -91 2169 -91 
Q 1331 -91 842 396 
Q 353 884 353 1716 
Q 353 2575 817 3079 
Q 1281 3584 2069 3584 
Q 2775 3584 3186 3129 
Q 3597 2675 3597 1894 
z
M 3022 2063 
Q 3016 2534 2758 2815 
Q 2500 3097 2075 3097 
Q 1594 3097 1305 2825 
Q 1016 2553 972 2059 
L 3022 2063 
z
" transform="scale(0.015625)"/>
      </defs>
      <use xlink:href="#DejaVuSans-74"/>
      <use xlink:href="#DejaVuSans-72" transform="translate(39.208984 0)"/>
      <use xlink:href="#DejaVuSans-75" transform="translate(80.322266 0)"/>
      <use xlink:href="#DejaVuSans-65" transform="translate(143.701172 0)"/>
     </g>
    </g>
   </g>
   <g id="text_2">
    <g id="patch_19">
     <path d="M 530.95357 186.603146 
L 540.750177 200.068918 
Q 541.985612 201.767065 543.683758 200.531631 
L 549.16205 196.546069 
Q 550.860197 195.310634 549.624763 193.612488 
L 539.828156 180.146715 
Q 538.592721 178.448568 536.894575 179.684002 
L 531.416283 183.669565 
Q 529.718136 184.904999 530.95357 186.603146 
z
" clip-path="url(#p74c3ae2d62)" style="fill: #ffffff; stroke: #ffffff; stroke-linejoin: miter"/>
    </g>
    <g clip-path="url(#p74c3ae2d62)">
     <!-- false -->
     <g transform="translate(533.828922 184.511272) rotate(-306.036606) scale(0.07 -0.07)">
      <defs>
       <path id="DejaVuSans-66" d="M 2375 4863 
L 2375 4384 
L 1825 4384 
Q 1516 4384 1395 4259 
Q 1275 4134 1275 3809 
L 1275 3500 
L 2222 3500 
L 2222 3053 
L 1275 3053 
L 1275 0 
L 697 0 
L 697 3053 
L 147 3053 
L 147 3500 
L 697 3500 
L 697 3744 
Q 697 4328 969 4595 
Q 1241 4863 1831 4863 
L 2375 4863 
z
" transform="scale(0.015625)"/>
       <path id="DejaVuSans-61" d="M 2194 1759 
Q 1497 1759 1228 1600 
Q 959 1441 959 1056 
Q 959 750 1161 570 
Q 1363 391 1709 391 
Q 2188 391 2477 730 
Q 2766 1069 2766 1631 
L 2766 1759 
L 2194 1759 
z
M 3341 1997 
L 3341 0 
L 2766 0 
L 2766 531 
Q 2569 213 2275 61 
Q 1981 -91 1556 -91 
Q 1019 -91 701 211 
Q 384 513 384 1019 
Q 384 1609 779 1909 
Q 1175 2209 1959 2209 
L 2766 2209 
L 2766 2266 
Q 2766 2663 2505 2880 
Q 2244 3097 1772 3097 
Q 1472 3097 1187 3025 
Q 903 2953 641 2809 
L 641 3341 
Q 956 3463 1253 3523 
Q 1550 3584 1831 3584 
Q 2591 3584 2966 3190 
Q 3341 2797 3341 1997 
z
" transform="scale(0.015625)"/>
       <path id="DejaVuSans-6c" d="M 603 4863 
L 1178 4863 
L 1178 0 
L 603 0 
L 603 4863 
z
" transform="scale(0.015625)"/>
       <path id="DejaVuSans-73" d="M 2834 3397 
L 2834 2853 
Q 2591 2978 2328 3040 
Q 2066 3103 1784 3103 
Q 1356 3103 1142 2972 
Q 928 2841 928 2578 
Q 928 2378 1081 2264 
Q 1234 2150 1697 2047 
L 1894 2003 
Q 2506 1872 2764 1633 
Q 3022 1394 3022 966 
Q 3022 478 2636 193 
Q 2250 -91 1575 -91 
Q 1294 -91 989 -36 
Q 684 19 347 128 
L 347 722 
Q 666 556 975 473 
Q 1284 391 1588 391 
Q 1994 391 2212 530 
Q 2431 669 2431 922 
Q 2431 1156 2273 1281 
Q 2116 1406 1581 1522 
L 1381 1569 
Q 847 1681 609 1914 
Q 372 2147 372 2553 
Q 372 3047 722 3315 
Q 1072 3584 1716 3584 
Q 2034 3584 2315 3537 
Q 2597 3491 2834 3397 
z
" transform="scale(0.015625)"/>
      </defs>
      <use xlink:href="#DejaVuSans-66"/>
      <use xlink:href="#DejaVuSans-61" transform="translate(35.205078 0)"/>
      <use xlink:href="#DejaVuSans-6c" transform="translate(96.484375 0)"/>
      <use xlink:href="#DejaVuSans-73" transform="translate(124.267578 0)"/>
      <use xlink:href="#DejaVuSans-65" transform="translate(176.367188 0)"/>
     </g>
    </g>
   </g>
   <g id="PathCollection_1">
    <defs>
     <path id="C0_0_7faf3cad9d" d="M 0 22.36068 
C 5.930122 22.36068 11.618159 20.004617 15.811388 15.811388 
C 20.004617 11.618159 22.36068 5.930122 22.36068 -0 
C 22.36068 -5.930122 20.004617 -11.618159 15.811388 -15.811388 
C 11.618159 -20.004617 5.930122 -22.36068 0 -22.36068 
C -5.930122 -22.36068 -11.618159 -20.004617 -15.811388 -15.811388 
C -20.004617 -11.618159 -22.36068 -5.930122 -22.36068 0 
C -22.36068 5.930122 -20.004617 11.618159 -15.811388 15.811388 
C -11.618159 20.004617 -5.930122 22.36068 0 22.36068 
z
"/>
    </defs>
    <g clip-path="url(#p74c3ae2d62)">
     <use xlink:href="#C0_0_7faf3cad9d" x="80.300826" y="514.786573" style="fill: #e3f2fd; stroke: #e3f2fd"/>
    </g>
    <g clip-path="url(#p74c3ae2d62)">
     <use xlink:href="#C0_0_7faf3cad9d" x="776.499174" y="514.786573" style="fill: #f3e5f5; stroke: #f3e5f5"/>
    </g>
    <g clip-path="url(#p74c3ae2d62)">
     <use xlink:href="#C0_0_7faf3cad9d" x="105.165053" y="480.60984" style="fill: #e3f2fd; stroke: #e3f2fd"/>
    </g>
    <g clip-path="url(#p74c3ae2d62)">
     <use xlink:href="#C0_0_7faf3cad9d" x="179.757733" y="378.079643" style="fill: #e3f2fd; stroke: #e3f2fd"/>
    </g>
    <g clip-path="url(#p74c3ae2d62)">
     <use xlink:href="#C0_0_7faf3cad9d" x="204.62196" y="412.256376" style="fill: #e3f2fd; stroke: #e3f2fd"/>
    </g>
    <g clip-path="url(#p74c3ae2d62)">
     <use xlink:href="#C0_0_7faf3cad9d" x="726.77072" y="446.433108" style="fill: #eceff1; stroke: #eceff1"/>
    </g>
    <g clip-path="url(#p74c3ae2d62)">
     <use xlink:href="#C0_0_7faf3cad9d" x="652.17804" y="343.902911" style="fill: #e3f2fd; stroke: #e3f2fd"/>
    </g>
    <g clip-path="url(#p74c3ae2d62)">
     <use xlink:href="#C0_0_7faf3cad9d" x="627.313813" y="309.726179" style="fill: #fff3e0; stroke: #fff3e0"/>
    </g>
    <g clip-path="url(#p74c3ae2d62)">
     <use xlink:href="#C0_0_7faf3cad9d" x="453.264227" y="70.489052" style="fill: #ffebee; stroke: #ffebee"/>
    </g>
    <g clip-path="url(#p74c3ae2d62)">
     <use xlink:href="#C0_0_7faf3cad9d" x="229.486187" y="378.079643" style="fill: #e3f2fd; stroke: #e3f2fd"/>
    </g>
    <g clip-path="url(#p74c3ae2d62)">
     <use xlink:href="#C0_0_7faf3cad9d" x="353.80732" y="275.549446" style="fill: #e3f2fd; stroke: #e3f2fd"/>
    </g>
    <g clip-path="url(#p74c3ae2d62)">
     <use xlink:href="#C0_0_7faf3cad9d" x="378.671547" y="241.372714" style="fill: #e3f2fd; stroke: #e3f2fd"/>
    </g>
    <g clip-path="url(#p74c3ae2d62)">
     <use xlink:href="#C0_0_7faf3cad9d" x="403.535773" y="207.195982" style="fill: #e8f5e9; stroke: #e8f5e9"/>
    </g>
    <g clip-path="url(#p74c3ae2d62)">
     <use xlink:href="#C0_0_7faf3cad9d" x="428.4" y="173.019249" style="fill: #ffebee; stroke: #ffebee"/>
    </g>
    <g clip-path="url(#p74c3ae2d62)">
     <use xlink:href="#C0_0_7faf3cad9d" x="453.264227" y="138.842517" style="fill: #e3f2fd; stroke: #e3f2fd"/>
    </g>
    <g clip-path="url(#p74c3ae2d62)">
     <use xlink:href="#C0_0_7faf3cad9d" x="453.264227" y="104.665785" style="fill: #eceff1; stroke: #eceff1"/>
    </g>
   </g>
   <g id="text_3">
    <g clip-path="url(#p74c3ae2d62)">
     <!-- define_scope -->
     <g transform="translate(54.053326 516.882823) scale(0.08 -0.08)">
      <defs>
       <path id="DejaVuSans-64" d="M 2906 2969 
L 2906 4863 
L 3481 4863 
L 3481 0 
L 2906 0 
L 2906 525 
Q 2725 213 2448 61 
Q 2172 -91 1784 -91 
Q 1150 -91 751 415 
Q 353 922 353 1747 
Q 353 2572 751 3078 
Q 1150 3584 1784 3584 
Q 2172 3584 2448 3432 
Q 2725 3281 2906 2969 
z
M 947 1747 
Q 947 1113 1208 752 
Q 1469 391 1925 391 
Q 2381 391 2643 752 
Q 2906 1113 2906 1747 
Q 2906 2381 2643 2742 
Q 2381 3103 1925 3103 
Q 1469 3103 1208 2742 
Q 947 2381 947 1747 
z
" transform="scale(0.015625)"/>
       <path id="DejaVuSans-69" d="M 603 3500 
L 1178 3500 
L 1178 0 
L 603 0 
L 603 3500 
z
M 603 4863 
L 1178 4863 
L 1178 4134 
L 603 4134 
L 603 4863 
z
" transform="scale(0.015625)"/>
       <path id="DejaVuSans-6e" d="M 3513 2113 
L 3513 0 
L 2938 0 
L 2938 2094 
Q 2938 2591 2744 2837 
Q 2550 3084 2163 3084 
Q 1697 3084 1428 2787 
Q 1159 2491 1159 1978 
L 1159 0 
L 581 0 
L 581 3500 
L 1159 3500 
L 1159 2956 
Q 1366 3272 1645 3428 
Q 1925 3584 2291 3584 
Q 2894 3584 3203 3211 
Q 3513 2838 3513 2113 
z
" transform="scale(0.015625)"/>
       <path id="DejaVuSans-5f" d="M 3263 -1063 
L 3263 -1509 
L -63 -1509 
L -63 -1063 
L 3263 -1063 
z
" transform="scale(0.015625)"/>
       <path id="DejaVuSans-63" d="M 3122 3366 
L 3122 2828 
Q 2878 2963 2633 3030 
Q 2388 3097 2138 3097 
Q 1578 3097 1268 2742 
Q 959 2388 959 1747 
Q 959 1106 1268 751 
Q 1578 397 2138 397 
Q 2388 397 2633 464 
Q 2878 531 3122 666 
L 3122 134 
Q 2881 22 2623 -34 
Q 2366 -91 2075 -91 
Q 1284 -91 818 406 
Q 353 903 353 1747 
Q 353 2603 823 3093 
Q 1294 3584 2113 3584 
Q 2378 3584 2631 3529 
Q 2884 3475 3122 3366 
z
" transform="scale(0.015625)"/>
       <path id="DejaVuSans-6f" d="M 1959 3097 
Q 1497 3097 1228 2736 
Q 959 2375 959 1747 
Q 959 1119 1226 758 
Q 1494 397 1959 397 
Q 2419 397 2687 759 
Q 2956 1122 2956 1747 
Q 2956 2369 2687 2733 
Q 2419 3097 1959 3097 
z
M 1959 3584 
Q 2709 3584 3137 3096 
Q 3566 2609 3566 1747 
Q 3566 888 3137 398 
Q 2709 -91 1959 -91 
Q 1206 -91 779 398 
Q 353 888 353 1747 
Q 353 2609 779 3096 
Q 1206 3584 1959 3584 
z
" transform="scale(0.015625)"/>
       <path id="DejaVuSans-70" d="M 1159 525 
L 1159 -1331 
L 581 -1331 
L 581 3500 
L 1159 3500 
L 1159 2969 
Q 1341 3281 1617 3432 
Q 1894 3584 2278 3584 
Q 2916 3584 3314 3078 
Q 3713 2572 3713 1747 
Q 3713 922 3314 415 
Q 2916 -91 2278 -91 
Q 1894 -91 1617 61 
Q 1341 213 1159 525 
z
M 3116 1747 
Q 3116 2381 2855 2742 
Q 2594 3103 2138 3103 
Q 1681 3103 1420 2742 
Q 1159 2381 1159 1747 
Q 1159 1113 1420 752 
Q 1681 391 2138 391 
Q 2594 391 2855 752 
Q 3116 1113 3116 1747 
z
" transform="scale(0.015625)"/>
      </defs>
      <use xlink:href="#DejaVuSans-64"/>
      <use xlink:href="#DejaVuSans-65" transform="translate(63.476562 0)"/>
      <use xlink:href="#DejaVuSans-66" transform="translate(125 0)"/>
      <use xlink:href="#DejaVuSans-69" transform="translate(160.205078 0)"/>
      <use xlink:href="#DejaVuSans-6e" transform="translate(187.988281 0)"/>
      <use xlink:href="#DejaVuSans-65" transform="translate(251.367188 0)"/>
      <use xlink:href="#DejaVuSans-5f" transform="translate(312.890625 0)"/>
      <use xlink:href="#DejaVuSans-73" transform="translate(362.890625 0)"/>
      <use xlink:href="#DejaVuSans-63" transform="translate(414.990234 0)"/>
      <use xlink:href="#DejaVuSans-6f" transform="translate(469.970703 0)"/>
      <use xlink:href="#DejaVuSans-70" transform="translate(531.152344 0)"/>
      <use xlink:href="#DejaVuSans-65" transform="translate(594.628906 0)"/>
     </g>
    </g>
   </g>
   <g id="text_4">
    <g clip-path="url(#p74c3ae2d62)">
     <!-- parallel_database_search -->
     <g transform="translate(725.787299 516.882823) scale(0.08 -0.08)">
      <defs>
       <path id="DejaVuSans-62" d="M 3116 1747 
Q 3116 2381 2855 2742 
Q 2594 3103 2138 3103 
Q 1681 3103 1420 2742 
Q 1159 2381 1159 1747 
Q 1159 1113 1420 752 
Q 1681 391 2138 391 
Q 2594 391 2855 752 
Q 3116 1113 3116 1747 
z
M 1159 2969 
Q 1341 3281 1617 3432 
Q 1894 3584 2278 3584 
Q 2916 3584 3314 3078 
Q 3713 2572 3713 1747 
Q 3713 922 3314 415 
Q 2916 -91 2278 -91 
Q 1894 -91 1617 61 
Q 1341 213 1159 525 
L 1159 0 
L 581 0 
L 581 4863 
L 1159 4863 
L 1159 2969 
z
" transform="scale(0.015625)"/>
       <path id="DejaVuSans-68" d="M 3513 2113 
L 3513 0 
L 2938 0 
L 2938 2094 
Q 2938 2591 2744 2837 
Q 2550 3084 2163 3084 
Q 1697 3084 1428 2787 
Q 1159 2491 1159 1978 
L 1159 0 
L 581 0 
L 581 4863 
L 1159 4863 
L 1159 2956 
Q 1366 3272 1645 3428 
Q 1925 3584 2291 3584 
Q 2894 3584 3203 3211 
Q 3513 2838 3513 2113 
z
" transform="scale(0.015625)"/>
      </defs>
      <use xlink:href="#DejaVuSans-70"/>
      <use xlink:href="#DejaVuSans-61" transform="translate(63.476562 0)"/>
      <use xlink:href="#DejaVuSans-72" transform="translate(124.755859 0)"/>
      <use xlink:href="#DejaVuSans-61" transform="translate(165.869141 0)"/>
      <use xlink:href="#DejaVuSans-6c" transform="translate(227.148438 0)"/>
      <use xlink:href="#DejaVuSans-6c" transform="translate(254.931641 0)"/>
      <use xlink:href="#DejaVuSans-65" transform="translate(282.714844 0)"/>
      <use xlink:href="#DejaVuSans-6c" transform="translate(344.238281 0)"/>
      <use xlink:href="#DejaVuSans-5f" transform="translate(372.021484 0)"/>
      <use xlink:href="#DejaVuSans-64" transform="translate(422.021484 0)"/>
      <use xlink:href="#DejaVuSans-61" transform="translate(485.498047 0)"/>
      <use xlink:href="#DejaVuSans-74" transform="translate(546.777344 0)"/>
      <use xlink:href="#DejaVuSans-61" transform="translate(585.986328 0)"/>
      <use xlink:href="#DejaVuSans-62" transform="translate(647.265625 0)"/>
      <use xlink:href="#DejaVuSans-61" transform="translate(710.742188 0)"/>
      <use xlink:href="#DejaVuSans-73" transform="translate(772.021484 0)"/>
      <use xlink:href="#DejaVuSans-65" transform="translate(824.121094 0)"/>
      <use xlink:href="#DejaVuSans-5f" transform="translate(885.644531 0)"/>
      <use xlink:href="#DejaVuSans-73" transform="translate(935.644531 0)"/>
      <use xlink:href="#DejaVuSans-65" transform="translate(987.744141 0)"/>
      <use xlink:href="#DejaVuSans-61" transform="translate(1049.267578 0)"/>
      <use xlink:href="#DejaVuSans-72" transform="translate(1110.546875 0)"/>
      <use xlink:href="#DejaVuSans-63" transform="translate(1149.410156 0)"/>
      <use xlink:href="#DejaVuSans-68" transform="translate(1204.390625 0)"/>
     </g>
    </g>
   </g>
   <g id="text_5">
    <g clip-path="url(#p74c3ae2d62)">
     <!-- search_general -->
     <g transform="translate(74.676303 482.70609) scale(0.08 -0.08)">
      <defs>
       <path id="DejaVuSans-67" d="M 2906 1791 
Q 2906 2416 2648 2759 
Q 2391 3103 1925 3103 
Q 1463 3103 1205 2759 
Q 947 2416 947 1791 
Q 947 1169 1205 825 
Q 1463 481 1925 481 
Q 2391 481 2648 825 
Q 2906 1169 2906 1791 
z
M 3481 434 
Q 3481 -459 3084 -895 
Q 2688 -1331 1869 -1331 
Q 1566 -1331 1297 -1286 
Q 1028 -1241 775 -1147 
L 775 -588 
Q 1028 -725 1275 -790 
Q 1522 -856 1778 -856 
Q 2344 -856 2625 -561 
Q 2906 -266 2906 331 
L 2906 616 
Q 2728 306 2450 153 
Q 2172 0 1784 0 
Q 1141 0 747 490 
Q 353 981 353 1791 
Q 353 2603 747 3093 
Q 1141 3584 1784 3584 
Q 2172 3584 2450 3431 
Q 2728 3278 2906 2969 
L 2906 3500 
L 3481 3500 
L 3481 434 
z
" transform="scale(0.015625)"/>
      </defs>
      <use xlink:href="#DejaVuSans-73"/>
      <use xlink:href="#DejaVuSans-65" transform="translate(52.099609 0)"/>
      <use xlink:href="#DejaVuSans-61" transform="translate(113.623047 0)"/>
      <use xlink:href="#DejaVuSans-72" transform="translate(174.902344 0)"/>
      <use xlink:href="#DejaVuSans-63" transform="translate(213.765625 0)"/>
      <use xlink:href="#DejaVuSans-68" transform="translate(268.746094 0)"/>
      <use xlink:href="#DejaVuSans-5f" transform="translate(332.125 0)"/>
      <use xlink:href="#DejaVuSans-67" transform="translate(382.125 0)"/>
      <use xlink:href="#DejaVuSans-65" transform="translate(445.601562 0)"/>
      <use xlink:href="#DejaVuSans-6e" transform="translate(507.125 0)"/>
      <use xlink:href="#DejaVuSans-65" transform="translate(570.503906 0)"/>
      <use xlink:href="#DejaVuSans-72" transform="translate(632.027344 0)"/>
      <use xlink:href="#DejaVuSans-61" transform="translate(673.140625 0)"/>
      <use xlink:href="#DejaVuSans-6c" transform="translate(734.419922 0)"/>
     </g>
    </g>
   </g>
   <g id="text_6">
    <g clip-path="url(#p74c3ae2d62)">
     <!-- search_preprints -->
     <g transform="translate(146.435858 380.175893) scale(0.08 -0.08)">
      <use xlink:href="#DejaVuSans-73"/>
      <use xlink:href="#DejaVuSans-65" transform="translate(52.099609 0)"/>
      <use xlink:href="#DejaVuSans-61" transform="translate(113.623047 0)"/>
      <use xlink:href="#DejaVuSans-72" transform="translate(174.902344 0)"/>
      <use xlink:href="#DejaVuSans-63" transform="translate(213.765625 0)"/>
      <use xlink:href="#DejaVuSans-68" transform="translate(268.746094 0)"/>
      <use xlink:href="#DejaVuSans-5f" transform="translate(332.125 0)"/>
      <use xlink:href="#DejaVuSans-70" transform="translate(382.125 0)"/>
      <use xlink:href="#DejaVuSans-72" transform="translate(445.601562 0)"/>
      <use xlink:href="#DejaVuSans-65" transform="translate(484.464844 0)"/>
      <use xlink:href="#DejaVuSans-70" transform="translate(545.988281 0)"/>
      <use xlink:href="#DejaVuSans-72" transform="translate(609.464844 0)"/>
      <use xlink:href="#DejaVuSans-69" transform="translate(650.578125 0)"/>
      <use xlink:href="#DejaVuSans-6e" transform="translate(678.361328 0)"/>
      <use xlink:href="#DejaVuSans-74" transform="translate(741.740234 0)"/>
      <use xlink:href="#DejaVuSans-73" transform="translate(780.949219 0)"/>
     </g>
    </g>
   </g>
   <g id="text_7">
    <g clip-path="url(#p74c3ae2d62)">
     <!-- search_grey_lit -->
     <g transform="translate(174.623835 414.352626) scale(0.08 -0.08)">
      <defs>
       <path id="DejaVuSans-79" d="M 2059 -325 
Q 1816 -950 1584 -1140 
Q 1353 -1331 966 -1331 
L 506 -1331 
L 506 -850 
L 844 -850 
Q 1081 -850 1212 -737 
Q 1344 -625 1503 -206 
L 1606 56 
L 191 3500 
L 800 3500 
L 1894 763 
L 2988 3500 
L 3597 3500 
L 2059 -325 
z
" transform="scale(0.015625)"/>
      </defs>
      <use xlink:href="#DejaVuSans-73"/>
      <use xlink:href="#DejaVuSans-65" transform="translate(52.099609 0)"/>
      <use xlink:href="#DejaVuSans-61" transform="translate(113.623047 0)"/>
      <use xlink:href="#DejaVuSans-72" transform="translate(174.902344 0)"/>
      <use xlink:href="#DejaVuSans-63" transform="translate(213.765625 0)"/>
      <use xlink:href="#DejaVuSans-68" transform="translate(268.746094 0)"/>
      <use xlink:href="#DejaVuSans-5f" transform="translate(332.125 0)"/>
      <use xlink:href="#DejaVuSans-67" transform="translate(382.125 0)"/>
      <use xlink:href="#DejaVuSans-72" transform="translate(445.601562 0)"/>
      <use xlink:href="#DejaVuSans-65" transform="translate(484.464844 0)"/>
      <use xlink:href="#DejaVuSans-79" transform="translate(545.988281 0)"/>
      <use xlink:href="#DejaVuSans-5f" transform="translate(605.167969 0)"/>
      <use xlink:href="#DejaVuSans-6c" transform="translate(655.167969 0)"/>
      <use xlink:href="#DejaVuSans-69" transform="translate(682.951172 0)"/>
      <use xlink:href="#DejaVuSans-74" transform="translate(710.734375 0)"/>
     </g>
    </g>
   </g>
   <g id="text_8">
    <g clip-path="url(#p74c3ae2d62)">
     <!-- deduplicate_results -->
     <g transform="translate(687.856345 448.529358) scale(0.08 -0.08)">
      <use xlink:href="#DejaVuSans-64"/>
      <use xlink:href="#DejaVuSans-65" transform="translate(63.476562 0)"/>
      <use xlink:href="#DejaVuSans-64" transform="translate(125 0)"/>
      <use xlink:href="#DejaVuSans-75" transform="translate(188.476562 0)"/>
      <use xlink:href="#DejaVuSans-70" transform="translate(251.855469 0)"/>
      <use xlink:href="#DejaVuSans-6c" transform="translate(315.332031 0)"/>
      <use xlink:href="#DejaVuSans-69" transform="translate(343.115234 0)"/>
      <use xlink:href="#DejaVuSans-63" transform="translate(370.898438 0)"/>
      <use xlink:href="#DejaVuSans-61" transform="translate(425.878906 0)"/>
      <use xlink:href="#DejaVuSans-74" transform="translate(487.158203 0)"/>
      <use xlink:href="#DejaVuSans-65" transform="translate(526.367188 0)"/>
      <use xlink:href="#DejaVuSans-5f" transform="translate(587.890625 0)"/>
      <use xlink:href="#DejaVuSans-72" transform="translate(637.890625 0)"/>
      <use xlink:href="#DejaVuSans-65" transform="translate(676.753906 0)"/>
      <use xlink:href="#DejaVuSans-73" transform="translate(738.277344 0)"/>
      <use xlink:href="#DejaVuSans-75" transform="translate(790.376953 0)"/>
      <use xlink:href="#DejaVuSans-6c" transform="translate(853.755859 0)"/>
      <use xlink:href="#DejaVuSans-74" transform="translate(881.539062 0)"/>
      <use xlink:href="#DejaVuSans-73" transform="translate(920.748047 0)"/>
     </g>
    </g>
   </g>
   <g id="text_9">
    <g clip-path="url(#p74c3ae2d62)">
     <!-- title_abstract_screening -->
     <g transform="translate(604.37179 345.999161) scale(0.08 -0.08)">
      <use xlink:href="#DejaVuSans-74"/>
      <use xlink:href="#DejaVuSans-69" transform="translate(39.208984 0)"/>
      <use xlink:href="#DejaVuSans-74" transform="translate(66.992188 0)"/>
      <use xlink:href="#DejaVuSans-6c" transform="translate(106.201172 0)"/>
      <use xlink:href="#DejaVuSans-65" transform="translate(133.984375 0)"/>
      <use xlink:href="#DejaVuSans-5f" transform="translate(195.507812 0)"/>
      <use xlink:href="#DejaVuSans-61" transform="translate(245.507812 0)"/>
      <use xlink:href="#DejaVuSans-62" transform="translate(306.787109 0)"/>
      <use xlink:href="#DejaVuSans-73" transform="translate(370.263672 0)"/>
      <use xlink:href="#DejaVuSans-74" transform="translate(422.363281 0)"/>
      <use xlink:href="#DejaVuSans-72" transform="translate(461.572266 0)"/>
      <use xlink:href="#DejaVuSans-61" transform="translate(502.685547 0)"/>
      <use xlink:href="#DejaVuSans-63" transform="translate(563.964844 0)"/>
      <use xlink:href="#DejaVuSans-74" transform="translate(618.945312 0)"/>
      <use xlink:href="#DejaVuSans-5f" transform="translate(658.154297 0)"/>
      <use xlink:href="#DejaVuSans-73" transform="translate(708.154297 0)"/>
      <use xlink:href="#DejaVuSans-63" transform="translate(760.253906 0)"/>
      <use xlink:href="#DejaVuSans-72" transform="translate(815.234375 0)"/>
      <use xlink:href="#DejaVuSans-65" transform="translate(854.097656 0)"/>
      <use xlink:href="#DejaVuSans-65" transform="translate(915.621094 0)"/>
      <use xlink:href="#DejaVuSans-6e" transform="translate(977.144531 0)"/>
      <use xlink:href="#DejaVuSans-69" transform="translate(1040.523438 0)"/>
      <use xlink:href="#DejaVuSans-6e" transform="translate(1068.306641 0)"/>
      <use xlink:href="#DejaVuSans-67" transform="translate(1131.685547 0)"/>
     </g>
    </g>
   </g>
   <g id="text_10">
    <g clip-path="url(#p74c3ae2d62)">
     <!-- check_inclusion_rate -->
     <g transform="translate(585.808188 311.822429) scale(0.08 -0.08)">
      <defs>
       <path id="DejaVuSans-6b" d="M 581 4863 
L 1159 4863 
L 1159 1991 
L 2875 3500 
L 3609 3500 
L 1753 1863 
L 3688 0 
L 2938 0 
L 1159 1709 
L 1159 0 
L 581 0 
L 581 4863 
z
" transform="scale(0.015625)"/>
      </defs>
      <use xlink:href="#DejaVuSans-63"/>
      <use xlink:href="#DejaVuSans-68" transform="translate(54.980469 0)"/>
      <use xlink:href="#DejaVuSans-65" transform="translate(118.359375 0)"/>
      <use xlink:href="#DejaVuSans-63" transform="translate(179.882812 0)"/>
      <use xlink:href="#DejaVuSans-6b" transform="translate(234.863281 0)"/>
      <use xlink:href="#DejaVuSans-5f" transform="translate(292.773438 0)"/>
      <use xlink:href="#DejaVuSans-69" transform="translate(342.773438 0)"/>
      <use xlink:href="#DejaVuSans-6e" transform="translate(370.556641 0)"/>
      <use xlink:href="#DejaVuSans-63" transform="translate(433.935547 0)"/>
      <use xlink:href="#DejaVuSans-6c" transform="translate(488.916016 0)"/>
      <use xlink:href="#DejaVuSans-75" transform="translate(516.699219 0)"/>
      <use xlink:href="#DejaVuSans-73" transform="translate(580.078125 0)"/>
      <use xlink:href="#DejaVuSans-69" transform="translate(632.177734 0)"/>
      <use xlink:href="#DejaVuSans-6f" transform="translate(659.960938 0)"/>
      <use xlink:href="#DejaVuSans-6e" transform="translate(721.142578 0)"/>
      <use xlink:href="#DejaVuSans-5f" transform="translate(784.521484 0)"/>
      <use xlink:href="#DejaVuSans-72" transform="translate(834.521484 0)"/>
      <use xlink:href="#DejaVuSans-61" transform="translate(875.634766 0)"/>
      <use xlink:href="#DejaVuSans-74" transform="translate(936.914062 0)"/>
      <use xlink:href="#DejaVuSans-65" transform="translate(976.123047 0)"/>
     </g>
    </g>
   </g>
   <g id="text_11">
    <g clip-path="url(#p74c3ae2d62)">
     <!-- expand_search -->
     <g transform="translate(423.155477 72.585302) scale(0.08 -0.08)">
      <defs>
       <path id="DejaVuSans-78" d="M 3513 3500 
L 2247 1797 
L 3578 0 
L 2900 0 
L 1881 1375 
L 863 0 
L 184 0 
L 1544 1831 
L 300 3500 
L 978 3500 
L 1906 2253 
L 2834 3500 
L 3513 3500 
z
" transform="scale(0.015625)"/>
      </defs>
      <use xlink:href="#DejaVuSans-65"/>
      <use xlink:href="#DejaVuSans-78" transform="translate(59.773438 0)"/>
      <use xlink:href="#DejaVuSans-70" transform="translate(118.953125 0)"/>
      <use xlink:href="#DejaVuSans-61" transform="translate(182.429688 0)"/>
      <use xlink:href="#DejaVuSans-6e" transform="translate(243.708984 0)"/>
      <use xlink:href="#DejaVuSans-64" transform="translate(307.087891 0)"/>
      <use xlink:href="#DejaVuSans-5f" transform="translate(370.564453 0)"/>
      <use xlink:href="#DejaVuSans-73" transform="translate(420.564453 0)"/>
      <use xlink:href="#DejaVuSans-65" transform="translate(472.664062 0)"/>
      <use xlink:href="#DejaVuSans-61" transform="translate(534.1875 0)"/>
      <use xlink:href="#DejaVuSans-72" transform="translate(595.466797 0)"/>
      <use xlink:href="#DejaVuSans-63" transform="translate(634.330078 0)"/>
      <use xlink:href="#DejaVuSans-68" transform="translate(689.310547 0)"/>
     </g>
    </g>
   </g>
   <g id="text_12">
    <g clip-path="url(#p74c3ae2d62)">
     <!-- full_text_review -->
     <g transform="translate(198.198687 380.175893) scale(0.08 -0.08)">
      <defs>
       <path id="DejaVuSans-76" d="M 191 3500 
L 800 3500 
L 1894 563 
L 2988 3500 
L 3597 3500 
L 2284 0 
L 1503 0 
L 191 3500 
z
" transform="scale(0.015625)"/>
       <path id="DejaVuSans-77" d="M 269 3500 
L 844 3500 
L 1563 769 
L 2278 3500 
L 2956 3500 
L 3675 769 
L 4391 3500 
L 4966 3500 
L 4050 0 
L 3372 0 
L 2619 2869 
L 1863 0 
L 1184 0 
L 269 3500 
z
" transform="scale(0.015625)"/>
      </defs>
      <use xlink:href="#DejaVuSans-66"/>
      <use xlink:href="#DejaVuSans-75" transform="translate(35.205078 0)"/>
      <use xlink:href="#DejaVuSans-6c" transform="translate(98.583984 0)"/>
      <use xlink:href="#DejaVuSans-6c" transform="translate(126.367188 0)"/>
      <use xlink:href="#DejaVuSans-5f" transform="translate(154.150391 0)"/>
      <use xlink:href="#DejaVuSans-74" transform="translate(204.150391 0)"/>
      <use xlink:href="#DejaVuSans-65" transform="translate(243.359375 0)"/>
      <use xlink:href="#DejaVuSans-78" transform="translate(303.132812 0)"/>
      <use xlink:href="#DejaVuSans-74" transform="translate(362.3125 0)"/>
      <use xlink:href="#DejaVuSans-5f" transform="translate(401.521484 0)"/>
      <use xlink:href="#DejaVuSans-72" transform="translate(451.521484 0)"/>
      <use xlink:href="#DejaVuSans-65" transform="translate(490.384766 0)"/>
      <use xlink:href="#DejaVuSans-76" transform="translate(551.908203 0)"/>
      <use xlink:href="#DejaVuSans-69" transform="translate(611.087891 0)"/>
      <use xlink:href="#DejaVuSans-65" transform="translate(638.871094 0)"/>
      <use xlink:href="#DejaVuSans-77" transform="translate(700.394531 0)"/>
     </g>
    </g>
   </g>
   <g id="text_13">
    <g clip-path="url(#p74c3ae2d62)">
     <!-- data_extraction -->
     <g transform="translate(322.51357 277.645696) scale(0.08 -0.08)">
      <use xlink:href="#DejaVuSans-64"/>
      <use xlink:href="#DejaVuSans-61" transform="translate(63.476562 0)"/>
      <use xlink:href="#DejaVuSans-74" transform="translate(124.755859 0)"/>
      <use xlink:href="#DejaVuSans-61" transform="translate(163.964844 0)"/>
      <use xlink:href="#DejaVuSans-5f" transform="translate(225.244141 0)"/>
      <use xlink:href="#DejaVuSans-65" transform="translate(275.244141 0)"/>
      <use xlink:href="#DejaVuSans-78" transform="translate(335.017578 0)"/>
      <use xlink:href="#DejaVuSans-74" transform="translate(394.197266 0)"/>
      <use xlink:href="#DejaVuSans-72" transform="translate(433.40625 0)"/>
      <use xlink:href="#DejaVuSans-61" transform="translate(474.519531 0)"/>
      <use xlink:href="#DejaVuSans-63" transform="translate(535.798828 0)"/>
      <use xlink:href="#DejaVuSans-74" transform="translate(590.779297 0)"/>
      <use xlink:href="#DejaVuSans-69" transform="translate(629.988281 0)"/>
      <use xlink:href="#DejaVuSans-6f" transform="translate(657.771484 0)"/>
      <use xlink:href="#DejaVuSans-6e" transform="translate(718.953125 0)"/>
     </g>
    </g>
   </g>
   <g id="text_14">
    <g clip-path="url(#p74c3ae2d62)">
     <!-- synthesis -->
     <g transform="translate(359.842172 243.580214) scale(0.08 -0.08)">
      <use xlink:href="#DejaVuSans-73"/>
      <use xlink:href="#DejaVuSans-79" transform="translate(52.099609 0)"/>
      <use xlink:href="#DejaVuSans-6e" transform="translate(111.279297 0)"/>
      <use xlink:href="#DejaVuSans-74" transform="translate(174.658203 0)"/>
      <use xlink:href="#DejaVuSans-68" transform="translate(213.867188 0)"/>
      <use xlink:href="#DejaVuSans-65" transform="translate(277.246094 0)"/>
      <use xlink:href="#DejaVuSans-73" transform="translate(338.769531 0)"/>
      <use xlink:href="#DejaVuSans-69" transform="translate(390.869141 0)"/>
      <use xlink:href="#DejaVuSans-73" transform="translate(418.652344 0)"/>
     </g>
    </g>
   </g>
   <g id="text_15">
    <g clip-path="url(#p74c3ae2d62)">
     <!-- format_citations -->
     <g transform="translate(371.114523 209.292232) scale(0.08 -0.08)">
      <defs>
       <path id="DejaVuSans-6d" d="M 3328 2828 
Q 3544 3216 3844 3400 
Q 4144 3584 4550 3584 
Q 5097 3584 5394 3201 
Q 5691 2819 5691 2113 
L 5691 0 
L 5113 0 
L 5113 2094 
Q 5113 2597 4934 2840 
Q 4756 3084 4391 3084 
Q 3944 3084 3684 2787 
Q 3425 2491 3425 1978 
L 3425 0 
L 2847 0 
L 2847 2094 
Q 2847 2600 2669 2842 
Q 2491 3084 2119 3084 
Q 1678 3084 1418 2786 
Q 1159 2488 1159 1978 
L 1159 0 
L 581 0 
L 581 3500 
L 1159 3500 
L 1159 2956 
Q 1356 3278 1631 3431 
Q 1906 3584 2284 3584 
Q 2666 3584 2933 3390 
Q 3200 3197 3328 2828 
z
" transform="scale(0.015625)"/>
      </defs>
      <use xlink:href="#DejaVuSans-66"/>
      <use xlink:href="#DejaVuSans-6f" transform="translate(35.205078 0)"/>
      <use xlink:href="#DejaVuSans-72" transform="translate(96.386719 0)"/>
      <use xlink:href="#DejaVuSans-6d" transform="translate(135.75 0)"/>
      <use xlink:href="#DejaVuSans-61" transform="translate(233.162109 0)"/>
      <use xlink:href="#DejaVuSans-74" transform="translate(294.441406 0)"/>
      <use xlink:href="#DejaVuSans-5f" transform="translate(333.650391 0)"/>
      <use xlink:href="#DejaVuSans-63" transform="translate(383.650391 0)"/>
      <use xlink:href="#DejaVuSans-69" transform="translate(438.630859 0)"/>
      <use xlink:href="#DejaVuSans-74" transform="translate(466.414062 0)"/>
      <use xlink:href="#DejaVuSans-61" transform="translate(505.623047 0)"/>
      <use xlink:href="#DejaVuSans-74" transform="translate(566.902344 0)"/>
      <use xlink:href="#DejaVuSans-69" transform="translate(606.111328 0)"/>
      <use xlink:href="#DejaVuSans-6f" transform="translate(633.894531 0)"/>
      <use xlink:href="#DejaVuSans-6e" transform="translate(695.076172 0)"/>
      <use xlink:href="#DejaVuSans-73" transform="translate(758.455078 0)"/>
     </g>
    </g>
   </g>
   <g id="text_16">
    <g clip-path="url(#p74c3ae2d62)">
     <!-- review_synthesis -->
     <g transform="translate(394.34375 175.115499) scale(0.08 -0.08)">
      <use xlink:href="#DejaVuSans-72"/>
      <use xlink:href="#DejaVuSans-65" transform="translate(38.863281 0)"/>
      <use xlink:href="#DejaVuSans-76" transform="translate(100.386719 0)"/>
      <use xlink:href="#DejaVuSans-69" transform="translate(159.566406 0)"/>
      <use xlink:href="#DejaVuSans-65" transform="translate(187.349609 0)"/>
      <use xlink:href="#DejaVuSans-77" transform="translate(248.873047 0)"/>
      <use xlink:href="#DejaVuSans-5f" transform="translate(330.660156 0)"/>
      <use xlink:href="#DejaVuSans-73" transform="translate(380.660156 0)"/>
      <use xlink:href="#DejaVuSans-79" transform="translate(432.759766 0)"/>
      <use xlink:href="#DejaVuSans-6e" transform="translate(491.939453 0)"/>
      <use xlink:href="#DejaVuSans-74" transform="translate(555.318359 0)"/>
      <use xlink:href="#DejaVuSans-68" transform="translate(594.527344 0)"/>
      <use xlink:href="#DejaVuSans-65" transform="translate(657.90625 0)"/>
      <use xlink:href="#DejaVuSans-73" transform="translate(719.429688 0)"/>
      <use xlink:href="#DejaVuSans-69" transform="translate(771.529297 0)"/>
      <use xlink:href="#DejaVuSans-73" transform="translate(799.3125 0)"/>
     </g>
    </g>
   </g>
   <g id="text_17">
    <g clip-path="url(#p74c3ae2d62)">
     <!-- generate_review -->
     <g transform="translate(419.915477 140.938767) scale(0.08 -0.08)">
      <use xlink:href="#DejaVuSans-67"/>
      <use xlink:href="#DejaVuSans-65" transform="translate(63.476562 0)"/>
      <use xlink:href="#DejaVuSans-6e" transform="translate(125 0)"/>
      <use xlink:href="#DejaVuSans-65" transform="translate(188.378906 0)"/>
      <use xlink:href="#DejaVuSans-72" transform="translate(249.902344 0)"/>
      <use xlink:href="#DejaVuSans-61" transform="translate(291.015625 0)"/>
      <use xlink:href="#DejaVuSans-74" transform="translate(352.294922 0)"/>
      <use xlink:href="#DejaVuSans-65" transform="translate(391.503906 0)"/>
      <use xlink:href="#DejaVuSans-5f" transform="translate(453.027344 0)"/>
      <use xlink:href="#DejaVuSans-72" transform="translate(503.027344 0)"/>
      <use xlink:href="#DejaVuSans-65" transform="translate(541.890625 0)"/>
      <use xlink:href="#DejaVuSans-76" transform="translate(603.414062 0)"/>
      <use xlink:href="#DejaVuSans-69" transform="translate(662.59375 0)"/>
      <use xlink:href="#DejaVuSans-65" transform="translate(690.376953 0)"/>
      <use xlink:href="#DejaVuSans-77" transform="translate(751.900391 0)"/>
     </g>
    </g>
   </g>
   <g id="text_18">
    <g clip-path="url(#p74c3ae2d62)">
     <!-- complete -->
     <g transform="translate(434.579852 106.873285) scale(0.08 -0.08)">
      <use xlink:href="#DejaVuSans-63"/>
      <use xlink:href="#DejaVuSans-6f" transform="translate(54.980469 0)"/>
      <use xlink:href="#DejaVuSans-6d" transform="translate(116.162109 0)"/>
      <use xlink:href="#DejaVuSans-70" transform="translate(213.574219 0)"/>
      <use xlink:href="#DejaVuSans-6c" transform="translate(277.050781 0)"/>
      <use xlink:href="#DejaVuSans-65" transform="translate(304.833984 0)"/>
      <use xlink:href="#DejaVuSans-74" transform="translate(366.357422 0)"/>
      <use xlink:href="#DejaVuSans-65" transform="translate(405.566406 0)"/>
     </g>
    </g>
   </g>
   <g id="text_19">
    <!-- literature_review -->
    <g transform="translate(360.924375 17.837812) scale(0.14 -0.14)">
     <defs>
      <path id="DejaVuSans-Bold-6c" d="M 538 4863 
L 1656 4863 
L 1656 0 
L 538 0 
L 538 4863 
z
" transform="scale(0.015625)"/>
      <path id="DejaVuSans-Bold-69" d="M 538 3500 
L 1656 3500 
L 1656 0 
L 538 0 
L 538 3500 
z
M 538 4863 
L 1656 4863 
L 1656 3950 
L 538 3950 
L 538 4863 
z
" transform="scale(0.015625)"/>
      <path id="DejaVuSans-Bold-74" d="M 1759 4494 
L 1759 3500 
L 2913 3500 
L 2913 2700 
L 1759 2700 
L 1759 1216 
Q 1759 972 1856 886 
Q 1953 800 2241 800 
L 2816 800 
L 2816 0 
L 1856 0 
Q 1194 0 917 276 
Q 641 553 641 1216 
L 641 2700 
L 84 2700 
L 84 3500 
L 641 3500 
L 641 4494 
L 1759 4494 
z
" transform="scale(0.015625)"/>
      <path id="DejaVuSans-Bold-65" d="M 4031 1759 
L 4031 1441 
L 1416 1441 
Q 1456 1047 1700 850 
Q 1944 653 2381 653 
Q 2734 653 3104 758 
Q 3475 863 3866 1075 
L 3866 213 
Q 3469 63 3072 -14 
Q 2675 -91 2278 -91 
Q 1328 -91 801 392 
Q 275 875 275 1747 
Q 275 2603 792 3093 
Q 1309 3584 2216 3584 
Q 3041 3584 3536 3087 
Q 4031 2591 4031 1759 
z
M 2881 2131 
Q 2881 2450 2695 2645 
Q 2509 2841 2209 2841 
Q 1884 2841 1681 2658 
Q 1478 2475 1428 2131 
L 2881 2131 
z
" transform="scale(0.015625)"/>
      <path id="DejaVuSans-Bold-72" d="M 3138 2547 
Q 2991 2616 2845 2648 
Q 2700 2681 2553 2681 
Q 2122 2681 1889 2404 
Q 1656 2128 1656 1613 
L 1656 0 
L 538 0 
L 538 3500 
L 1656 3500 
L 1656 2925 
Q 1872 3269 2151 3426 
Q 2431 3584 2822 3584 
Q 2878 3584 2943 3579 
Q 3009 3575 3134 3559 
L 3138 2547 
z
" transform="scale(0.015625)"/>
      <path id="DejaVuSans-Bold-61" d="M 2106 1575 
Q 1756 1575 1579 1456 
Q 1403 1338 1403 1106 
Q 1403 894 1545 773 
Q 1688 653 1941 653 
Q 2256 653 2472 879 
Q 2688 1106 2688 1447 
L 2688 1575 
L 2106 1575 
z
M 3816 1997 
L 3816 0 
L 2688 0 
L 2688 519 
Q 2463 200 2181 54 
Q 1900 -91 1497 -91 
Q 953 -91 614 226 
Q 275 544 275 1050 
Q 275 1666 698 1953 
Q 1122 2241 2028 2241 
L 2688 2241 
L 2688 2328 
Q 2688 2594 2478 2717 
Q 2269 2841 1825 2841 
Q 1466 2841 1156 2769 
Q 847 2697 581 2553 
L 581 3406 
Q 941 3494 1303 3539 
Q 1666 3584 2028 3584 
Q 2975 3584 3395 3211 
Q 3816 2838 3816 1997 
z
" transform="scale(0.015625)"/>
      <path id="DejaVuSans-Bold-75" d="M 500 1363 
L 500 3500 
L 1625 3500 
L 1625 3150 
Q 1625 2866 1622 2436 
Q 1619 2006 1619 1863 
Q 1619 1441 1641 1255 
Q 1663 1069 1716 984 
Q 1784 875 1895 815 
Q 2006 756 2150 756 
Q 2500 756 2700 1025 
Q 2900 1294 2900 1772 
L 2900 3500 
L 4019 3500 
L 4019 0 
L 2900 0 
L 2900 506 
Q 2647 200 2364 54 
Q 2081 -91 1741 -91 
Q 1134 -91 817 281 
Q 500 653 500 1363 
z
" transform="scale(0.015625)"/>
      <path id="DejaVuSans-Bold-5f" d="M 3200 -916 
L 3200 -1509 
L 0 -1509 
L 0 -916 
L 3200 -916 
z
" transform="scale(0.015625)"/>
      <path id="DejaVuSans-Bold-76" d="M 97 3500 
L 1216 3500 
L 2088 1081 
L 2956 3500 
L 4078 3500 
L 2700 0 
L 1472 0 
L 97 3500 
z
" transform="scale(0.015625)"/>
      <path id="DejaVuSans-Bold-77" d="M 225 3500 
L 1313 3500 
L 1900 1088 
L 2491 3500 
L 3425 3500 
L 4013 1113 
L 4603 3500 
L 5691 3500 
L 4769 0 
L 3547 0 
L 2956 2406 
L 2369 0 
L 1147 0 
L 225 3500 
z
" transform="scale(0.015625)"/>
     </defs>
     <use xlink:href="#DejaVuSans-Bold-6c"/>
     <use xlink:href="#DejaVuSans-Bold-69" transform="translate(34.277344 0)"/>
     <use xlink:href="#DejaVuSans-Bold-74" transform="translate(68.554688 0)"/>
     <use xlink:href="#DejaVuSans-Bold-65" transform="translate(116.357422 0)"/>
     <use xlink:href="#DejaVuSans-Bold-72" transform="translate(184.179688 0)"/>
     <use xlink:href="#DejaVuSans-Bold-61" transform="translate(233.496094 0)"/>
     <use xlink:href="#DejaVuSans-Bold-74" transform="translate(300.976562 0)"/>
     <use xlink:href="#DejaVuSans-Bold-75" transform="translate(348.779297 0)"/>
     <use xlink:href="#DejaVuSans-Bold-72" transform="translate(419.970703 0)"/>
     <use xlink:href="#DejaVuSans-Bold-65" transform="translate(469.287109 0)"/>
     <use xlink:href="#DejaVuSans-Bold-5f" transform="translate(537.109375 0)"/>
     <use xlink:href="#DejaVuSans-Bold-72" transform="translate(587.109375 0)"/>
     <use xlink:href="#DejaVuSans-Bold-65" transform="translate(636.425781 0)"/>
     <use xlink:href="#DejaVuSans-Bold-76" transform="translate(704.248047 0)"/>
     <use xlink:href="#DejaVuSans-Bold-69" transform="translate(769.433594 0)"/>
     <use xlink:href="#DejaVuSans-Bold-65" transform="translate(803.710938 0)"/>
     <use xlink:href="#DejaVuSans-Bold-77" transform="translate(871.533203 0)"/>
    </g>
   </g>
  </g>
 </g>
 <defs>
  <clipPath id="p74c3ae2d62">
   <rect x="7.2" y="23.837812" width="842.4" height="537.6"/>
  </clipPath>
 </defs>
</svg>
